<svg xmlns="http://www.w3.org/2000/svg" width="140.958" height="55.433"><defs><clipPath id="a"><path data-name="Rectangle 4468" fill="#e7ceb0" stroke="#707070" d="M0 0h140.958v55.433H0z"/></clipPath></defs><g data-name="Mask Group 6069" clip-path="url(#a)"><path d="m32.519 39.613 2.533-8.242h7.821l-3 9.613a11.15 11.15 0 0 1-10.658 7.621h-.968a7.332 7.332 0 0 1-7.126-9.448l7.835-25.197a10.909 10.909 0 0 1 10.448-7.555h.842c5.1 0 9.039 4.847 7.518 9.616l-2.424 7.652h-7.749l2.578-8.1a1.567 1.567 0 0 0-1.519-1.936 2.468 2.468 0 0 0-2.3 1.895l-7.545 23.741a1.511 1.511 0 0 0 1.318 2.082 2.254 2.254 0 0 0 2.396-1.742Zm7.307 8.777h7.766l2-7.272h6.294l-.3 7.273h7.763V6.987H52.681Zm16.349-14.541h-4.589l5.377-19.612ZM81.762 6.987l-9.37 34.153 1.374-34.153h-7.763v41.4h10.673l12.852-41.4Zm-2.611 41.4h7.766l2-7.272h6.289l-.291 7.272h7.763v-41.4H92.005ZM95.5 33.849h-4.592l5.378-19.612Zm17.574-26.862v34.131h7.012v7.272h-14.747V6.987Z" fill="#e7ceb0" fill-rule="evenodd"/></g></svg>