<svg xmlns="http://www.w3.org/2000/svg" width="140.958" height="56.225"><defs><clipPath id="a"><path data-name="Rectangle 4489" fill="#e7ceb0" stroke="#707070" d="M0 0h140.958v56.225H0z"/></clipPath></defs><g data-name="Mask Group 6082" clip-path="url(#a)"><g data-name="Group 6427" fill="#e7ceb0"><path data-name="Path 7455" d="m126.29 33.768-20.383.051a9.02 9.02 0 0 0 9.023 9.023 8.913 8.913 0 0 0 7.161-3.572h2.81a11.286 11.286 0 1 1 1.388-5.5Zm-20.112-2.235h17.437a9 9 0 0 0-17.437 0Z"/><path data-name="Path 7456" d="M99.965 33.803v11.325h-2.354V33.803a9.024 9.024 0 1 0-18.047 0v11.325h-2.218v-11.8a11.315 11.315 0 0 1 11.275-10.8 11.373 11.373 0 0 1 11.344 11.275Z"/><path data-name="Path 7457" d="M62.297 22.528a11.3 11.3 0 1 1-11.275 11.325 11.336 11.336 0 0 1 11.275-11.325Zm8.972 11.275a9.015 9.015 0 1 0-9.006 9.023 9.02 9.02 0 0 0 9.006-9.023Z"/><path data-name="Path 7458" d="M47.297 22.477v2.3a9 9 0 0 0-8.972 8.651v11.7h-2.353V33.735a11.478 11.478 0 0 1 2.353-6.873 11.3 11.3 0 0 1 8.972-4.385Z"/><path data-name="Path 7459" d="M32.248 42.961v2.184a11.2 11.2 0 0 1-11.241-11.326v-9.125h-4.842v-2.217h4.842V11.151h2.217v11.326h4.3v2.218h-4.283v9.108a9.123 9.123 0 0 0 9.007 9.158Z"/></g></g></svg>