<svg xmlns="http://www.w3.org/2000/svg" width="140.958" height="56.225"><defs><clipPath id="a"><path data-name="Rectangle 4465" fill="#e7ceb0" stroke="#707070" d="M0 0h140.958v56.225H0z"/></clipPath></defs><g data-name="Mask Group 6071" clip-path="url(#a)"><g transform="translate(9.35 12.329)" fill="#e7ceb0"><path data-name="Path 7351" d="M26.952 8.552h4.7l3.024 12.7h.241l3.881-12.7h4.5l3.841 12.7h.241l3.051-12.7h4.7l-5.085 18.053h-5.082L41.15 14.426h-.2l-3.881 12.178h-5.086Z"/><path data-name="Path 7352" d="M57.839 8.552h4.456v18.053h-4.456Z"/><path data-name="Path 7353" d="M66.176 8.551h4.256v2.195h.241a5.648 5.648 0 0 1 5.085-2.636c4.055 0 6.517 2.85 6.517 6.691v11.8h-4.456V15.963a3.386 3.386 0 0 0-3.466-3.667 3.733 3.733 0 0 0-3.707 3.975v10.331h-4.47Z"/><path data-name="Path 7354" d="M85.005 17.585A9.134 9.134 0 0 1 94.44 8.11c4.63 0 8.23 2.85 8.926 7.106h-4.563a4.421 4.421 0 0 0-4.323-3.051c-3.024 0-4.938 2.4-4.938 5.42 0 3.118 2.021 5.42 4.978 5.42a4.249 4.249 0 0 0 4.256-2.917h4.563c-.683 4.189-4.256 6.972-8.886 6.972a9.145 9.145 0 0 1-9.448-9.475Z"/><path data-name="Path 7355" d="M109.738 31.074a.19.19 0 0 0-.027.08h4.43l8.511-22.6h-4.764l-4.363 12.7h-.287l-4.5-12.7h-4.7l7.173 18.6Z"/><path data-name="Path 7356" d="m15.381 18.374-.107-.107v.013a2.443 2.443 0 1 0-3.065 3.8l.616.616h-.174a8.1 8.1 0 0 1 0-16.193 7.777 7.777 0 0 1 7.9 8.1 8.47 8.47 0 0 1-1.164 4.4l3.332 3.332A12.538 12.538 0 0 0 12.66 2.146a12.46 12.46 0 1 0-.027 24.918c.147 0 .308 0 .455-.013h2.193v.013h8.792l-8.658-8.658c-.025-.018-.025-.032-.034-.032Z"/><circle data-name="Ellipse 348" cx="2.81" cy="2.81" transform="translate(57.29)" r="2.81"/></g></g></svg>