<svg xmlns="http://www.w3.org/2000/svg" width="110.626" height="29.672"><g data-name="logo MVNIMAL blanc"><g data-name="Group 6426"><g data-name="Group 6425" fill="#e7ceb0"><path data-name="Path 7443" d="M109.413 21.982h-.029v-1.316c.133-.013.418-.063.418-.7v-.028c0-.615-.171-.7-.324-.7s-.284.091-.3.642l-.015.473c-.024 1.255-.514 1.584-1.078 1.584h-.037c-.608 0-1.068-.372-1.068-1.847v-.2c0-1.624.589-1.884 1.107-1.884h.024v1.3c-.138.023-.337.109-.337.673v.036c0 .546.109.65.267.65s.262-.1.276-.6l.01-.486c.037-1.32.437-1.619 1.063-1.619h.057c.571 0 1.174.26 1.174 1.93v.114c-.001 1.797-.738 1.978-1.208 1.978Z"/><path data-name="Path 7444" d="M110.563 16.377v1.229h-3.535v-2.471c0-1.26.494-1.588 1.192-1.588h.062c.7 0 1.226.341 1.226 1.588v1.242Zm-1.958-1.128c0-.332-.151-.428-.336-.428h-.01c-.171 0-.328.1-.328.428v1.128h.675Z"/><path data-name="Path 7445" d="M108.716 8.814h.143c.722 0 1.767.369 1.767 2.179v.2c0 1.8-1.045 2.179-1.767 2.179h-.143c-.736 0-1.748-.382-1.748-2.179v-.2c-.002-1.805 1.016-2.179 1.748-2.179Zm-.789 2.284c0 .855.485 1 .826 1h.052c.341 0 .845-.15.845-1s-.5-1-.845-1h-.052c-.341-.001-.826.145-.826 1Z"/><path data-name="Path 7446" d="M109.703 4.295h.546a.483.483 0 0 0 .289-.05h.024v1.26a.481.481 0 0 1-.218.033h-.3c-.457 0-.589.15-.589.632v1.073h1.107v1.229h-3.532V5.738c0-1.237.5-1.415.964-1.415h.034a.847.847 0 0 1 .836.759.805.805 0 0 1 .839-.787Zm-1.167 1.7c0-.324-.151-.4-.3-.4h-.01c-.153 0-.289.073-.289.4v1.25h.6Z"/><path data-name="Path 7447" d="M108.002 4.122h-.974V.187h.974v1.356h2.561v1.224h-2.561Z"/></g></g><path data-name="Path 7448" d="M0 0h7.856l1.636 13.877L11.207 0h7.419v29.671h-5.663V13.478l-2.512 16.193H8.095L5.583 13.48v16.192H0Z" fill="#e7ceb0"/><path data-name="Path 7449" d="M19.351 0h6.939l1.8 18.585L29.885 0h6.341l-3.988 29.671h-8.617Z" fill="#e7ceb0"/><path data-name="Path 7450" d="M97.847 29.673h-6.939l-1.8-18.585-1.795 18.585h-6.338L84.963.002h8.612Z" fill="#e7ceb0"/><path data-name="Path 7451" d="m43.289 0 3.39 14.356V0h5.622v29.671h-5.782L42.61 14.198v15.473h-5.7V0Z" fill="#e7ceb0"/><path data-name="Path 7452" d="M60.368 29.672h-6.581V0h6.582Z" fill="#e7ceb0"/><path data-name="Path 7453" d="M61.807 0h7.856l1.634 13.877L73.012 0h7.419v29.671h-5.663V13.478L72.254 29.67H69.9l-2.512-16.192v16.193h-5.581Z" fill="#e7ceb0"/><path data-name="Path 7454" d="M105.033 0v23.37h5.385v6.3H98.453V0Z" fill="#e7ceb0"/></g></svg>