<svg xmlns="http://www.w3.org/2000/svg" width="140.958" height="55.433"><defs><clipPath id="a"><path data-name="Rectangle 4466" fill="#e7ceb0" stroke="#707070" d="M0 0h140.958v55.433H0z"/></clipPath></defs><g fill="#e7ceb0" data-name="Mask Group 6067" clip-path="url(#a)"><g data-name="Group 6404"><path data-name="Path 7331" d="M46.896 8.913h.5v2.374h1.2v.446h-1.7v-2.82Z"/><path data-name="Path 7332" d="M50.361 8.913h1.868v.438h-1.365v.717h1.294v.422h-1.294v.8h1.438v.446h-1.94V8.913Z"/><path data-name="Path 7333" d="M55.662 9.504a.6.6 0 0 0-.225-.173.678.678 0 0 0-.293-.07.76.76 0 0 0-.175.022.492.492 0 0 0-.159.068.389.389 0 0 0-.118.12.326.326 0 0 0-.046.177.319.319 0 0 0 .04.164.359.359 0 0 0 .109.115.683.683 0 0 0 .169.083c.067.024.139.047.219.071s.184.062.281.1a1.1 1.1 0 0 1 .267.148.742.742 0 0 1 .2.23.705.705 0 0 1 .077.347.877.877 0 0 1-.084.4.815.815 0 0 1-.224.281.961.961 0 0 1-.326.167 1.38 1.38 0 0 1-.394.055 1.47 1.47 0 0 1-.537-.1 1.045 1.045 0 0 1-.43-.3l.358-.334a.728.728 0 0 0 .277.227.786.786 0 0 0 .34.084.815.815 0 0 0 .18-.022.47.47 0 0 0 .166-.074.427.427 0 0 0 .12-.129.371.371 0 0 0 .046-.194.311.311 0 0 0-.052-.184.454.454 0 0 0-.139-.128 1.02 1.02 0 0 0-.207-.093l-.251-.083a2.543 2.543 0 0 1-.255-.1.84.84 0 0 1-.229-.148.693.693 0 0 1-.165-.225.77.77 0 0 1-.063-.333.731.731 0 0 1 .09-.371.8.8 0 0 1 .235-.257 1.02 1.02 0 0 1 .332-.154 1.434 1.434 0 0 1 .377-.05 1.364 1.364 0 0 1 .436.075 1.085 1.085 0 0 1 .385.227Z"/><path data-name="Path 7334" d="M60.374 8.913h.669l1.31 2.11h.008v-2.11h.5v2.82h-.637l-1.341-2.178h-.008v2.178h-.5Z"/><path data-name="Path 7335" d="M64.779 10.316a1.585 1.585 0 0 1 .113-.611 1.342 1.342 0 0 1 .315-.463 1.376 1.376 0 0 1 .478-.3 1.708 1.708 0 0 1 .6-.1 1.741 1.741 0 0 1 .61.1 1.4 1.4 0 0 1 .482.3 1.337 1.337 0 0 1 .317.463 1.572 1.572 0 0 1 .114.611 1.553 1.553 0 0 1-.114.6 1.372 1.372 0 0 1-.317.469 1.44 1.44 0 0 1-.482.307 1.658 1.658 0 0 1-.61.109 1.64 1.64 0 0 1-.6-.109 1.391 1.391 0 0 1-.793-.776 1.574 1.574 0 0 1-.113-.6Zm.545 0a1.2 1.2 0 0 0 .069.416.959.959 0 0 0 .2.328.932.932 0 0 0 .307.217.963.963 0 0 0 .392.078.982.982 0 0 0 .394-.078.919.919 0 0 0 .309-.217.989.989 0 0 0 .2-.328 1.207 1.207 0 0 0 .069-.416 1.158 1.158 0 0 0-.069-.406.973.973 0 0 0-.2-.326.9.9 0 0 0-.307-.219.974.974 0 0 0-.4-.08.959.959 0 0 0-.4.08.91.91 0 0 0-.3.219.973.973 0 0 0-.2.326 1.158 1.158 0 0 0-.067.406Z"/><path data-name="Path 7336" d="M71.974 10.697a1.152 1.152 0 0 1-.088.46 1.016 1.016 0 0 1-.6.57 1.272 1.272 0 0 1-.451.077 1.3 1.3 0 0 1-.451-.077 1.076 1.076 0 0 1-.361-.221.981.981 0 0 1-.239-.349 1.193 1.193 0 0 1-.085-.46V8.913h.5v1.764a.93.93 0 0 0 .032.244.6.6 0 0 0 .106.217.56.56 0 0 0 .195.156.785.785 0 0 0 .6 0 .537.537 0 0 0 .198-.156.6.6 0 0 0 .106-.217.981.981 0 0 0 .032-.244V8.913h.5Z"/><path data-name="Path 7337" d="M73.654 8.913h.561l.777 2.17h.016l.785-2.17h.542l-1.131 2.82h-.434Z"/><path data-name="Path 7338" d="M78.038 8.913h1.868v.438h-1.368v.717h1.3v.422h-1.3v.8h1.438v.446h-1.938Z"/><path data-name="Path 7339" d="M82.787 8.913h.434l1.215 2.82h-.574l-.263-.645h-1.223l-.255.645h-.561Zm.637 1.745-.434-1.147-.443 1.147Z"/><path data-name="Path 7340" d="M88.339 10.697a1.152 1.152 0 0 1-.088.46 1.016 1.016 0 0 1-.6.57 1.272 1.272 0 0 1-.451.077 1.3 1.3 0 0 1-.451-.077 1.076 1.076 0 0 1-.361-.221.981.981 0 0 1-.239-.349 1.193 1.193 0 0 1-.085-.46V8.913h.5v1.764a.93.93 0 0 0 .032.244.6.6 0 0 0 .106.217.56.56 0 0 0 .195.156.785.785 0 0 0 .6 0 .537.537 0 0 0 .195-.156.6.6 0 0 0 .106-.217.981.981 0 0 0 .032-.244V8.913h.5Z"/><path data-name="Path 7341" d="m91.052 10.228-.876-1.315h.605l.581.963.574-.963h.577l-.86 1.326 1.012 1.494h-.633l-.689-1.108-.662 1.108h-.605Z"/></g><path data-name="Path 7342" d="M13.625 31.945a12.117 12.117 0 0 1-2.341-.191 1.164 1.164 0 0 0-.065.365c0 .315.226.527.676.634a7.667 7.667 0 0 0 1.729.161 14.8 14.8 0 0 0 5.713-.988 5.9 5.9 0 0 1 3.608 2.62 7.083 7.083 0 0 1 1.052 3.887 7 7 0 0 1-3.372 6.185 15.567 15.567 0 0 1-8.687 2.212q-5.316 0-8.215-1.89a5.14 5.14 0 0 1-2.684-4.467 4.439 4.439 0 0 1 .494-2.029 3.074 3.074 0 0 1 1.139-1.343 8.213 8.213 0 0 0 3.169 1.453 16.64 16.64 0 0 0 4.306.559 14.175 14.175 0 0 0 2.845-.172c.422-.115.634-.315.634-.6a.828.828 0 0 0-.129-.43 12.751 12.751 0 0 1-2.681.243 14.76 14.76 0 0 1-6.51-1.185 4.553 4.553 0 0 1-2.878-4.273 4.791 4.791 0 0 1 .451-2.072 3.04 3.04 0 0 1 1.331-1.428 5.89 5.89 0 0 1-2.008-2.212 7.4 7.4 0 0 1-.827-3.652 7.772 7.772 0 0 1 3.092-6.507 12.787 12.787 0 0 1 8.031-2.383 13.513 13.513 0 0 1 4.6.794v-1.5a5.463 5.463 0 0 1 6.326-.065 4.2 4.2 0 0 1 1.555 3.306 6.214 6.214 0 0 1-.247 1.933 8.08 8.08 0 0 1-.719 1.525 9.665 9.665 0 0 1 .559 3.522 7.034 7.034 0 0 1-2.7 5.895 11.5 11.5 0 0 1-7.247 2.093Zm-.713-8.8q0-.885-.664-.886-.615 0-.615.738v2.534a.873.873 0 0 0 .59.172.55.55 0 0 0 .542-.3 2.715 2.715 0 0 0 .148-1.082Z"/><path data-name="Path 7343" d="M36.389 39.31q-5.948 0-9.384-3.308-3.523-3.328-3.522-9.116a11.629 11.629 0 0 1 12.112-12.338 11.766 11.766 0 0 1 8.235 2.824 9.028 9.028 0 0 1 3.1 6.947 6.426 6.426 0 0 1-2.555 5.541 10.555 10.555 0 0 1-6.442 1.761 9.822 9.822 0 0 1-5.154-1.267.556.556 0 0 0-.172.473q0 .645 1.7 1.181a11.9 11.9 0 0 0 3.855.58 13.264 13.264 0 0 0 3.93-.547 10.267 10.267 0 0 0 2.845-1.3 3.293 3.293 0 0 1 .826 1.664 8.975 8.975 0 0 1 .311 2.212 7.317 7.317 0 0 1-.194 1.771 10.712 10.712 0 0 1-3.435 2.019 17.884 17.884 0 0 1-6.056.903Zm-.212-14.183q1.552 0 1.554-1.18 0-1.118-1.646-1.118a1.774 1.774 0 0 0-1.895 1.77 3.754 3.754 0 0 0 1.987.528Z"/><path data-name="Path 7344" d="M68.779 28.013a7.449 7.449 0 0 0 .343 2.492 2.853 2.853 0 0 0 1.2 1.482 2.541 2.541 0 0 1 .022.408v.386a6.118 6.118 0 0 1-1.847 4.746 5.733 5.733 0 0 1-4.037 1.5 5.911 5.911 0 0 1-2.985-.773 4.34 4.34 0 0 1-1.933-2.233.637.637 0 0 0-.731.709 2.073 2.073 0 0 0 .751 1.353 7.567 7.567 0 0 1-4.209.945 9.065 9.065 0 0 1-6.345-2.159 7.741 7.741 0 0 1-2.373-6.034 7.432 7.432 0 0 1 2.512-6 8.99 8.99 0 0 1 5.949-1.911 16.468 16.468 0 0 1 2.405.172c.515.1.8.158.838.172a1.32 1.32 0 0 0 .065-.365q0-.558-.945-.751a12.742 12.742 0 0 0-2.47-.194 11.018 11.018 0 0 0-5.541 1.31 8.756 8.756 0 0 1-1.052-4.51 5.247 5.247 0 0 1 .386-2.3 20.719 20.719 0 0 1 3.93-1.256 22.369 22.369 0 0 1 5.025-.547q5.454 0 8.247 2.383a8.409 8.409 0 0 1 2.795 6.768v4.207Zm-11.544.81q-1.131 0-1.131 1.023 0 .97 1.32.969a1.8 1.8 0 0 0 1.346-.444 2.2 2.2 0 0 0 .431-1.549Z"/><path data-name="Path 7345" d="M93.065 28.013a7.449 7.449 0 0 0 .343 2.492 2.853 2.853 0 0 0 1.2 1.482 2.539 2.539 0 0 1 .022.408v.386a5.771 5.771 0 0 1-6.109 6.249 6.241 6.241 0 0 1-4.37-1.525 6.709 6.709 0 0 1-1.955-5.283 22.179 22.179 0 0 1 .139-2.652c.093-.765.158-1.314.194-1.642s.075-.637.119-.923a9.271 9.271 0 0 0 .065-1.267 2.392 2.392 0 0 0-.226-1.2.7.7 0 0 0-.622-.365 1.388 1.388 0 0 0-.7.172 19.321 19.321 0 0 1 .138 4.3c-.779 4.936.12 6.891.849 8.222a7.848 7.848 0 0 1-5.905 2.169 6.278 6.278 0 0 1-3.758-1.139 3.975 3.975 0 0 1-1.847-3.415V24.085a7.385 7.385 0 0 1-1.267-4.392 4.83 4.83 0 0 1 4.882-4.435 3.875 3.875 0 0 1 2.806 1.052q-.946.882-.945 1.46 0 .666.751.666a7.3 7.3 0 0 1 2.888-2.706 8.974 8.974 0 0 1 4.413-1.074 9.469 9.469 0 0 1 6.034 1.825q2.92 2.3 2.92 7.13Z"/><path data-name="Path 7346" d="M95.9 24.643h1.331q1.074 0 1.074-.709a1.165 1.165 0 0 0-.043-.258h-4.81a11.19 11.19 0 0 1-.473-3.361 13.332 13.332 0 0 1 .279-3.017q1.224-.773 3.372-2.363c.4-.974 1.684-4.761 1.8-5.033 0 0 4.293-2.147 8.124-.422v5.261h3.716a7.9 7.9 0 0 1 1.246 4.445 9.359 9.359 0 0 1-.322 2.383 6.492 6.492 0 0 1-.923 2.084h-3.074v3.672q0 2.749 2.3 2.749h.923a10.859 10.859 0 0 1 .451 2.835 5.632 5.632 0 0 1-1.857 4.542 8.114 8.114 0 0 1-5.39 1.579 7.886 7.886 0 0 1-5.626-1.965 7.562 7.562 0 0 1-2.094-5.788Z"/><path data-name="Path 7347" d="M132.635 35.881a4.232 4.232 0 0 1 2.6-3.9 11.025 11.025 0 0 0 .1-1.517 7.149 7.149 0 0 0-1.5-4.661 7.7 7.7 0 0 0-3.49-2.373 13.886 13.886 0 0 0-4.585-.741h-.515c-.258 0-.466.007-.622.022a.227.227 0 0 1-.022-.129v-.106a.672.672 0 0 1 .558-.666 8.42 8.42 0 0 1 1.589-.086 11.765 11.765 0 0 1 2.845.4 11.313 11.313 0 0 1 2.674 1 5.341 5.341 0 0 0 1.439-4.016 6.427 6.427 0 0 0-.408-2.6 15.345 15.345 0 0 0-3.92-1.482 20.746 20.746 0 0 0-4.929-.558c-3.58 0-8.48.845-10.528 2.534a7.436 7.436 0 0 0-2.771 6.014 6.508 6.508 0 0 0 3.092 5.755c1.819 1.2 6.333 1.8 9.367 1.8h.236a2.536 2.536 0 0 0 .365-.022 1.247 1.247 0 0 1 .065.43q0 .558-1.01.558a31.944 31.944 0 0 1-6.844-.719 10.226 10.226 0 0 1-3.425-1.707 3.516 3.516 0 0 0-1.159 1.407 4.729 4.729 0 0 0-.515 2.2 5.367 5.367 0 0 0 2.867 4.918c1.911 1.117 6.644 1.675 10.023 1.675a13.338 13.338 0 0 0 8.1-2.233c.145-.107.283-.219.417-.333a4.3 4.3 0 0 1-.094-.864Z"/><path data-name="Path 7348" d="M135.768 33.006a3.551 3.551 0 0 1 4.734 1.176c.785 1.473.694 3.879-1.054 4.854a4.181 4.181 0 0 1-5.345-1.446 3.549 3.549 0 0 1 1.665-4.584Z"/><path data-name="Path 7349" d="M35.712 13.353a14.006 14.006 0 0 1 4.493.678 2.88 2.88 0 0 0 1.98-2.844 2.779 2.779 0 0 0-.982-2.088 3.724 3.724 0 0 0-2.638-.91c-2.966 0-5.849 3.938-7.045 5.8a13.376 13.376 0 0 1 4.192-.636Z"/></g></svg>