<svg xmlns="http://www.w3.org/2000/svg" width="140.958" height="56.225"><defs><clipPath id="a"><path data-name="Rectangle 4454" fill="#e7ceb0" stroke="#707070" d="M0 0h140.958v56.225H0z"/></clipPath></defs><g fill="#e7ceb0" data-name="Mask Group 6060" clip-path="url(#a)"><path d="M86.026 39.523h-1.11a.048.048 0 0 0-.047.048v6.259a.047.047 0 0 0 .047.047h1.105a.047.047 0 0 0 .047-.047v-6.259a.048.048 0 0 0-.047-.048M56.286 42.7a2.138 2.138 0 0 1-2.111 2.208 2.139 2.139 0 0 1-2.112-2.208 2.139 2.139 0 0 1 2.112-2.208 2.138 2.138 0 0 1 2.111 2.208m-2.111-3.312a3.281 3.281 0 0 0-3.322 3.312 3.282 3.282 0 0 0 3.322 3.312 3.286 3.286 0 0 0 3.326-3.312 3.286 3.286 0 0 0-3.33-3.312M61.442 43.021h-1.589v-2.422h1.589c.848 0 1.418.461 1.418 1.149a1.279 1.279 0 0 1-1.418 1.273m.049-3.5h-2.8a.037.037 0 0 0-.037.037v6.281a.036.036 0 0 0 .037.035h1.128a.035.035 0 0 0 .036-.035v-1.751h1.454c1.661 0 2.733-.918 2.733-2.338a2.251 2.251 0 0 0-2.549-2.224M47.401 43.021h-1.589v-2.422h1.589c.848 0 1.418.461 1.418 1.149a1.279 1.279 0 0 1-1.418 1.273m.049-3.5h-2.8a.037.037 0 0 0-.037.037v6.281a.036.036 0 0 0 .037.035h1.128a.035.035 0 0 0 .036-.035v-1.751h1.454c1.66 0 2.733-.918 2.733-2.338a2.251 2.251 0 0 0-2.549-2.224M70.86 39.523h-1.119a.038.038 0 0 0-.037.037v3.449a1.708 1.708 0 0 1-1.678 1.909 1.7 1.7 0 0 1-1.658-1.909V39.56a.037.037 0 0 0-.036-.037h-1.119a.037.037 0 0 0-.036.037V43a2.727 2.727 0 0 0 2.849 3.022A2.735 2.735 0 0 0 70.895 43v-3.44a.037.037 0 0 0-.036-.037M76.31 44.831h-2.854V39.56a.036.036 0 0 0-.036-.037h-1.13a.037.037 0 0 0-.036.037v5.975a.342.342 0 0 0 .34.341H75.9a.248.248 0 0 0 .226-.151l.3-.719a.132.132 0 0 0 .009-.048.128.128 0 0 0-.127-.127M79.338 43.55l1.108-2.758 1.13 2.758Zm1.719-4.042a.036.036 0 0 0-.033-.021H79.89a.037.037 0 0 0-.033.021l-2.706 6.319a.04.04 0 0 0 0 .034.036.036 0 0 0 .03.016h1.189a.036.036 0 0 0 .033-.023l.5-1.239h3.107l.5 1.24a.038.038 0 0 0 .033.022h1.178a.034.034 0 0 0 .03-.016.034.034 0 0 0 0-.033ZM88.974 40.599h1.447c.795 0 1.37.455 1.37 1.082s-.576 1.08-1.37 1.08h-1.447Zm2.706 3.018.1-.05a2.047 2.047 0 0 0 1.187-1.885 2.223 2.223 0 0 0-2.5-2.158h-2.66a.037.037 0 0 0-.036.037v6.28a.036.036 0 0 0 .036.037h1.128a.036.036 0 0 0 .036-.037v-1.995h1.469l1.424 2.016a.037.037 0 0 0 .029.015h1.336a.036.036 0 0 0 .032-.02.037.037 0 0 0 0-.038ZM3.293 44.87h-1.72v-1.651h1.759c.713 0 1.138.292 1.138.782 0 .4-.308.869-1.177.869m-1.718-4.339h1.479c1.071 0 1.187.567 1.187.811 0 .548-.454.889-1.187.889H1.575Zm3.022 2.089-.106-.027.094-.045a1.492 1.492 0 0 0 .769-1.4c0-1.018-.791-1.625-2.116-1.625H.411a.036.036 0 0 0-.036.036v5.975a.342.342 0 0 0 .342.342h2.675c1.368 0 2.252-.668 2.252-1.7a1.493 1.493 0 0 0-1.047-1.554M19.697 45.841v-6.282a.036.036 0 0 0-.036-.036h-1.129a.036.036 0 0 0-.035.036v4.218l-3.6-4.241a.035.035 0 0 0-.027-.013h-.854a.036.036 0 0 0-.036.036v6.282a.036.036 0 0 0 .036.036h1.128a.036.036 0 0 0 .036-.036v-4.108l3.571 4.131a.033.033 0 0 0 .027.013h.885a.036.036 0 0 0 .036-.036M31.78 46.021a2.736 2.736 0 0 0 2.869-3.022v-3.44a.036.036 0 0 0-.036-.036h-1.118a.036.036 0 0 0-.036.036v3.449a1.709 1.709 0 0 1-1.679 1.91 1.7 1.7 0 0 1-1.658-1.91v-3.449a.036.036 0 0 0-.036-.036h-1.118a.036.036 0 0 0-.036.036v3.44a2.726 2.726 0 0 0 2.848 3.022M94.449 39.523a.036.036 0 0 0-.036.036v5.976a.343.343 0 0 0 .342.342h3.481a.248.248 0 0 0 .2-.1l.569-.761a.131.131 0 0 0 .025-.076.127.127 0 0 0-.127-.127h-3.288v-1.536h2.27a.036.036 0 0 0 .037-.036v-.993a.037.037 0 0 0-.037-.037h-2.27v-1.623h3.137a.036.036 0 0 0 .036-.036v-.993a.036.036 0 0 0-.036-.036ZM36.172 39.523a.036.036 0 0 0-.036.036v5.976a.343.343 0 0 0 .342.342h3.484a.25.25 0 0 0 .2-.1l.569-.761a.131.131 0 0 0 .025-.076.127.127 0 0 0-.127-.127H37.34v-1.536h2.271a.036.036 0 0 0 .037-.036v-.993a.037.037 0 0 0-.037-.037H37.34v-1.623h3.137a.036.036 0 0 0 .037-.036v-.993a.036.036 0 0 0-.037-.036ZM22.142 42.7a2.138 2.138 0 0 0 2.111 2.207 2.138 2.138 0 0 0 2.112-2.207 2.139 2.139 0 0 0-2.112-2.208 2.138 2.138 0 0 0-2.111 2.208m6 2.348a.11.11 0 0 1-.021.07l-.579.792a.25.25 0 0 1-.2.1h-3.116a3.337 3.337 0 0 1-2.341-.978 3.283 3.283 0 0 1-.955-2.334 3.281 3.281 0 0 1 3.321-3.312 3.286 3.286 0 0 1 3.331 3.312 3.226 3.226 0 0 1-.846 2.132l-.135.145 1.413-.056a.118.118 0 0 1 .127.127M10.778 43.563H8.551l1.1-2.744Zm-.517-4.02a.038.038 0 0 0-.033-.022H9.101a.038.038 0 0 0-.033.022l-2.69 6.284a.033.033 0 0 0 0 .033.036.036 0 0 0 .03.016H7.59a.036.036 0 0 0 .033-.022l.5-1.233h3.081l.5 1.233a.035.035 0 0 0 .033.022h1.171a.036.036 0 0 0 .03-.016.035.035 0 0 0 0-.033ZM54.246 28.875h2.631c1.3 0 2.111-.606 2.111-1.581 0-.435-.205-1.443-2.111-1.443h-2.631Zm5.151 3.149c0-.872-.757-1.392-2.025-1.392h-3.129v2.938h3.059c1.547 0 2.1-.833 2.1-1.546m2.087.308c0 1.84-1.573 3.03-4.006 3.03h-4.758a.61.61 0 0 1-.609-.61V24.123a.063.063 0 0 1 .063-.063h5.029c2.358 0 3.765 1.08 3.765 2.892a2.651 2.651 0 0 1-1.367 2.486l-.169.081.19.05a2.655 2.655 0 0 1 1.862 2.764M71.892 27.897c0-1.115-1.026-1.925-2.438-1.925h-2.573v3.847h2.573c1.412 0 2.438-.808 2.438-1.922m2.619 7.43a.064.064 0 0 1-.057.035h-2.376a.063.063 0 0 1-.051-.027l-2.534-3.586h-2.612v3.549a.064.064 0 0 1-.064.064h-2.008a.063.063 0 0 1-.063-.064V24.126a.065.065 0 0 1 .063-.066h4.732c2.662 0 4.452 1.543 4.452 3.838a3.641 3.641 0 0 1-2.114 3.354l-.185.09 2.812 3.919a.063.063 0 0 1 .005.067M85.728 33.694a.224.224 0 0 1-.045.135l-1.012 1.353a.442.442 0 0 1-.355.18h-6.2a.61.61 0 0 1-.609-.609V24.124a.065.065 0 0 1 .064-.064h7.656a.065.065 0 0 1 .064.064v1.767a.064.064 0 0 1-.064.064h-5.58v2.886h4.04a.064.064 0 0 1 .064.064v1.767a.064.064 0 0 1-.064.064h-4.04v2.732h5.852a.226.226 0 0 1 .226.226M96.895 29.661A3.7 3.7 0 0 0 93.002 26h-2.164v7.422h2.164a3.744 3.744 0 0 0 3.893-3.761m2.136 0a5.543 5.543 0 0 1-1.714 4.079 6.218 6.218 0 0 1-4.315 1.622h-3.651a.6.6 0 0 1-.6-.606V24.123a.064.064 0 0 1 .064-.063h4.188c3.494 0 6.029 2.356 6.029 5.6M115.544 9.916l-10.235 10.235a1.023 1.023 0 0 0-.3.719v5.853h6.042v-5.878a.3.3 0 0 1 .3-.3h3.294a.3.3 0 0 1 .3.3v5.878h5.852a.3.3 0 0 1 .3.3v3.294a.3.3 0 0 1-.3.3h-5.852v5.878a.3.3 0 0 1-.3.3h-3.294a.3.3 0 0 1-.3-.3v-5.878h-6.042v14.245a1.018 1.018 0 0 0 1.017 1.018h23.992a1.017 1.017 0 0 0 .719-.3l10.238-10.233V10.596a.679.679 0 0 0-.679-.679h-24.752Zm16.053 10.741a.254.254 0 0 1 .205-.1h4.146a.158.158 0 0 1 .127.252l-5.63 7.648a.25.25 0 0 0 0 .3l5.64 7.619a.254.254 0 0 1-.2.4h-3.952a.255.255 0 0 1-.2-.1l-3.691-4.986-3.687 4.978a.273.273 0 0 1-.219.11h-3.9a.274.274 0 0 1-.22-.436l5.609-7.574a.275.275 0 0 0 0-.325l-5.622-7.64a.158.158 0 0 1 .127-.252h4.135a.273.273 0 0 1 .22.11l3.556 4.833Z"/></g></svg>