<svg xmlns="http://www.w3.org/2000/svg" width="140.958" height="56.225"><defs><clipPath id="a"><path data-name="Rectangle 4457" fill="#e7ceb0" stroke="#707070" d="M0 0h140.958v56.225H0z"/></clipPath></defs><g fill="#e7ceb0" data-name="Mask Group 6062" clip-path="url(#a)"><path data-name="Path 7293" d="M42.291 48.457h-5.513v7.334h2.465v-3.112h3.4c1.61 0 2.519-.716 2.519-2.173s-1.135-2.049-2.871-2.049Zm-.146 3.451h-2.894v-2.673h2.835c.948 0 1.687.439 1.687 1.348s-.739 1.325-1.633 1.325Z"/><path data-name="Path 7294" d="M47.17 48.457h7.226v.778h-4.791v2.342h3.13v.77h-3.13v2.673h4.792v.778H47.17Z"/><path data-name="Path 7295" d="M78.04 48.457h7.227v.778h-4.792v2.342h3.128v.77h-3.128v2.673h4.792v.778H78.04Z"/><path data-name="Path 7296" d="M56.608 48.457h2.434v4.273c0 1.263.3 2.542 2.288 2.542 2.08 0 2.85-.894 2.85-2.542v-4.273h.808v4.345c0 1.41-.724 3.136-3.744 3.136-3 0-4.638-1-4.638-3.082.002-1.895.002-4.399.002-4.399Z"/><path data-name="Path 7297" d="m74.635 49.312.339-.586a5.839 5.839 0 0 0-2.658-.416c-2.1 0-5.323.955-5.323 3.813s2.766 3.813 5.262 3.813a8.107 8.107 0 0 0 3.436-.5v-3.52h-1.21v3.061a4.894 4.894 0 0 1-1.887.308 2.906 2.906 0 0 1-3.082-3.035c0-2.481 1.641-3.274 2.92-3.274a7.213 7.213 0 0 1 2.203.336Z"/><path data-name="Path 7298" d="M91.645 48.31c-2.6 0-4.946 1.194-4.946 3.813 0 2.434 2.226 3.813 4.946 3.813 2.974 0 4.653-1.687 4.653-3.96.001-1.878-1.594-3.666-4.653-3.666Zm.308 6.972c-1.664 0-2.7-1.294-2.7-3.159 0-1.849.871-3.159 2.827-3.159a2.909 2.909 0 0 1 2.874 3.043 3.094 3.094 0 0 1-3 3.275Z"/><path data-name="Path 7299" d="M97.585 48.457v.778h2.581v6.564h2.381v-6.564h2.6v-.778Z"/><path data-name="Path 7300" d="m105.205 42.448-7.789-3.136.593 2.666h-2.68a2.315 2.315 0 0 0-.9-2.689 4.037 4.037 0 0 0-3.066-.154c-.177-4.715-1.34-13.875-1.533-15.423a3.254 3.254 0 0 0 .585-1.017 13.351 13.351 0 0 0 1.574-7.034 7.736 7.736 0 0 0 2.273.978c.031 0 .046-.008.069-.008.277-.039.493-.077 1.656-2.7l.077-.169-.524-1.864-1.287.586-1.964-.798a2.068 2.068 0 0 1 .547-1.441 1.018 1.018 0 0 1 .932.031l.321 1.533 1.418-.716c.74.324.77.316.917.293.092-.015.347-.046.909-.909a3.533 3.533 0 0 0 .586-2.85c-.077-.277-.077-.285-2.75-1.641-.794-1.24-.847-1.31-.878-1.34a21.016 21.016 0 0 0-2.202-1.469c-.023-.046-.054-.1-.092-.169-.724-1.31-1.233-2.111-1.71-2.327-1.487-.693-6.595-.932-8.028-.377-1.718.67-6.541 5.655-7.1 6.649-.6 1.063-.778 4.846-.493 6.656a36.4 36.4 0 0 1-9.553.616c-3.528-.092-6.864-.177-9.923.94a9.375 9.375 0 0 0-3.336 2 8.368 8.368 0 0 1-2.011-3.76 3.7 3.7 0 0 1 3.213-4.353 10.8 10.8 0 0 1 5.454.647 13.107 13.107 0 0 0 5.963.77 4.611 4.611 0 0 0 4.16-4.692c-.116-1.679-1.479-3.644-4.946-3.644a10.7 10.7 0 0 0-4.868 1.544c-2.049 1.032-4.168 2.1-7.257 1.487v-.015a2.109 2.109 0 0 0-1.641-2.372 4.146 4.146 0 0 0-1.017-.116 10.6 10.6 0 0 0-1.31.108 9.715 9.715 0 0 1-1.225.1 3.123 3.123 0 0 1-1.217-.216l-1.2-.5.532 1.194c.062.139 1.672 3.944 4.484 3.944a2.555 2.555 0 0 0 2.234-1.14c3.528.747 5.94-.462 8.089-1.541a9.9 9.9 0 0 1 4.407-1.425c2.75 0 3.829 1.387 3.921 2.681a3.583 3.583 0 0 1-3.274 3.6 12.192 12.192 0 0 1-5.524-.732 11.683 11.683 0 0 0-5.947-.67 4.74 4.74 0 0 0-4.037 5.547 9.376 9.376 0 0 0 2.327 4.337c-1.618 2-2.088 4.53-2.519 6.857-.37 2.018-.724 3.921-1.78 5.223l-.116.139v.185c0 2.612.5 9.861.624 11.656h-2.529l-2.789-2h-5.266l3.441 2.469-3.441 2.467h5.27l2.789-2H98.01l-.593 2.673ZM50.545 4.999a1.458 1.458 0 0 1-1.572 1.233 2.715 2.715 0 0 1-.485-.046c-1.009-.185-1.941-1.356-2.535-2.319a3.826 3.826 0 0 0 .424.015 10.976 10.976 0 0 0 1.348-.108 11.035 11.035 0 0 1 1.186-.1 3.252 3.252 0 0 1 .763.085 1.1 1.1 0 0 1 .871 1.24Zm-8.79 38.978h-2.049l2.134-1.525-2.134-1.529h2.049l2.126 1.525Zm48.859-24.66a20.757 20.757 0 0 0-1.556-5.27c.655.393 1.325.763 1.841 1.048a11.746 11.746 0 0 1-.285 4.218Zm-4.561-4.961a45.409 45.409 0 0 1 .277-4.784 27.017 27.017 0 0 0 1.441 4.075c1.179 2.858 2.4 5.809 1.656 8.729-.108.416-.917 1.757-5.924 5.493.37-.948.67-1.78.878-2.488a31.3 31.3 0 0 0 1.672-11.029Zm-6.525-1.988a15.793 15.793 0 0 1 6.556-6.163 25.126 25.126 0 0 0-1.063 8.128 43.592 43.592 0 0 1-.493 6.618c-.663-3.302-2.52-6.974-5-8.587Zm12.172-8.2c.693.447 1.595 1.04 1.834 1.2.123.185.5.77.84 1.3l.077.123.123.062c.955.485 2 1.032 2.388 1.248a2.287 2.287 0 0 1 .023.324c-.532-.123-1.333-.277-1.51-.1-.154.162.686 1.425 1.025 1.549a3.33 3.33 0 0 1-.293.408l-.5-.216-1.348-.647a2.1 2.1 0 0 0-2.088-.031c-1.071.7-1.032 2.465-1.025 2.666l.015.331 2.75 1.125.855.385c-.285.632-.6 1.287-.794 1.626-.431-.185-1.279-.6-2.242-1.1l-.023-.008a35.212 35.212 0 0 1-3.436-2.018c-1.094-2.689-1.849-5.031-.5-6.9a31.359 31.359 0 0 1 3.336-1.163c.208-.08.37-.134.493-.173Zm-4.183-.039a5.329 5.329 0 0 1 .986-1.125 5.152 5.152 0 0 1 1.425.639c-.347.108-.693.223-1.017.331a13.4 13.4 0 0 0-1.364.447.855.855 0 0 1-.03-.3Zm-4.877-2.85c1.156-.447 6.009-.208 7.211.347a4.672 4.672 0 0 1 .917 1.317c-1.34-.824-2.25-1.117-2.72-.863A5.678 5.678 0 0 0 86.7 3.49a23.909 23.909 0 0 0-8.359 1.41 21.44 21.44 0 0 1 4.299-3.63Zm-6.656 6.363c2.612-2.835 8.752-3.1 10.524-3.128a3.112 3.112 0 0 0 .062.308c-3.521 1.6-6.818 4.553-8.12 7.4a17.591 17.591 0 0 1-2.758 1.1 15.405 15.405 0 0 1 .292-5.688ZM54.667 41.977a2.179 2.179 0 0 0-.354-2.088c-.8-1.032-2.342-.971-3.266-.817l.542-5.245a28.54 28.54 0 0 0 4.4-3.159l1.21 6.733 5.01 4.576h-7.542Zm12.735-.154h-3.837l-5.416-4.937-1.26-7.049a13.772 13.772 0 0 0 1.626-1.934 7.8 7.8 0 0 1 4.669.139 26.286 26.286 0 0 1-2.419 6.4l-.123.231 2.928 5.886.424-.146c.747-.254 2.473-.6 3.012-.085a1.532 1.532 0 0 1 .396 1.496Zm1.017.154a2.513 2.513 0 0 0-.709-2.4c-.909-.863-2.758-.5-3.621-.27l-2.3-4.622a25.818 25.818 0 0 0 2.388-6.371c.94.277 1.918.609 2.912.948a29.5 29.5 0 0 0 8.451 2l-1.574 10.715Zm11.456-.154h-4.854l1.918-12.98 1.156-2.989a.521.521 0 0 0-.971-.377l-1.194 3.1-.247 1.656c-2.6-.023-5.478-1-8.266-1.949-3.02-1.025-5.894-2-8.174-1.649a6.321 6.321 0 0 0 .5-1.495.514.514 0 0 0-1.009-.193c-.8 4.183-7.8 8.074-7.873 8.112l-.239.131-.763 7.265.747-.223c.6-.185 2.28-.485 2.889.3a1.182 1.182 0 0 1 .123 1.294h-5.229c-.131-1.864-.593-8.675-.616-11.317 1.132-1.487 1.495-3.459 1.88-5.539.655-3.536 1.333-7.188 5.894-8.844 2.881-1.04 6.117-.963 9.545-.878 4.507.116 9.168.231 13.775-2.08 2.812 1.741 4.892 6.749 4.892 10.223 0 .3-.131 1.572-1.78 5.478-1.194 2.442-5 10.539-5.038 10.624l-.532 1.14 1.179-.431a2.073 2.073 0 0 1 1.972.254 1.216 1.216 0 0 1 .314 1.368Zm1.032.154a2.229 2.229 0 0 0-.616-2.273 2.58 2.58 0 0 0-1.98-.686c.971-2.057 3.328-7.072 4.407-9.3.054-.039.123-.092.216-.154.177-.131.354-.262.532-.385.655 1.641 3.39 8.343 3.729 9.175.3.786 1.3 2.65 1.841 3.621h-8.129Zm13.39-.154h-4.176c-.424-.77-1.656-3-1.972-3.844-1.441-3.528-3.582-8.79-3.829-9.437a45.379 45.379 0 0 0 4.6-3.821c.37 2.974 1.364 11.271 1.433 15.108l.015.716.678-.247c.663-.239 2.211-.586 2.789-.177a1.355 1.355 0 0 1 .461 1.703Zm4.422-.978 3.975 1.6-3.975 1.6.354-1.6Z"/><path data-name="Path 7301" d="M92.832 6.547a2.362 2.362 0 0 0-.385-.871c-.4-.37-2.257.416-2.219.6a13.349 13.349 0 0 0 2.604.271Z"/></g></svg>