<svg xmlns="http://www.w3.org/2000/svg" width="140.6" height="55.938"><defs><clipPath id="a"><path data-name="Rectangle 4462" fill="#e7ceb0" stroke="#707070" d="M0 0h140.6v55.938H0z"/></clipPath></defs><g fill="#e7ceb0" data-name="Mask Group 6072" clip-path="url(#a)"><g data-name="Group 6406"><path data-name="Path 7357" d="M46.872 23.197a4.482 4.482 0 0 1 2.4-.666 5.2 5.2 0 0 1 1.036.111 3.266 3.266 0 0 1 1.036.407 4.15 4.15 0 0 1 .943.8 4.218 4.218 0 0 1 .74 1.276 4.677 4.677 0 0 1 1.7-1.924 4.794 4.794 0 0 1 2.571-.666 4.268 4.268 0 0 1 3.478 1.387 5.487 5.487 0 0 1 1.165 3.644v7.473h-1.776v-6.752a5.9 5.9 0 0 0-.721-3.108 2.643 2.643 0 0 0-2.442-1.165 3 3 0 0 0-2.7 1.424 4.56 4.56 0 0 0-.592 1.443 7.068 7.068 0 0 0-.185 1.665v6.493h-1.769v-7.122a8.6 8.6 0 0 0-.129-1.609 3.394 3.394 0 0 0-.462-1.239 2.193 2.193 0 0 0-.906-.777 3.375 3.375 0 0 0-1.461-.277 2.845 2.845 0 0 0-1.258.3 3.206 3.206 0 0 0-1.147.869 4.523 4.523 0 0 0-.814 1.48 6.609 6.609 0 0 0-.314 2.127v6.252h-1.778v-9.508c0-.333 0-.758-.018-1.276s-.037-1-.074-1.406h1.7c.037.333.055.7.074 1.091.019.407.019.721.019 1h.059a4.321 4.321 0 0 1 1.625-1.747Z"/><path data-name="Path 7358" d="M76.043 28.95a6.744 6.744 0 0 1-.481 2.553 6.116 6.116 0 0 1-1.35 2.035 6.294 6.294 0 0 1-2.053 1.35 7.133 7.133 0 0 1-2.627.481 7.035 7.035 0 0 1-2.608-.481 6.012 6.012 0 0 1-2.053-1.35 6.411 6.411 0 0 1-1.35-2.035 7.015 7.015 0 0 1 0-5.105 6.116 6.116 0 0 1 1.35-2.035 6.294 6.294 0 0 1 2.053-1.35 7.363 7.363 0 0 1 5.235 0 6.012 6.012 0 0 1 2.053 1.35 6.347 6.347 0 0 1 1.831 4.587Zm-1.868 0a5.535 5.535 0 0 0-.333-1.924 4.774 4.774 0 0 0-.925-1.572 4.421 4.421 0 0 0-1.461-1.054 4.643 4.643 0 0 0-1.924-.388 4.582 4.582 0 0 0-1.924.388 4.165 4.165 0 0 0-1.443 1.054 4.907 4.907 0 0 0-.925 1.572 5.46 5.46 0 0 0-.333 1.924 5.535 5.535 0 0 0 .333 1.924 4.774 4.774 0 0 0 .925 1.572 4.227 4.227 0 0 0 1.443 1.036 4.522 4.522 0 0 0 1.924.37 4.886 4.886 0 0 0 1.924-.37 4.372 4.372 0 0 0 1.461-1.036 4.593 4.593 0 0 0 .925-1.572 5.611 5.611 0 0 0 .333-1.924Z"/><path data-name="Path 7359" d="M89.879 28.95a6.745 6.745 0 0 1-.481 2.553 6.117 6.117 0 0 1-1.35 2.035 6.294 6.294 0 0 1-2.053 1.35 7.133 7.133 0 0 1-2.627.481 7.035 7.035 0 0 1-2.608-.481 6.013 6.013 0 0 1-2.053-1.35 6.412 6.412 0 0 1-1.35-2.035 7.015 7.015 0 0 1 0-5.105 6.117 6.117 0 0 1 1.35-2.035 6.294 6.294 0 0 1 2.053-1.35 7.363 7.363 0 0 1 5.235 0 6.012 6.012 0 0 1 2.053 1.35 6.347 6.347 0 0 1 1.831 4.587Zm-1.868 0a5.534 5.534 0 0 0-.333-1.924 4.774 4.774 0 0 0-.925-1.572 4.421 4.421 0 0 0-1.461-1.054 4.958 4.958 0 0 0-3.848 0 4.165 4.165 0 0 0-1.443 1.054 4.593 4.593 0 0 0-.925 1.572 5.46 5.46 0 0 0-.333 1.924 5.535 5.535 0 0 0 .333 1.924 4.774 4.774 0 0 0 .925 1.572 4.227 4.227 0 0 0 1.443 1.036 4.522 4.522 0 0 0 1.924.37 4.887 4.887 0 0 0 1.924-.37 4.373 4.373 0 0 0 1.461-1.036 4.592 4.592 0 0 0 .925-1.572 5.611 5.611 0 0 0 .333-1.924Z"/><path data-name="Path 7360" d="M96.094 35.055h-1.961l-4.976-12.19h1.979l3.958 10.322h.055l4-10.322h1.905Z"/><path data-name="Path 7361" d="M101.036 28.747a6.7 6.7 0 0 1 .536-2.7 6.136 6.136 0 0 1 1.443-2.072 6.451 6.451 0 0 1 2.164-1.332 7.9 7.9 0 0 1 5.327 0 6.451 6.451 0 0 1 2.164 1.332 6.136 6.136 0 0 1 1.443 2.072 6.7 6.7 0 0 1 .536 2.7 6.858 6.858 0 0 1-.536 2.719 6.213 6.213 0 0 1-1.443 2.09 6.849 6.849 0 0 1-2.164 1.369 7.353 7.353 0 0 1-5.327 0 6.538 6.538 0 0 1-2.164-1.369 6.212 6.212 0 0 1-1.443-2.09 6.923 6.923 0 0 1-.536-2.719Zm3.182 0a5 5 0 0 0 .222 1.461 3.908 3.908 0 0 0 .666 1.295 3.313 3.313 0 0 0 1.128.943 3.389 3.389 0 0 0 1.609.37 3.337 3.337 0 0 0 1.609-.37 3.5 3.5 0 0 0 1.128-.943 4.1 4.1 0 0 0 .666-1.295 5 5 0 0 0 .222-1.461 4.883 4.883 0 0 0-.222-1.443 4.1 4.1 0 0 0-.666-1.295 3.265 3.265 0 0 0-1.128-.925 3.387 3.387 0 0 0-1.609-.351 3.336 3.336 0 0 0-1.609.351 3.445 3.445 0 0 0-1.128.925 4.1 4.1 0 0 0-.666 1.295 4.7 4.7 0 0 0-.225 1.443Z"/><path data-name="Path 7362" d="M115.573 22.532h2.978v2.016h.055a3.911 3.911 0 0 1 1.443-1.646 4.138 4.138 0 0 1 2.442-.721 4.783 4.783 0 0 1 2.09.425 4.331 4.331 0 0 1 1.424 1.128 4.41 4.41 0 0 1 .814 1.609 7.112 7.112 0 0 1 .259 1.868v7.824h-3.126v-6.937a8.313 8.313 0 0 0-.074-1.147 3.174 3.174 0 0 0-.333-1.073 2.031 2.031 0 0 0-1.924-1.11 2.578 2.578 0 0 0-1.295.3 2.849 2.849 0 0 0-.906.777 3.435 3.435 0 0 0-.536 1.073 4.026 4.026 0 0 0-.185 1.239v6.881h-3.126Z"/><path data-name="Path 7363" d="M140.6 28.95v.425c0 .129-.019.277-.019.425h-9.508a3.081 3.081 0 0 0 1.147 2.2 3.99 3.99 0 0 0 1.128.647 3.911 3.911 0 0 0 1.295.24 4.288 4.288 0 0 0 1.979-.425 3.9 3.9 0 0 0 1.332-1.184l2.09 1.665a6.264 6.264 0 0 1-5.364 2.5 7.358 7.358 0 0 1-2.682-.462 6.382 6.382 0 0 1-2.127-1.295 5.8 5.8 0 0 1-1.406-2.053 7.178 7.178 0 0 1-.5-2.756 7.38 7.38 0 0 1 .5-2.756 5.985 5.985 0 0 1 1.387-2.109 6.355 6.355 0 0 1 2.09-1.35 7.205 7.205 0 0 1 2.627-.481 6.772 6.772 0 0 1 2.4.425 5.645 5.645 0 0 1 1.924 1.276 5.575 5.575 0 0 1 1.258 2.109 8.9 8.9 0 0 1 .449 2.959Zm-3.126-1.406a3.908 3.908 0 0 0-.166-1.147 2.586 2.586 0 0 0-.536-.962 2.642 2.642 0 0 0-.925-.666 3.2 3.2 0 0 0-1.313-.24 3.463 3.463 0 0 0-2.386.851 3.069 3.069 0 0 0-1.073 2.183h6.4Z"/></g><path data-name="Path 7364" d="M17.573 10.397A17.573 17.573 0 1 0 35.145 27.97a17.565 17.565 0 0 0-17.572-17.573ZM10.1 35.09h-.277c-1.554 0-3.829 0-3.866-.037L12.43 21.29a2.875 2.875 0 0 1 2.812-2.072 2.83 2.83 0 0 1 2.812 2.719 4.236 4.236 0 0 1-.333 1.406l-4.384 9.267a3.506 3.506 0 0 1-3.237 2.48Zm8.083-.037h-.277c-1.554 0-3.829 0-3.866-.037l6.474-13.762a2.875 2.875 0 0 1 2.812-2.072 2.83 2.83 0 0 1 2.812 2.719 4.236 4.236 0 0 1-.333 1.406l-4.4 9.23c-.651 1.537-1.668 2.518-3.222 2.518Zm9.156-3.774c0 2.534-1.665 3.884-3.163 3.884h-2.145l3.5-7.325c.018-.037.018-.074.037-.092l1.776-3.737Z"/></g></svg>