<svg xmlns="http://www.w3.org/2000/svg" width="140.958" height="55.433"><defs><clipPath id="a"><path data-name="Rectangle 4461" fill="#e7ceb0" stroke="#707070" d="M0 0h140.958v55.433H0z"/></clipPath></defs><g fill="#e7ceb0" data-name="Mask Group 6063" clip-path="url(#a)"><path data-name="Path 7302" d="M131.08 48.63c0 2.638 1.549 3.991 3.434 3.991s3.427-1.353 3.427-3.991c0-2.569-1.543-3.922-3.427-3.922s-3.434 1.348-3.434 3.922Zm8.279 3.788h1.615v1.353h-3.033v-1.493a4.227 4.227 0 0 1-3.562 1.691c-2.9 0-4.78-2.3-4.78-5.344s1.884-5.343 4.78-5.343a4.125 4.125 0 0 1 3.5 1.691v-4.192h-1.616V39.43h3.1Z"/><path data-name="Path 7303" d="M124.885 52.414h1.616v1.355h-4.779v-1.355h1.615v-7.575h-1.615v-1.285h3.028v1.42a3.323 3.323 0 0 1 4.106-1.42v1.488c-2.422-.676-3.971.609-3.971 2.976Z"/><g data-name="Group 6401"><g data-name="Group 6400"><path data-name="Path 7304" d="M81.545 17.514a14.5 14.5 0 0 0-4.51 2.773 8.476 8.476 0 0 0-.536-2.435 10.968 10.968 0 0 1 3.431-3.449 16.776 16.776 0 0 1 5.922-2.435 14.841 14.841 0 0 1 1.347 4.463 13.979 13.979 0 0 0-5.654 1.083Z"/><path data-name="Path 7305" d="M79.594 11.909a15.549 15.549 0 0 0-3.563 5.14 6.064 6.064 0 0 0-1.884-2.03 23.985 23.985 0 0 1 2.557-5.27 18.907 18.907 0 0 1 4.1-4.13 17.031 17.031 0 0 1 3.3 3.314 18.866 18.866 0 0 0-4.51 2.976Z"/><path data-name="Path 7306" d="M75.02 8.722a24.066 24.066 0 0 0-1.477 5.951 7.715 7.715 0 0 0-2.695-.811 28.317 28.317 0 0 1 .61-5.952 39.935 39.935 0 0 1 1.543-5.613 14.37 14.37 0 0 1 4.442 1.217s-1.615 3.11-2.422 5.208Z"/></g><path data-name="Path 7307" d="M79.319 27.805a13.836 13.836 0 0 0-6.6-1.218 6.88 6.88 0 0 0 2.961-2.164 20.818 20.818 0 0 1 5.116.068 13.083 13.083 0 0 1 4.917 1.891 15.375 15.375 0 0 1-2.624 3.923 14.491 14.491 0 0 0-3.77-2.5Z"/><path data-name="Path 7308" d="M81.82 22.857a15.261 15.261 0 0 0-5.587.745 6.437 6.437 0 0 0 .745-2.5 17.711 17.711 0 0 1 5.111-1.827 12.389 12.389 0 0 1 5.317.2 17.747 17.747 0 0 1-.74 4.6 13.5 13.5 0 0 0-4.846-1.218Z"/></g><g data-name="Group 6402"><path data-name="Path 7309" d="M59.47 17.512a14.5 14.5 0 0 1 4.51 2.773 8.475 8.475 0 0 1 .538-2.435 10.968 10.968 0 0 0-3.433-3.453 16.776 16.776 0 0 0-5.922-2.434 14.841 14.841 0 0 0-1.346 4.467 13.979 13.979 0 0 1 5.654 1.082Z"/><path data-name="Path 7310" d="M61.418 11.908a15.549 15.549 0 0 1 3.563 5.14 6.064 6.064 0 0 1 1.884-2.03 23.984 23.984 0 0 0-2.555-5.271 18.906 18.906 0 0 0-4.1-4.125 17.031 17.031 0 0 0-3.3 3.314 18.866 18.866 0 0 1 4.51 2.976Z"/><path data-name="Path 7311" d="M65.995 8.72a24.067 24.067 0 0 1 1.48 5.951 7.715 7.715 0 0 1 2.692-.811 28.318 28.318 0 0 0-.61-5.952 39.937 39.937 0 0 0-1.543-5.612 14.37 14.37 0 0 0-4.441 1.218s1.614 3.106 2.422 5.206Z"/></g><path data-name="Path 7312" d="M61.696 27.802a13.836 13.836 0 0 1 6.6-1.218 6.88 6.88 0 0 1-2.966-2.165 20.818 20.818 0 0 0-5.116.068 13.083 13.083 0 0 0-4.912 1.893 15.375 15.375 0 0 0 2.624 3.923 14.491 14.491 0 0 1 3.769-2.5Z"/><path data-name="Path 7313" d="M59.195 22.856a15.261 15.261 0 0 1 5.587.744 6.438 6.438 0 0 1-.745-2.5 17.711 17.711 0 0 0-5.112-1.826 12.389 12.389 0 0 0-5.317.2 17.746 17.746 0 0 0 .74 4.6 13.5 13.5 0 0 1 4.846-1.218Z"/><g data-name="Group 6403"><path data-name="Path 7314" d="M70.5 30.371a8.031 8.031 0 0 1 6.873 4.12 17.276 17.276 0 0 0 4.1-2.57 14.325 14.325 0 0 0-21.872 0 16.132 16.132 0 0 0 4.107 2.57 7.968 7.968 0 0 1 6.792-4.125Z"/><path data-name="Path 7315" d="M3.74 40.92v6.087h2.49c2.693 0 3.9-1.082 3.9-3.044s-1.144-3.044-3.9-3.044Zm0 11.43h1.75v1.42H.374v-1.42h1.75v-11.5H.374V39.5h5.855c3.231 0 5.452 1.42 5.452 4.464s-2.221 4.463-5.452 4.463H3.74Z"/><path data-name="Path 7316" d="M21.103 48.086a3.365 3.365 0 1 0-6.73 0Zm1.212 2.773a4.4 4.4 0 0 1-4.577 3.111c-3.029 0-4.913-1.894-4.913-5.344 0-3.245 1.951-5.343 4.913-5.343 3.23 0 5.25 2.5 4.846 6.155h-8.211a3.3 3.3 0 0 0 3.366 3.179 3.021 3.021 0 0 0 2.961-1.758Z"/><path d="M27.834 52.414h1.616v1.355h-4.779v-1.355h1.615v-7.575h-1.615v-1.285h3.028v1.42a3.323 3.323 0 0 1 4.106-1.42v1.488c-2.422-.676-3.971.609-3.971 2.976Z"/><path data-name="Path 7317" d="M43.645 52.414h1.615v1.35h-4.711v-1.35h1.616v-4.328c0-2.367-1.414-3.382-3.029-3.382-1.548 0-2.894 1.082-2.894 3.517v4.193h1.615v1.35h-4.712v-1.35h1.615v-7.575h-1.615v-1.285h3.029v1.42a3.917 3.917 0 0 1 3.3-1.623c2.222 0 4.173 1.285 4.173 4.734Z"/><path data-name="Path 7318" d="M51.599 52.618c2.019 0 3.433-1.42 3.433-3.991s-1.414-3.922-3.433-3.922c-1.951 0-3.432 1.353-3.432 3.922s1.48 3.991 3.432 3.991Zm0-9.334c3.164 0 4.981 2.3 4.981 5.343 0 3.111-1.817 5.344-4.981 5.344-3.1 0-4.913-2.232-4.913-5.344-.001-3.041 1.817-5.341 4.913-5.341Z"/><path d="M59.868 48.631c0 2.638 1.549 3.991 3.434 3.991s3.427-1.353 3.427-3.991c0-2.569-1.543-3.922-3.427-3.922s-3.434 1.348-3.434 3.922Zm8.279 3.788h1.615v1.353h-3.033v-1.493a4.227 4.227 0 0 1-3.562 1.691c-2.9 0-4.78-2.3-4.78-5.344s1.884-5.343 4.78-5.343a4.125 4.125 0 0 1 3.5 1.691v-4.192h-1.616v-1.351h3.1Z"/><path data-name="Path 7319" d="M79.925 40.92v5.275h3.293c2.153 0 3.033-1.015 3.033-2.638 0-1.555-.879-2.637-3.033-2.637Zm-3.365-1.491h6.658c2.692 0 4.648 1.488 4.648 4.125a3.929 3.929 0 0 1-3.5 4.058l2.288 4.734h1.884v1.42h-2.964l-2.961-6.087h-2.692v4.667h1.543v1.42h-4.908v-1.42h1.75v-11.5h-1.75Z"/><path data-name="Path 7320" d="M91.834 41.388h1.686v-1.957h-1.687Zm1.686 11.024h1.615v1.353h-4.782v-1.353h1.615v-7.575h-1.615v-1.286h3.167Z"/><path data-name="Path 7321" d="M106.381 50.046a4.689 4.689 0 0 1-4.917 3.923c-3.1 0-4.917-2.232-4.917-5.344 0-3.043 1.821-5.343 4.917-5.343a4.178 4.178 0 0 1 3.436 1.691v-1.42h1.409v3.72h-1.615a3.277 3.277 0 0 0-3.23-2.57c-1.956 0-3.436 1.353-3.436 3.922s1.48 3.991 3.436 3.991a3.414 3.414 0 0 0 3.365-2.57Z"/><path data-name="Path 7322" d="M109.747 48.626c0 2.638 1.48 3.991 3.365 3.991s3.427-1.353 3.427-3.991c0-2.569-1.543-3.922-3.427-3.922s-3.365 1.352-3.365 3.922Zm6.729-5.072h3.1v1.285h-1.617v7.575h1.615v1.353h-3.1v-1.488a4.045 4.045 0 0 1-3.5 1.691c-2.9 0-4.782-2.3-4.782-5.344s1.884-5.343 4.782-5.343a4.045 4.045 0 0 1 3.5 1.691Z"/></g></g></svg>