<svg xmlns="http://www.w3.org/2000/svg" width="140.958" height="55.433"><defs><clipPath id="a"><path data-name="Rectangle 4460" fill="#e7ceb0" stroke="#707070" d="M0 0h140.958v55.433H0z"/></clipPath></defs><g data-name="Mask Group 6064" clip-path="url(#a)"><path d="m98.605 17.313 5.556 10.83-4.412 8.939-5.8-19.769H74.428l-5.214 19.769-4.529-6.5c2.436-1.107 3.4-2.919 3.4-5.737 0-4.288-1.953-7.549-8.093-7.549H40.467v21.678h10.77v-6.3h3.7l4.127 6.3h20.417l.886-3.342h8.234l.986 3.342h21.44l4.107-8.294 4.288 8.294h12.2l-5.556-10.83 5.294-10.83h-12.201l-4.127 8.293-4.228-8.294Zm-60.156 9.18v-9.18h-27.62v9.18h8.334v12.481h10.77V26.493Zm17.756-2.7c.906 0 1.067.684 1.067 1.188a1.043 1.043 0 0 1-1.063 1.186h-4.952v-2.352h4.972c-.02.021-.02-.02-.02-.02Zm30.358 5.013h-4.405l2.073-7.891 2.335 7.891Z" fill="#e7ceb0"/></g></svg>