<svg xmlns="http://www.w3.org/2000/svg" width="140.958" height="55.433"><defs><clipPath id="a"><path data-name="Rectangle 4476" fill="#e7ceb0" stroke="#707070" d="M0 0h140.958v55.433H0z"/></clipPath></defs><g data-name="Mask Group 6076" clip-path="url(#a)"><g data-name="logo Badakan_pour fond noir"><g data-name="Group 6407"><path data-name="Subtraction 2" d="M12.543 40.133a12.018 12.018 0 0 1-8.567-3.55 11.426 11.426 0 0 1-3.018-4.672 15.916 15.916 0 0 1-.549-5.06L.376 15.637H1.718l2.779-.013v9.217h.022v2.412c-.022 2.338.133 4.166 2.353 6.4a7.934 7.934 0 0 0 5.649 2.333 8.086 8.086 0 0 0 5.749-13.775 7.638 7.638 0 0 0-5.4-2.44h-.028c-.458 0-2.427 0-4.153.014v-4.173l3.308-.012h.896a11.656 11.656 0 0 1 8.336 3.695 12.021 12.021 0 0 1 3.558 8.605 12.241 12.241 0 0 1-12.244 12.23Zm.134-7.99a4.089 4.089 0 0 1-2.921-1.213c-.712-.717-1.18-1.33-1.19-3.32l-.009-3.648h.019c.255 0 3.645-.008 4.187-.013a3.8 3.8 0 0 1 2.857 1.172 4.075 4.075 0 0 1 1.221 2.88 4.187 4.187 0 0 1-4.165 4.142Z" fill="#e7ceb0"/></g><g data-name="Group 6408" fill="#e7ceb0"><path data-name="Path 7374" d="M42.097 33.018h-6.049c-.126 0-.144-.015-.144-.223V22.326c0-.126.047-.161.191-.161h5.6c1.969 0 3.154 1.056 3.154 2.85a2.4 2.4 0 0 1-1.922 2.4 2.588 2.588 0 0 1 2.228 2.661 2.8 2.8 0 0 1-3.058 2.942Zm-1.183-8.61h-2.145v2.049h2.145a.936.936 0 0 0 1.024-1.024.921.921 0 0 0-1.023-1.025Zm.159 4.016h-2.3v2.352h2.3a1.045 1.045 0 0 0 1.106-1.168 1.11 1.11 0 0 0-1.106-1.184Z"/><path data-name="Path 7375" d="M61.697 33.018h-3a.179.179 0 0 1-.193-.126c-.193-.433-.431-1.024-.594-1.425h-3.872c-.193.448-.4.992-.559 1.376-.047.126-.081.176-.289.176h-2.657c-.126 0-.144-.064-.079-.223 1.665-3.538 4.194-8.644 5.443-10.982.017-.032.1-.032.193-.032s.176-.017.191.032c1.457 2.85 3.714 7.444 5.475 10.982.098.204.081.222-.059.222Zm-5.762-6.064-1.089 2.432h2.226Z"/><path data-name="Path 7376" d="M71.991 33.018h-4.08c-.114 0-.129-.015-.129-.144V22.326c0-.126.015-.161.129-.161h4.451c3.073 0 4.914 1.9 4.914 5.426-.004 3.475-2.117 5.427-5.285 5.427Zm.111-8.58h-1.5v6.274h1.472c1.6 0 2.209-1.3 2.209-3.169-.002-1.744-.792-3.105-2.181-3.105Z"/><path data-name="Path 7377" d="M93.511 33.018h-2.994a.18.18 0 0 1-.193-.126 43.517 43.517 0 0 1-.591-1.425h-3.874c-.193.448-.4.992-.559 1.376-.047.126-.079.176-.287.176h-2.657c-.129 0-.146-.064-.081-.223 1.665-3.538 4.194-8.644 5.443-10.982.015-.032.1-.032.193-.032s.178-.017.193.032c1.455 2.85 3.714 7.444 5.473 10.982.093.204.076.222-.066.222Zm-5.764-6.064-1.086 2.432h2.224Z"/><path data-name="Path 7378" d="M108.897 33.018h-2.9c-.126 0-.111-.032-.208-.193-.5-.96-2-3.778-2-3.778l-1.314 1.858v1.971c0 .129-.015.144-.144.144h-2.593c-.144 0-.144.015-.144-.144V22.311c0-.161 0-.144.144-.144h2.593c.129 0 .144.015.144.144v4.8s2.224-3.394 3.1-4.851a.207.207 0 0 1 .193-.1h2.9c.161 0 .193.047.1.193-1.071 1.455-3.184 4.4-3.184 4.4s2.4 4.273 3.426 6.034c.095.199.031.231-.113.231Z"/><path data-name="Path 7379" d="M125.723 33.018h-2.994a.179.179 0 0 1-.193-.126c-.193-.433-.431-1.024-.594-1.425h-3.872c-.193.448-.4.992-.559 1.376-.047.126-.081.176-.289.176h-2.657c-.126 0-.144-.064-.079-.223 1.665-3.538 4.194-8.644 5.443-10.982.017-.032.1-.032.193-.032s.176-.017.191.032c1.457 2.85 3.714 7.444 5.475 10.982.095.204.078.222-.065.222Zm-5.762-6.064-1.089 2.432h2.226Z"/><path data-name="Path 7380" d="M140.885 33.308c-.032.015-.081 0-.144-.047-2.417-1.809-6.195-5.282-6.195-5.282v4.9c0 .144 0 .144-.144.144h-2.417a.161.161 0 0 1-.161-.161c-.079-4.082-.062-6.626 0-10.853 0-.081.017-.111.049-.129s.081-.015.126.017c2.289 1.633 6.212 5.267 6.212 5.267v-4.8c0-.178 0-.193.126-.193h2.434c.159 0 .159.032.159.193.064 3.122.049 7.412 0 10.74-.001.107-.001.187-.045.204Z"/></g></g></g></svg>