<svg xmlns="http://www.w3.org/2000/svg" viewBox="0 0 145 145" style="enable-background:new 0 0 145 145" xml:space="preserve"><ellipse cx="72.5" cy="72.5" rx="52.3" ry="37.2" style="fill:#f4e07f"/><path d="M72.5 110.5c-14.1 0-27.5-3.9-37.5-11-10.1-7.2-15.7-16.8-15.7-27s5.6-19.8 15.7-27c10-7.1 23.3-11 37.5-11 14.1 0 27.5 3.9 37.5 11 10.1 7.2 15.7 16.8 15.7 27s-5.6 19.8-15.7 27c-10 7.1-23.3 11-37.5 11zm0-74.4C44.1 36.1 21 52.4 21 72.5s23.1 36.4 51.6 36.4 51.6-16.3 51.6-36.4-23.3-36.4-51.7-36.4z"/><path d="M72.3 95.2c-9.4 0-18.2-2.3-24.9-6.4-6.9-4.3-10.6-10-10.6-16.1s3.8-11.9 10.6-16.1c6.7-4.1 15.5-6.4 24.9-6.4 9.4 0 18.2 2.3 24.9 6.4 6.9 4.3 10.6 10 10.6 16.1S104 84.5 97.2 88.8c-6.7 4.1-15.6 6.4-24.9 6.4zm0-42.5c-8.9 0-17.3 2.1-23.6 6-6.1 3.8-9.4 8.7-9.4 14s3.4 10.2 9.4 14c6.3 3.9 14.7 6 23.6 6s17.3-2.1 23.6-6c6.1-3.8 9.4-8.7 9.4-14s-3.4-10.2-9.4-14c-6.3-3.9-14.7-6-23.6-6z"/><path d="M72.3 95.2c-9.4 0-18.2-2.3-24.9-6.4-6.9-4.3-10.6-10-10.6-16.1s3.8-11.9 10.6-16.1c6.7-4.1 15.5-6.4 24.9-6.4 9.4 0 18.2 2.3 24.9 6.4 6.9 4.3 10.6 10 10.6 16.1S104 84.5 97.2 88.8c-6.7 4.1-15.6 6.4-24.9 6.4zm0-42.5c-8.9 0-17.3 2.1-23.6 6-6.1 3.8-9.4 8.7-9.4 14s3.4 10.2 9.4 14c6.3 3.9 14.7 6 23.6 6s17.3-2.1 23.6-6c6.1-3.8 9.4-8.7 9.4-14s-3.4-10.2-9.4-14c-6.3-3.9-14.7-6-23.6-6zM49.3 51.8 46.4 48l1 4.7-2.5 1.1-4.8-6.3 2.3-1.1L45 50l-1-4.3 2.2-1 2.7 3.6-1.1-4.3 2.2-1 1.6 7.8-2.3 1zM52.1 42.5l6.5-1.6.5 1.8-4.1 1 .3 1 3.5-.9.4 1.7-3.5.9.3 1.1 4.1-1 .5 1.8L54 50l-1.9-7.5zM68.1 41.7l.4 5.7-2.5.2-.4-5.7-2.5.2-.2-2 7.5-.6.2 2-2.5.2zM77.2 47.5l.2-2.9-2.7-.1-.2 2.9-2.5-.2.4-7.7 2.5.1-.1 2.8 2.7.1.1-2.8 2.5.1-.4 7.7h-2.5zM81.2 47.9l1.2-7.6 2.4.4-1.2 7.6-2.4-.4zM90.5 50l-2.1-4.5-1 3.6-2.2-.6 2.1-7.4 2.1.6 2.1 4.5 1-3.7 2.2.6-2.1 7.4-2.1-.5zM101.9 46.3l2.8 1.3-3.9 1.7.6 5.3-2.6-1.3-.2-3.2-1.7.4-.8 1.5-2.2-1 3.4-6.9 2.2 1.1-1.4 3 3.8-1.9zM100.1 99.7l-6.2 2.5-.7-1.7 3.9-1.5-.4-1-3.3 1.3-.7-1.6 3.3-1.3-.4-1.1-4 1.6L91 95l6.3-2.5 2.8 7.2zM91.1 103l-2.4.6-1.3-5.6-3.9.9-.4-1.9 6.3-1.4 1.7 7.4zM76.6 97.6l.4 1.1 2.7-.2.2-1.1 2.5-.2-2.1 7.9-2.9.3-3.4-7.6 2.6-.2zm2.8 2.5-1.7.1 1 2.7.7-2.8zM66.8 104.7c-.6-.4-.9-1-.9-1.8v-.1l2.3.1c0 .2.1.4.2.6.2.2.4.2.7.3.3 0 .6 0 .8-.1.2-.1.3-.2.3-.3 0-.2-.1-.4-.3-.5-.2-.1-.6-.2-1.1-.4-.6-.2-1.1-.3-1.5-.5-.4-.2-.7-.4-1-.7-.3-.3-.4-.8-.4-1.3 0-.9.4-1.6 1-2 .6-.4 1.5-.6 2.5-.6 1.2.1 2.1.3 2.8.7.7.4 1 1.2.9 2.2l-2.3-.1c0-.4-.1-.7-.3-.8-.2-.1-.5-.2-.9-.2-.3 0-.6 0-.8.1-.2.1-.3.2-.3.4s.1.3.3.4c.2.1.6.2 1.1.3.6.2 1.1.3 1.5.5.4.2.8.4 1 .8.3.3.4.8.4 1.4 0 .8-.4 1.5-1.1 1.8-.7.4-1.5.5-2.5.5s-1.8-.2-2.4-.7zM59 102.1l1-5.6 2.4.4-1 5.6 2.5.4-.3 1.9-7.4-1.3.3-1.9 2.5.5zM56 95.6l-2.2 7.4-2.4-.7 2.2-7.4 2.4.7zM42.9 98c-.4-.8-.3-1.7.1-2.6l2.2 1c-.2.4-.2.8-.1 1.1.1.3.4.6.8.8.5.2.9.2 1.2 0 .3-.2.6-.5.9-1l.3-.7c.2-.5.3-.9.2-1.3-.1-.4-.3-.7-.8-.9-.4-.2-.8-.2-1.1-.1-.3.1-.6.4-.8.8l-2.1-.9c.4-1 1.1-1.6 1.9-1.8.8-.2 1.8-.1 2.8.4 1.2.5 2 1.3 2.3 2.2.3.9.2 1.9-.3 3.1-.5 1.2-1.3 2-2.2 2.3-.9.3-1.9.2-3.1-.3-1.1-.7-1.8-1.3-2.2-2.1zM36.6 89.6c-6.1-4.7-9.4-10.8-9.4-17.1 0-5 2.1-9.8 6-14l1.2 1.1c-3.6 3.9-5.6 8.3-5.6 12.9 0 5.8 3.1 11.4 8.8 15.8l-1 1.3z"/><path d="m37 86-.6 2.5-2.1 1.4 5.9 1.3zM34.1 62.1l-.9-2.4-2.3-1.1 5.6-2.1zM107.3 89.6l-1-1.3c5.7-4.4 8.8-10 8.8-15.8 0-4.6-1.9-9.1-5.6-12.9l1.2-1.1c3.9 4.2 6 9 6 14 0 6.4-3.3 12.4-9.4 17.1z"/><path d="m109.6 89.9-2.1-1.4-.6-2.5-3.2 5.2zM113 58.6l-2.3 1.1-.9 2.4-2.4-5.6zM48.1 88.3l-1.4-2.1c5.7-3.7 8.8-8.5 8.8-13.6 0-5.2-3.4-10.2-9.4-14l1.3-2.2c6.9 4.3 10.6 10 10.6 16.1 0 6.1-3.5 11.6-9.9 15.8zM96.7 88.5c-6.6-4.2-10.2-9.9-10.2-15.8S90 61.2 96.5 57l1.4 2.1c-5.7 3.7-8.8 8.5-8.8 13.6s3.2 10 9 13.7l-1.4 2.1z"/><path d="M72.3 81.2c-9.2 0-18-.8-24.5-2.2-7.4-1.6-11.1-3.7-11.1-6.4s3.6-4.8 11.1-6.4c6.6-1.4 15.3-2.2 24.5-2.2s18 .8 24.5 2.2c7.4 1.6 11.1 3.7 11.1 6.4s-3.6 4.8-11.1 6.4c-6.6 1.4-15.3 2.2-24.5 2.2zm0-14.5c-9.1 0-17.6.7-24 2.1-7.4 1.6-9 3.3-9 3.9s1.6 2.3 9 3.9c6.4 1.4 14.9 2.1 24 2.1s17.6-.7 24-2.1c7.4-1.6 9-3.3 9-3.9s-1.6-2.3-9-3.9c-6.5-1.4-15-2.1-24-2.1z"/><path d="M71 51.4h2.5v42.3H71z"/></svg>