<svg version="1.1" id="_x38_" xmlns="http://www.w3.org/2000/svg" x="0" y="0" viewBox="0 0 145 145" style="enable-background:new 0 0 145 145" xml:space="preserve"><style>.st1{fill:#fff}</style><path d="M130.6 102.6 9.7 91.1C3.3 90.4-1.4 84.7-.8 78.3L1.6 53c.6-6.4 6.3-11.2 12.8-10.5L135.3 54c6.4.6 11.2 6.3 10.5 12.8L143.4 92c-.6 6.5-6.3 11.2-12.8 10.6z" style="fill:#f76614"/><path d="M67.8 82.5c2 .6 4.1 1 6.3 1.2 1.7.2 3.4.2 5 0 3-.3 5.2-1.7 6.4-4.2-.1 1-.2 2.1-.3 3.2l-.1 1.6 1.6.2 11.4 1.1 1.6.2 1.7.2 10.1 1 1.7.2.2-1.7.4-4.4c1 2.6 2.8 4.7 5.4 5.9 2 1 4.1 1.5 6.5 1.8 2 .2 4.2.1 6.8-.2l1.3-.2.1-1.3 1.1-11.2.3-3.5.6-6.6.1-1.6-1.5-.3c-.3-.1-.6-.1-.9-.2-.6-.1-1.3-.2-2-.3-1.3-.2-2.4-.3-3.5-.4-2.1-.2-3.9-.2-5.6 0-3.5.4-6.1 2-7.7 4.5l.3-3.7.2-1.7-1.7-.2-10.1-1h-.5l-1.7-.2-13.6-1.3-1.7-.2-.9-.1-.1-.1c-2.2-.4-4.5-.7-6.8-1-1.5-.1-2.9-.2-4.2-.2-1.6 0-4.5.5-5.6 3.5-.4 1.2-.7 2.4-.7 3.7l-.3 3.4-.4 4.4c-.9-5-2.6-10.1-5.1-15.1l-.4-.8-.9-.1-8-.8-1-.1-.6.8c-2.8 3.8-5.2 7.8-7 11.7-.3.6-.5 1.2-.8 1.8l.4-4.1.3-3.5-3 2c-.7.5-1.5.8-2.3 1l.9-9 .2-1.7-1.7-.2-8.9-.8-1.7-.2H27l-13.6-1.3-1.7-.2-.2 1.7-2.1 21.5-.2 1.7 1.7.2 13.6 1.3 1.7.2h.4l13.8 1.3h.2l1.7.2 10.9 1 2.7.3 5 .5 6.9.4zm64.4-8.9c-1.5 1.4-3.1 2.2-4.9 2.3h-.3c-.6-.1-.9-.3-.9-.9-.1-.6 0-1.3.1-1.8.4-1.6 1.5-1.7 2.4-1.7h.2c1.4.1 2.6.7 3.8 1.8l-.4.3z"/><path d="m86.4 88.4 11.4 1.1 1.6.2 1.7.2 10.1 1 1.7.2.2-1.7.4-4.4c1 2.6 2.8 4.7 5.4 5.9 2 1 4.1 1.5 6.5 1.8 2 .2 4.2.1 6.8-.2l1.3-.2.1-1.3 1.1-11.2.3-3.5.6-6.6.1-1.6-1.5-.3c-.3-.1-.6-.1-.9-.2-.6-.1-1.3-.2-2-.3-1.3-.2-2.4-.3-3.5-.4-2.1-.2-3.9-.2-5.6 0-3.5.4-6.1 2-7.7 4.5l.3-3.7.2-1.7-1.7-.2-10.1-1h-.5l-1.7-.2-13.6-1.3-1.4-.2-.9-.1-.6-.1c-2.2-.4-4.5-.7-6.8-1-1.5-.1-2.9-.2-4.2-.2-1.6 0-4.5.5-5.6 3.5-.4 1.2-.7 2.4-.7 3.7l-.2 3.5-.4 4.3c-.9-5-2.6-10.1-5.1-15.1l-.5-.9-.9-.1-8-.8-1-.1-.6.8c-2.8 3.8-5.2 7.8-7 11.7-.3.6-.5 1.2-.8 1.8l.4-4.1.3-3.5-3 2c-.7.5-1.5.8-2.3 1l.9-9 .2-1.7-1.7-.2-8.9-.8-1.6-.2h-.4L13 56.2l-1.7-.2-.2 1.7-2 21.6-.2 1.7 1.7.2 13.6 1.3 1.7.2h.4L40.1 84h.2l1.7.2 10.9 1 2.7.3 5 .5 25.8 2.4zm45.4-10.9c-1.5 1.4-3.1 2.2-4.9 2.3h-.3c-.6-.1-.9-.3-.9-.9-.1-.6 0-1.3.1-1.8.4-1.6 1.2-.6 2.1-.6h.2c1.4.1 2.8-.3 4 .8l-.3.2z"/><path class="st1" d="m60.3 58.5-8-.8c-2.6 3.5-5 7.5-6.9 11.4-1.4 3-2.5 6.1-2.9 9.5 3.7.4 7.3.7 10.9 1-.7-1.9-.5-3.7-.2-5.6l3 .3c0 1.9-.2 3.8-1.2 5.4 3.6.3 7.2.7 10.9 1-.1-1.5-.1-2.9-.2-4.3-.5-6.2-2.5-12.4-5.4-17.9zm-6.7 13.8c.6-2.4 1.3-4.7 1.9-7h.3c.2 2.4.4 4.8.6 7.3-1-.2-1.8-.3-2.8-.3zM128.6 69.8c1.9.1 3.6.9 5 2.3.2-2.3.4-4.4.6-6.6-.9-.2-1.9-.4-2.8-.5-2.8-.4-5.7-.8-8.6-.4-3.6.4-6.2 2.2-7.4 5.7-.8 2.5-1.1 5.1-.7 7.8.4 3.3 2.1 5.8 5.1 7.3 3.9 1.9 8.1 1.9 12.3 1.4.4-4 .8-7.9 1.1-11.9-1.7 1.7-3.7 2.6-6 2.8-1.7.1-2.9-.8-3-2.5-.1-.8 0-1.6.1-2.4.7-2.1 2.2-3.2 4.3-3zM81.1 66.9c-.9-.3-1.9-.4-2.9-.6-.8-.1-1.7-.1-2.5-.2-.9-.1-1.4-.6-1.3-1.5 0-.8.5-1.3 1.4-1.3.6 0 1.3 0 1.9.2 2.6.7 4.9 1.8 6.9 3.8l.6-6.6c-3.7-.6-7.4-1.3-11.2-1.2-1.8 0-3.4.6-4 2.4-.4 1.1-.6 2.4-.6 3.6 0 3.1 2 4.9 5.1 4.7 1.2-.1 2.4-.2 3.6-.2.7 0 1.1.5 1.1 1.2s-.3 1.1-1 1.3c-.4.1-.9.1-1.3 0-3-.5-5.5-1.7-7.8-3.9l-1.1 12c3.4 1.1 7.4 1.6 10.9 1.3 2.8-.2 4.7-1.7 5.5-4.4.6-2 .8-4.1.5-6.1-.4-2.1-1.6-3.7-3.8-4.5zM11.1 75.6c4.5.4 9.1.9 13.6 1.3.4-4 .8-7.9 1.1-11.9-1.6 1-3.2 1.4-5 1.4.1-.9.2-1.7.3-2.7.9.4 1.8.7 2.6 1 .1-1.1.2-2.3.3-3.3-.9.2-1.8.4-2.8.5.1-.9.2-1.6.2-2.4 1.8.3 3.3 1.1 4.7 2.3.2-2.2.4-4.4.6-6.5-4.6-.4-9.1-.9-13.6-1.3-.6 7.2-1.3 14.4-2 21.6zM87.3 67.6l1.2-.6c.4-.2.8-.3 1.3-.5-1.8 5.4-2.6 10.7-2.9 16.2 3.9.4 7.6.7 11.4 1.1.7-5.5 1-10.9.2-16.6.9.6 1.6 1.1 2.3 1.6.2-2.2.4-4.3.6-6.5-4.5-.4-9-.9-13.6-1.3-.1 2.3-.3 4.4-.5 6.6zM37.8 56.3c-3-.3-5.9-.6-8.9-.8l-2.1 21.6c4.6.4 9.2.9 13.8 1.3.4-4.1.8-8.2 1.2-12.4-1.6 1-3.3 1.4-5.1 1.4.4-3.7.7-7.4 1.1-11.1zM101.6 84.2c3.4.3 6.7.6 10.1 1 .7-7.3 1.4-14.4 2.1-21.6-3.4-.3-6.7-.6-10.1-1l-2.1 21.6z"/></svg>