<svg xmlns="http://www.w3.org/2000/svg" viewBox="0 0 177.1 177.1" style="enable-background:new 0 0 177.1 177.1" xml:space="preserve"><style>.st0{fill:#bcaae2}.st1{fill:#fff}.st2{fill:none;stroke:#000;stroke-width:2.8346;stroke-miterlimit:10}.st3{display:none}.st4{display:inline}.st5{fill:#f2e2c2}.st9{fill:#f76614}</style><g id="_x39_"><ellipse transform="rotate(-5.941 34.59 115.865)" cx="34.6" cy="115.8" rx="12.1" ry="2.9"/><path class="st0" d="M12.1 95.2s-4.8 3.3 2.6 14.1 12.3 7.7 12.9 7.5c.6-.3 1.4-4.8 1.4-4.8L19 96.8 13.6 95l-1.5.2z"/><path d="M166.4 76c-.3-3.5-2-6-5.1-7.3h-.2l-.9-.2h-.2c-.4-.1-.9-.1-1.3-.1-2.3 0-4.3.8-5.9 2.2-.5.4-.9.8-1.3 1.3 0-1.6-.2-3.3-.8-4.9-.5-1.6-2-2.6-3.6-2.6-.9 0-1.8.3-2.6.9-.3.2-.7.5-1 .9-.6-1.2-1.6-2.2-3-3-3.2-1.7-6.5-2.5-9.9-2.5-2.3 0-4.6.4-6.9 1.2-.3.1-.5.2-.8.3-.7-1.1-1.7-2-3-2.5-.4-.2-2.5-1.2-5.8-1.2-.9 0-1.9.1-2.9.2-2.6.4-4.8 2-6.1 4.4-1 1.8-1.4 3.8-1.1 5.7-.1-.2-.2-.4-.2-.6-1.6-3.8-3.3-5.6-4.4-6.6-1.4-1.3-3.1-2-4.9-2-.6 0-1.2.1-1.8.2-2.4.5-4.4 2-6.1 4.3-3.4 4.8-5 10.3-5 16.3-.2 0-.5.1-.7.1-1.1.2-2.1.5-3.1.8.2-1.5.4-3.1.4-4.7.5-2.7.7-5.6.4-8.6-.2-1.7-.5-4.8-4.2-5.8H73c-2.1.5-3.6 1.8-4.6 4.1v.1c-.3.6-.5 1.2-.7 1.9 0 .2-.1.4-.1.6-.8-1.6-2.4-2.5-4.5-2.5-.4 0-.8 0-1.3.1-1.2.2-2.6.5-4.1 1-2.9 1-5.3 2.6-6.9 4.6-1.7 2.1-2.5 4.5-2.4 7.2.1 1.5.3 3 .6 4.4v1.1c.3 5.7 2.3 10.9 6 15.2 1.8 2.1 3.8 3.1 6.3 3.1h.6c4.1-.3 7.9-2 11.3-5.1.7-.6 1.1-1.3 1.4-2 3.9.5 7.8-.1 11.5-1.9.5.1 1.1.2 1.7.2 1.9-.1 3.2-1 3.9-2.8.3-.7.5-1.5.7-2.3.1-.7.2-1.4.2-2V87l3.3-.1c0 .2.1.4.1.7.3 1.7.9 3 1.8 4 1.2 1.3 2.8 1.8 4.8 1.4.9-.2 1.6-.6 2.1-1.2.7.7 1.6 1.2 2.7 1.6 2.5.9 5 1.1 7.6.6 2.3-.4 4.3-1.6 5.5-3.2l.9-1.5c.1-.3.2-.5.3-.8.4-.8.8-1.8 1.3-3 .1.5.3.9.5 1.3-.1 1.1-.1 2.2 0 3.5.1 1 .5 1.8 1.1 2.4.7.6 1.7.9 2.9.8 1.4-.1 2.5-.8 3.3-1.9.6-.9 1.1-1.8 1.4-2.7.9-2.3 1.3-4.9 1.3-8.2.3-1.2.4-2.6.5-4 1.7.9 3.2 1.4 4.7 1.5-.3 1.8-.4 3.6-.5 5.5 0 1.1.1 2.3.6 3.4 0 .7-.1 1.4-.1 2.1 0 1.7.2 3.8 2.4 5.3l.1.1 1.5.3h.1c2.3-.4 3.5-1.7 4.2-2.8.2 2.5 1.7 4.4 4.2 5.5.8.3 1.6.5 2.4.8h.1c1.8.5 3.7.1 5.6-1 2-1.2 3.5-3.1 3.9-4.9.3-1.2.1-2.2-.5-3.1.5-.7.8-1.5 1-2.3.1-.2.1-.5.1-.7.7-.5 1.3-1.3 1.5-2.4.2-.8.3-1.6.2-2.4 0-.6-.1-1.1-.2-1.6.2-.4.4-.9.6-1.4.5-1 .6-1.8.5-2.6z"/><path class="st0" d="M165.3 76.1c-.2-3-1.6-5.2-4.5-6.4-.2-.1-.6-.2-.9-.2-2.4-.3-4.5.3-6.3 1.9-1.4 1.3-2.6 2.7-3.5 4.2.2-1.2.2-2.3.3-3.5.1-1.6-.2-3.2-.7-4.8-.6-1.8-2.9-2.4-4.5-1.2-.8.6-1.6 1.4-2.1 2.2-.1.1-.1.2-.2.3 0-.2 0-.5-.1-.8-.3-1.8-1.4-3-2.9-3.8-5.1-2.7-10.5-3.1-15.9-1.3-.6.2-1.2.4-1.7.8 0-.1 0-.1-.1-.2-.5-1.4-1.6-2.3-2.9-2.8 0 0-3.1-1.7-8.1-.9-4.8.8-7.7 6.1-5.8 10.7.9 2.4 2.3 4.4 4 6.3.6.6 1.2 1.2 1.8 1.7 0 0-1.2-.7-4-.4-.7.1-1.4.3-2 .7-.3-3.5-1.3-6.9-2.7-10.2-1-2.3-2.2-4.4-4.1-6.2-1.6-1.5-3.5-2-5.7-1.5-2.4.5-4.1 2-5.4 3.9-3.5 5-5 10.5-4.8 16.4v.2c-.6.1-1.1.1-1.6.3-1.8.4-3.5 1-5.4 1.5l.9-4.2c.7-3.5 1.3-7.1.9-10.7-.2-2.1-.7-4.1-3.4-4.8h-.8c-2 .5-3.1 1.8-3.9 3.5-.3.6-.5 1.2-.7 1.9-.9 3.3-1.2 6.7-1.1 10-.6-.4-1.4-.6-2.3-.4-1 .1-2 .4-2.9.8-1.5.7-3 1.5-4.6 2.2-.5-.8-1.1-1.6-1.7-2.5.3-.1.4-.1.6-.2 3.1-1 5.8-2.4 8.2-4.5 1.7-1.6 2.3-3.2 1.6-4.7-.7-1.5-2.3-2.2-4.6-1.8-1.3.2-2.7.6-3.9 1-5.5 1.9-8.8 5.8-8.6 10.6.3 5.6 2.2 10.6 5.9 14.9 1.6 1.8 3.6 3.1 6.4 2.9 4.3-.3 7.9-2.1 10.9-5 .8-.7 1.2-1.5 1.4-2.2 4.1.7 8.1 0 11.9-1.9.5.2 1.1.2 1.8.2 1.7-.1 2.8-1 3.4-2.4.3-.7.5-1.5.6-2.2.2-.9.2-1.8.3-2.6 1.4 0 2.8-.1 4.3-.1 0 .3.1.7.2 1.2.2 1.4.7 2.6 1.7 3.7 1.2 1.2 2.7 1.5 4.3 1.2 1-.2 1.7-.8 2.1-1.5.7.8 1.7 1.5 2.9 1.9 2.4.9 4.8 1.1 7.3.6 5.9-1.1 8.4-6.7 5.3-11.9-.9-1.5-2.2-2.9-3.4-4.3-1-1.1-2.2-2.1-3.4-3.2 0 0 3.5.7 6.5-.3.7 1.7 1.7 2.4 3.6 2.3 1.4 0 2.7-.5 4-.8 0 0-.1.3-.2.5-1 3-2.2 6-3 9.1-.4 1.7-.5 3.5-.4 5.3.1 1.9 1.5 2.8 3.4 2.7 1.2-.1 2.2-.7 2.9-1.6.6-.8 1-1.7 1.4-2.6 1-2.6 1.3-5.4 1.3-8.2v-5.1c.3.2.5.3.7.5 1.9 1.1 3.9 1.9 6.1 1.7.8-.1 1.4-.3 2-.7-1.6 3.9-2.4 8-2.4 12.2 0 1.8.3 3.5 2.2 4.9.4.1.9.2 1.3.3 2-.3 3.1-1.4 4-2.7.2-.3.4-.6.5-.9.1-.2.2-.5.4-.7v1.9c.1 2.4 1.5 4.2 3.9 5.2.8.3 1.7.5 2.5.8 3.7 1 8-2.3 8.8-5.5.3-1.3 0-2.5-1.1-3.4-1.1-.8-2.3-.5-3.4.1-.3.2-.6.3-.8.6-.5.5-1.1.9-1.6 1.4-.4.4-1.1.1-1.1-.5 0-2 1.2-5 2.5-6.5.3-.3.9-.2 1.1.2.7 1.6 1.8 2.5 3.3 2.4 1.7-.1 2.9-1 3.3-2.7.5-.9.6-1.6.5-2.3zM62.5 89c-.2-.4-.6-1.1-.8-1.5 1.7-1.2 3.5-2.2 4.9-3.4.6-.5 1-1.2 1.4-1.9.2 1 .3 2.1.6 3.1.1.3.1.5.2.7h-.1c-2 .9-4 2-6.2 3z"/><path d="M94.2 66.2c-.1 0-.1.1-.2.1l-.6 1.6c-.2.6-.7 1.2-1.3 1.4l-1.4.7c-.1 0-.1.1-.1.2s0 .2.1.2l1.5.6c.6.3 1.1.8 1.3 1.4L94 74c0 .1.1.1.2.1s.1-.1.2-.1l.6-1.6c.2-.6.7-1.2 1.3-1.4l1.5-.6c.1 0 .1-.1.1-.2s0-.2-.1-.2l-1.5-.6c-.6-.3-1.1-.8-1.3-1.4l-.6-1.6c-.1-.1-.1-.2-.2-.2zM33.8 93.2s-3.6 4.1-5 13.3c0 0-8.5-16.4-16.6-11.3 0 0 5.7-.6 11.7 9.4s4.4 9.8 3.8 12.1c0 0 2.5-.5 3.2-5 .6-4.4 2.2-12.2 5.8-17.5l-2.9-1z"/><path d="M33.1 95.8s2.1 8 11.4 6.7c.4-.1.8-.1 1.2-.3l5.2-1.5-.9-2.6s-4.8 1.8-8.6 1.6c-1.8-.1-3.5-1.1-4.3-2.7l-.8-1.5-3.2.3z"/><path d="M49.2 101.3s2.4 13.7 7.6 14.8c6.9 1.5 4.6-10.1 3.4-12.4-1.2-2.3-3.5-5.5-5.3-6.9-1.6-1.3-5.4-1.5-5.7 2.3"/><ellipse transform="rotate(-80.39 37.604 82.702)" cx="37.6" cy="82.7" rx="17.2" ry="14.6"/><ellipse transform="rotate(-77.215 34.582 78.514)" class="st1" cx="34.6" cy="78.5" rx="1.9" ry=".9"/><ellipse transform="rotate(-77.215 37.554 78.353)" class="st1" cx="37.6" cy="78.4" rx="1.9" ry=".9"/><path class="st1" d="M38.6 82.3c.1 1.8-.3 3.7-1.6 5.1-1 1-2.9 1-3.9-.1-1.3-1.4-1.4-3.4-1.1-5.2h.1c.1 1.6.3 3.5 1.5 4.7 1.5 1.3 3.3.3 4-1.3.5-1 .8-2.1 1-3.2 0 0 .1 0 0 0z"/><path d="M23.1 60.3c-.1 0-.1.1-.2.1l-.6 1.6c-.2.6-.7 1.2-1.3 1.4l-1.5.6c-.1 0-.1.1-.1.2s0 .2.1.2l1.5.6c.6.3 1.1.8 1.3 1.4l.6 1.6c0 .1.1.1.2.1s.1-.1.2-.1l.6-1.6c.2-.6.7-1.2 1.3-1.4l1.5-.6c.1 0 .1-.1.1-.2s0-.2-.1-.2l-1.5-.6c-.6-.3-1.1-.8-1.3-1.4l-.6-1.6c-.1-.1-.1-.1-.2-.1zM28.4 58.1s-.1.1 0 0l-.4 1c-.1.3-.4.6-.7.8l-.8.3-.1.1s0 .1.1.1l.8.3c.3.1.6.4.7.8l.3.9.1.1s.1 0 .1-.1l.3-.9c.1-.3.4-.6.7-.8l.8-.3.1-.1s0-.1-.1-.1l-.8-.3c-.3-.1-.6-.4-.7-.8l-.4-1c.1.1 0 0 0 0z"/><path class="st1" d="M23.9 72.5s14.7 4.5 26.6.4L47 69.3s-9.3.9-18.2-1l-4.9 4.2z"/><path d="M39.2 75.1c-8.3 0-15.3-2.1-15.4-2.1l-.9-.3 5.8-4.9.2.1c8.7 1.9 17.9 1 18 1h.2l4.2 4.4-.7.3c-3.7 1.1-7.7 1.5-11.4 1.5zm-14.3-2.8c3.3.9 14.9 3.5 24.6.4l-2.7-2.9c-1.5.1-9.9.7-17.9-1l-4 3.5z"/><path class="st1" d="M47 69.3s-.6-2.8-1.5-4.4c-1.3-2.4-4.2-2.5-10.1-2.6-4.6-.1-5.9 4.7-5.9 4.7l-.6 1.3c-.1 0 9.1 2.1 18.1 1z"/><path d="M41.6 70.1c-6.9 0-12.8-1.3-12.8-1.3l-.6-.1.9-1.9s1.5-5 6.4-5c5.8.1 9.1.2 10.5 2.8.9 1.7 1.5 4.4 1.6 4.6l.1.5-.5.1c-2 .2-3.8.3-5.6.3zm-12-2.1c2.1.4 9.5 1.6 16.9.9-.2-.9-.7-2.6-1.3-3.7-1.2-2.1-3.8-2.2-9.7-2.3-4.3-.2-5.5 4.1-5.5 4.3l-.4.8z"/><path d="M42.9 66.2c-2 2-9.2 2.3-8.6.2.6-2 3.2-1.9 3.2-1.9s-1.4.8-1.4 1.6c-.1.8 3.1 1 4.7.7 1.6-.3 2.1-.6 2.1-.6zM13 101.5s.3-.8 1.4-1.3 2.4-1 2.4-1-1.9 1.6-3.8 2.3zM13.7 103s.2-.6 1-1 1.9-.6 1.9-.6-1.4 1-2.9 1.6zM15.2 104.3l1.4-1.1s.3 0 .7-.2c.4-.2 1.4-.8 1.4-.8s-.7.9-1.5 1.4-3 1.4-3 1.4l1-.7z"/><path class="st0" d="M51.6 96s11.5 8.9 8.3 18.9c0 0 5.2-1.6.3-11.2 0 0-5.1-8.9-8.6-7.7z"/><path class="st2" d="M25.1 102.2s-.8-3.5.3-4.3c1.1-.8 1.5 2.1.2 4.6"/><path class="st2" d="M25.4 101.9s2.8-.8 3.5.1c.7.8-1.6 1.3-3.7.4M51.1 104.6s-1.4 3.3-2.7 3.3c-1.3 0-.1-2.6 2.4-3.9"/><path class="st2" d="M50.6 104.7s-2.7-1-2.8-2c-.1-1.1 2.1-.2 3.2 1.8"/><path d="m152.8 106.1-.3-3.9c-.2-2.1-2.6-4.1-7.3-6-3.4-1.3-13.9-5.1-27-5.8-14.2-.9-28.3 2.1-38.8 8-1.7.9-2.7 2.6-2.5 4.3 0 .3.1.5.1.8v.1c.1.3.2.6.4.9l1.2 2.8h.1c.2 1 .9 1.9 2.2 2.4.1 0 .2.1.3.1 2.1.7 2.1.4 4.8-1.2 2.7-1.5 7.9-4.4 20.9-6.5 26.5-3.8 45.7 6.1 45.5 5.9-.1 0 .6-.7.4-1.9z"/><path class="st0" d="M79.7 99.1c-3 1.7-2.8 5.3.1 6.5.1 0 .2.1.3.1 2.1.7 2.1.4 4.8-1.2 2.7-1.5 7.9-4.4 20.9-6.5 26.5-3.8 45.8 6.2 45.5 5.9-.1.1 3.4-3.2-6.3-7-4.7-1.7-14.5-5.1-26.8-5.7-12.2-.7-26.8 1.3-38.5 7.9z"/></g></svg>