<svg version="1.1" id="_x31_1" xmlns="http://www.w3.org/2000/svg" x="0" y="0" viewBox="0 0 145 145" style="enable-background:new 0 0 145 145" xml:space="preserve"><style>.st1{fill:#f76614}</style><path d="M101.7 97.3H43.3C29.9 97.3 19 86.5 19 73.1v-1.2c0-13.4 10.9-24.3 24.3-24.3h58.4c13.4 0 24.3 10.9 24.3 24.3v1.2c0 13.4-10.9 24.2-24.3 24.2z" style="fill:#9bc2cc"/><path d="M59 68.8h3.8V63.6l2.2-2.4-2.2-3.8-7.5 7.6h.2-.2v3.8h-3.8v-7.6h-2.2l-1.6-3.8-3.7 3.8h-.1V65h-3.7v3.8V65h-2l-1.8-7.6-3.8 3.8-3.7 3.8v7.5h3.7v7.6h3.8v7.5h3.8l3.7-3.8H47.7v-3.7 7.5h3.8l7.6-7.6-3.3-1.6-.5.2v-2.3H59.1l3.7-3.8-3.8-1.4z"/><path d="M81.7 61.2H71.6c-.2-1.6-1.2-3.8-1.2-3.8l-3.8 3.8h.1-.1V65h-3.8v3.8h3.8v3.8h3.8v15.2H78l7.6-7.6-3.8-2.8v-8.5h3.8V65h3.8v-3.8H81.7zM108.1 76.3l3.8-3.8-3.8-7.5 3.8-3.8-11.3-3.8L93 65l-3.8 3.8v15H93v3.8h11.3l7.6-7.6-7.6-1.1v-2.6z"/><path class="st1" d="M62.8 57.4v3.8h-3.7V65h-3.8v-7.6h-7.6V65H44v-3.8h-3.8v-3.8h-3.8V65h3.8v7.5H44V80h3.7v-3.7h7.6v-3.8V80h3.8v-7.5h3.7V65h3.8v-7.6zM89.2 57.4H70.4v3.8h3.7V65h3.8v15h7.6V65h3.7v-3.8H93v-3.8zM108.1 61.2h3.8v-3.8h-11.3v3.8h-3.8V76.3h3.8V80h11.3v-3.7h-7.6v-3.8h7.6V65h-7.6v-3.8z"/></svg>