<svg version="1.1" id="_x37_" xmlns="http://www.w3.org/2000/svg" x="0" y="0" viewBox="0 0 145 145" style="enable-background:new 0 0 145 145" xml:space="preserve"><style>.st1{fill:#bcaae2}</style><path d="M142.1 59.3c0-1.1-.2-2-.7-2.9.6-1.2.9-2.5.7-4 0-.3 0-.6-.1-.9v-.1c-.1-1.1-.2-2.6-.5-4-.7-3.2-2.6-5.8-5.4-7.4-.3-.2-.6-.4-.9-.5l-2.6-1.2c-3.9-1.8-7.7-3.4-11.4-5.1-.5-.2-1-.4-1.5-.5-.8-.2-1.7-.3-2.6-.3h-.1c-1 0-2.1.1-3.1.4-2.7.6-5.2 2.1-7.3 4-.7-.3-1.4-.4-2.1-.4-.4 0-.9.1-1.3.2l-.7.2c-.6.1-1.1.3-1.7.4-1.4.3-2.6.6-3.8.9-.4.1-.9.2-1.3.4-.6-.2-1.3-.3-1.9-.3h-.4c-.6 0-1.2.1-1.8.3-.5.1-1 .3-1.5.4l-.5.1c-1.6.4-3.2.9-4.9 1.4-2 .6-3.9 1.4-5.3 2-.7.3-1.4.7-1.9 1-.5-.1-1.1-.1-1.6-.1h-.8c-.9.1-1.9.3-2.8.6-1.3.7-2.3 1.1-3.3 1.6-2.7 1.3-4.9 3-6.7 5.1-1.3-.7-3-1.2-5.1-1.2h-1c-1.7.1-3.3.6-4.9 1.4-.2.1-.4.2-.5.3-.1.1-.2.1-.3.2h-.1c-2.3 1.4-4.3 3.1-6 5.2-.5-.2-1-.5-1.5-.7-1.1-.7-2.3-1.1-3.7-1.1h-.4c-.6 0-1.3.2-2 .4-.9.3-1.9.5-2.8.8v.1c-.9.2-1.8.5-2.8.8-1 .3-2.7.8-4.1 2.3H27c-.6 0-1.2.1-1.8.3-.5.1-1.2.3-1.7.4h-.1c-.2 0-.5.1-.7.1-.9.2-1.8.3-2.9.5-.4.1-.8.1-1.2.2-.1 0-.2 0-.4.1h-.1l-.2.1c-.6.2-1.3.3-1.9.4h-.1c-.9.2-1.7.6-2.4 1.2l-.1.1c-2.5 2.1-4.1 4.8-4.8 8.3-2 9.1-3.6 17.1-4.9 23.1-.2.9-.3 1.7-.5 2.6v.1c-.1.5-.2 1-.2 1.4-.5 2.9.5 4.8 1.2 5.7.8 1 1.8 1.8 3 2.2 4 2.1 8.2 4.1 12.5 5.9.9.4 1.9.7 2.9.7h.7c.6-.1 1.1-.2 1.7-.4.8-.3 1.7-.6 2.5-.8l1-.3c2.1-.7 4.3-1.4 6.5-2.2 2.1-.8 4.2-1.8 5.9-3.6h.2c.8-.1 1.5-.3 2.1-.5 2.4-.8 4.8-1.6 7.2-2.5l.2-.1c.8-.3 1.9-.7 3-1.2.4-.2.8-.4 1.2-.7h.8c.3 0 .7 0 1.1-.1.6-.1 1.2-.3 1.8-.5 1.6-.6 3.2-1.3 5.2-2.1 1.2-.5 2.3-1.2 3.1-2.1h.6c.6 0 1.2-.1 1.6-.1.6-.1 1.2-.2 2-.4 2.3-.5 4.2-1.7 5.6-3.3.9.2 1.8.4 2.8.4.6 0 1.2 0 1.8-.1.3 0 .6-.1.9-.2 2.8-.6 5.7-2 8.4-4.1 1.3-1 2.5-2.2 3.3-3.5.2.1.3.1.5.2 1.1.6 2.3.9 3.6.9.3 0 .7 0 1-.1.6-.1 1.2-.2 1.8-.4 1.8-.6 3.2-1.2 4.6-1.8 1.5-.6 2.7-1.6 3.7-2.7.6.1 1.1.2 1.7.2h.7l1.5-.3c1.5-.5 3.3-1.1 5.2-1.9 1.4-.6 2.6-1.5 3.4-2.6 1.7.7 3.7 1.1 5.8 1.1h.1c.5 0 .9-.1 1.3-.2h.1c.8-.2 1.6-.4 2.3-.6l.2-.1h.1c.4-.1.9-.2 1.3-.4h.1c.1 0 .2-.1.3-.1 6.2-2.3 8.2-6.8 8.7-10.1.3-2.2.3-4.1.3-5.9z" style="fill:#f2e2c2"/><path d="m59.5 81.1 10.3 8-8.1 2.9-4.9-5.5z"/><path d="M55.2 94.2c-4.5-1.7-8.9-3.6-13.3-5.5 1.4-2.5 2.9-5 4.3-7.5l8.7-2.4c2.5 2.8 5 5.6 7.6 8.3-2.4 2.3-4.8 4.7-7.3 7.1zM121.1 52.9c4.7 1.7 9.4 3.4 14.2 5.1-1.7 2.4-3.4 4.8-5.2 7.2 0 0-11.4-4.8-11.2-5.3.2-.3 2.2-7 2.2-7zM119 38.5c4.6 2.1 9.3 4.2 14 6.3-1 3.5-2 7-3 10.6-4.6-1.9-9.1-3.8-13.5-5.7-1.9-.3-3.7-.7-5.5-1 1.4-2 2.8-4.1 4.2-6 1.2-1.4 2.5-2.8 3.8-4.2z"/><path d="M111.5 65.2c4.3 1.7 8.7 3.5 13.1 5.2-.4-2.8-.7-5.6-1.1-8.4l1.5-6.9c-.1-2.5-.3-5.1-.5-7.6-4.7-1-9.4-1.9-14-2.7-.2 4-.5 7.9-.8 11.9.6 2.9 1.2 5.7 1.8 8.5z"/><path d="M97 69.3c4.3 1.7 8.6 3.4 13 5 1.9-3.8 3.8-7.5 5.6-11.1-1.5-5.5-3-11-4.4-16.6-2.2-1.4-4.4-2.8-6.5-4.3-1.6 3.2-3.3 6.4-5.1 9.7-.8 5.8-1.7 11.5-2.6 17.3zM60.3 56.1c2.7 1.9 5.4 3.7 8.2 5.4-2.7 3.4-5.5 6.9-8.3 10.5 0-5.3.1-10.6.1-15.9zM55.2 60c.3 5.1.6 10.2 1 15.3-2.3.8-4.6 1.5-6.9 2.3-.6-1.8-1.1-3.6-1.7-5.4 0 0 4.5-12.3 5-12 .5.3 2.6-.2 2.6-.2z"/><path d="M94.4 44.4c4.1 1.7 8.2 3.4 12.4 5.1-2.9 9.5-6.1 19.4-9.5 29.5-4.5-1.6-9-3.2-13.4-4.8 1-8.4 1.9-16.8 2.8-25.1 2.6-1.6 5.2-3.1 7.7-4.7zM39.9 60.7c4.1 2.1 8.3 4.1 12.5 6-3.9 10.6-8.1 21.5-12.5 32.6-4.5-1.9-8.9-3.8-13.2-6 4.6-11.1 9-22 13.2-32.6z"/><path d="M40.2 61.1c.2 3.7.5 7.3.7 11-2.4 3.1-4.9 6.3-7.4 9.4 2.4-6.9 4.6-13.7 6.7-20.4zM8.8 100.2c4.4 2.3 8.9 4.4 13.5 6.4 4-12 7.9-23.9 11.5-35.7-2-1.9-3.9-3.9-5.8-6-2.9 2.6-5.8 5.1-8.8 7.7-3.4 9.2-6.8 18.4-10.4 27.6zM77.4 49.8c4.4 2.8 8.9 5.5 13.5 8.1-2.1 7.9-4.4 15.9-6.9 24.1-2 1.2-4 2.5-6.1 3.8-4.9-1.4-9.7-2.9-14.5-4.5.7-4.9 1.3-9.7 2-14.5 2.2-5.3 4.3-10.4 6.3-15.6 2-.5 3.9-.9 5.7-1.4z"/><g id="_x33_AMN46.tif_00000180326790490606146400000011586891985225236119_"><path d="M22.9 106.4c-.3 0-.4 0-.6-.2-.2-.2-.2-.6-.1-.9.1-.5.2-1.1.2-1.6.1-.7.2-1.5.3-2.3 1.3-7.1 2.7-14.5 4.2-22.7.4-2 1.2-3.6 2.6-4.8l.1-.1c.8-.2 1.6-.4 2.4-.7.4-.1.9-.2 1.3-.3 1-.2 2-.5 3-.7.2-.1.5-.1.7-.2.7-.2 1.5-.3 2.2-.6.2-.1.3-.1.5-.1.7-.1 1 .4 1 1.2-.1 1.3-.2 2.6-.4 4.1-.2 1.2-.9 2.1-2.1 2.5-1.3.5-2.4.9-3.5 1.2-.6.2-.8.4-.9 1-.2.9-.3 1.9-.5 2.9-.1.3-.1.6-.2.9.3-.1.6-.1.9-.2.9-.2 1.8-.4 2.7-.7.4-.1.6-.1.8-.2.2 0 .5 0 .7.2.2.3.2.7.1 1.5 0 .2-.1.4-.1.7-.1.7-.2 1.4-.4 2.1-.3 1.3-.7 1.8-2 2.3-.2.1-.5.2-.7.2-.9.3-1.8.6-2.7 1-.2.1-.6.6-.7.7-.1.3.1.4.6.5.4.1 1 .2 1.1.9.6.2.6.7.6 1v.3s.1 0 .2-.1.3-.1.4-.2c.9-.4 1.5-.6 2-.7 1.1-.1 1.1 1 1.1 2.8-.1 3.3-1 4.5-4.5 5.8-2.1.8-4.2 1.5-6.3 2.2l-3.6 1.2c-.2.1-.3.1-.4.1z"/><path d="M39.7 71.9c.5 0 .8.3.7.9-.1 1.3-.2 2.7-.4 4-.1 1.1-.8 1.8-1.8 2.2-1.2.4-2.3.8-3.5 1.2-.7.2-1 .5-1.1 1.3-.2 1.4-.5 2.7-.8 4.2 1.4-.3 2.7-.7 4.1-1 .3-.1.6-.1.8-.2.7-.1.7.3.5 1.4-.2.9-.3 1.8-.5 2.7-.3 1.2-.6 1.6-1.8 2-1.1.4-2.3.7-3.5 1.2-.3.1-.9.7-.9 1-.3 1.3 1.9.3 1.7 1.8.1 0 .2-.1.3-.1.7-.1 0 1.1.7 1 .1 0 .2 0 .3-.1 1.1-.5 1.8-.8 2.3-.8.8-.1.9.6.8 2.6-.1 3.2-.9 4.2-4.3 5.4-3.3 1.2-6.6 2.2-9.9 3.3-.1 0-.2.1-.3.1-.4 0-.5-.2-.4-.7.2-1.3.3-2.6.6-3.9 1.4-7.6 2.8-15.1 4.2-22.7.3-1.6.9-3.2 2.5-4.5.8-.2 1.5-.4 2.3-.6 1.4-.3 2.9-.6 4.3-1 1-.2 2-.4 3-.7h.1m0-.7c-.2 0-.3 0-.5.1-.7.2-1.5.4-2.2.6-.2.1-.5.1-.7.2-1 .2-2 .5-3 .7-.4.1-.9.2-1.3.3-.4.1-.9.2-1.3.4-.3.1-.7.2-1 .3h-.1l-.1.1c-1.5 1.3-2.3 2.8-2.7 5-1.5 8.2-2.9 15.6-4.2 22.7-.1.8-.3 1.5-.4 2.3-.1.5-.1 1.1-.2 1.6 0 .2-.1.7.2 1.1.1.1.4.3.8.3.1 0 .3-.1.5-.1l3.6-1.2c2.1-.7 4.2-1.4 6.3-2.2 3.7-1.4 4.6-2.6 4.8-6.1.1-1.7.1-3.3-1.3-3.1-.5.1-1.1.3-2.1.7-.1 0-.2.1-.2.1 0-.6-.3-.9-.7-1-.2-.7-.9-.8-1.2-.9-.1 0-.3-.1-.4-.1.1-.1.3-.4.5-.5.9-.4 1.8-.7 2.7-.9.2-.1.5-.2.7-.2 1.5-.5 2-1.1 2.3-2.5.1-.7.3-1.4.4-2.1 0-.2.1-.4.1-.7.1-.8.2-1.4-.1-1.7-.3-.3-.8-.3-.9-.3-.2 0-.5.1-.9.2-.9.2-1.8.4-2.7.7-.2 0-.4.1-.5.1 0-.2.1-.3.1-.5.2-1 .4-2 .5-2.9.1-.4.1-.5.6-.7 1.1-.3 2.3-.7 3.5-1.2 1.3-.5 2.1-1.5 2.3-2.8.2-1.4.3-2.8.4-4.1-.2-1.2-.7-1.7-1.6-1.7z"/></g><path d="M40.5 99c-.3 0-.5 0-.7-.2-.2-.2-.2-.7-.1-1.4.4-3.1.9-6.2 1.3-9.3l.6-4.2c.1 0 .1 0 .2-.1.2-1.1.3-2.3.5-3.4.4-3.1.9-6.2 1.3-9.3.2-1.6.3-1.7 1.8-2.2 1-.3 1.9-.6 2.9-.9 1-.3 2-.6 3.1-1 .2-.1.4-.1.5-.1.3 0 .5 0 .6.2.2.3.2.7.1 1.1-.8 4.8-1.6 9.7-2.4 14.5-.1.6-.2 1.3-.3 1.9-.1.5-.1.9-.2 1.4-.1.5-.2 1.1-.2 1.6v.3h.1c.1 0 .2 0 .3-.1 1.1-.4 2.1-.7 3.1-1 .1 0 .2-.1.4-.1.3 0 .6 0 .8.2.2.2.3.6.2 1.2-.2 1.3-.5 2.7-.7 3.9-.3 1.6-1 2.5-2.5 3.3-.8.4-1.6.7-2.3.9-.1 0-.2.1-.2.1-2.3.8-4.7 1.6-7.1 2.5-.6.1-.9.2-1.1.2z"/><path d="M51.9 67.1c.5 0 .6.3.5 1-.9 5.4-1.8 10.9-2.7 16.4-.2 1-.3 2-.5 3-.1.5 0 .7.4.6.1 0 .2 0 .3-.1 1-.4 2.1-.7 3.1-1 .1 0 .2-.1.3-.1.6-.1.8.3.7 1.1-.2 1.3-.5 2.7-.7 4-.2 1.4-.8 2.3-2.3 3-.8.4-1.7.7-2.5 1-2.4.8-4.7 1.7-7.1 2.4-.4.1-.7.2-.9.2-.6.1-.6-.3-.5-1.3.6-4.4 1.2-8.9 1.8-13.3.1 0 .1 0 .2-.1.6-4.3 1.2-8.6 1.8-13 .2-1.5.2-1.5 1.6-2 2-.6 4-1.2 5.9-1.9.3.2.4.1.6.1m0-.6c-.2 0-.4.1-.6.1-1 .3-2 .7-3 1-.9.3-1.9.6-2.9.9-1.6.5-1.9.8-2.1 2.5-.4 3.1-.9 6.3-1.3 9.3-.2 1.1-.3 2.1-.5 3.2-.1 0-.1 0-.2.1 0 .2 0 .3-.1.5-.2 1.2-.3 2.4-.5 3.6-.4 3.2-.9 6.5-1.3 9.8-.1.7-.1 1.3.2 1.6.3.3.7.2.9.2.2 0 .5-.1 1-.3 2.4-.8 4.8-1.6 7.1-2.5.1 0 .2-.1.2-.1.8-.3 1.6-.6 2.4-1 1.6-.8 2.4-1.8 2.7-3.5.2-1.3.4-2.6.7-3.9.1-.6 0-1.1-.2-1.4-.2-.2-.5-.4-1-.3-.1 0-.3 0-.4.1-1 .3-2 .6-3.1 1 .1-.5.2-1.1.2-1.6.1-.4.1-.9.2-1.4.1-.6.2-1.3.3-1.9.8-4.8 1.6-9.6 2.4-14.5.1-.4.1-1-.2-1.3-.3-.1-.5-.2-.9-.2zM55.9 94c-.3 0-.5-.1-.6-.2-.2-.2-.2-.4-.2-.8.2-1.3.4-2.6.5-3.9.5-3.5.9-7.1 1.5-10.7.4-2.7 1-5.6 2.4-8.6 1.6-3.4 3.8-5.9 6.7-7.6.1-.1.2-.2.4-.3.1 0 .1-.1.2-.1.8-.3 1.7-.5 2.5-.8 1.7-.1 2.9.2 3.8 1.1 1.1 1.1 1.6 3.1 1.4 6-.3 4.3-.8 8.8-1.4 13.2-.2 1.5-.4 3.1-.6 4.6-.2 1.6-1.3 2.7-2.9 3-.7.1-1.2.3-1.6.3-.6.1-1.1.1-1.5-.2-.5-.4-.4-1.3-.4-3l-3.6 1.2v.8c0 .7-.1 1.4 0 2.1 0 .8-.3 1.3-1.1 1.7-2 .8-3.7 1.5-5.3 2.1.1 0-.1.1-.2.1zm11-25.8c-.1 0-.5.4-.7.7-.4.7-.7 1.2-.8 1.7-.1.4-.2.7-.2 1.1-.4 2-.9 4.1-1.2 6.1-.2 1.1-.3 2.2-.1 2.4 0 0 .1.1.3.1.4-.1 1.2-.3 2.2-.8 0 0 .1-.1.2-.1 0-.1.1-.2.1-.2v-.3c.3-3.1.5-6.3.8-9.4 0-.3 0-.6-.1-.7-.3-.6-.4-.6-.5-.6v-.3.3z"/><path d="M69.4 61.3c4.3-.4 5.2 2.9 5 6.8-.3 5.8-1.2 11.8-1.9 17.8-.2 1.4-1.2 2.4-2.6 2.7-.7.1-1.2.3-1.6.3-1.7.3-1.6-.3-1.5-2.9 0-.1 0-.2-.1-.3-1.3.5-2.6.9-4.1 1.4 0 1.1-.1 2.2-.1 3.1 0 .7-.2 1-.9 1.3-1.8.7-3.5 1.4-5.3 2.1-.1 0-.2.1-.3.1-.4.1-.5-.2-.5-.7.7-4.9 1.2-9.7 2-14.6.5-2.8 1-5.6 2.4-8.5 1.5-3.2 3.7-5.7 6.6-7.5.2-.1.4-.3.6-.4.7-.2 1.5-.5 2.3-.7m-5.1 19.2c.5-.1 1.2-.3 2.3-.8.1 0 .2-.1.3-.2 0-.1.1-.3.1-.4.3-3.3.6-6.5.8-9.7 0-.3 0-.7-.2-.9-.2-.3-.4-.6-.7-.5-.2 0-.7.5-.9.9-.3.6-.7 1.2-.8 1.8-.5 2.4-1.1 4.8-1.5 7.2-.3 2-.3 2.7.6 2.6m5.1-19.8s-.1 0 0 0c-.9.3-1.7.5-2.5.8h-.1s-.1 0-.1.1c-.1 0-.1.1-.2.1-.1.1-.2.2-.3.2-2.9 1.8-5.2 4.4-6.8 7.8-1.4 3-2 5.9-2.4 8.7-.6 3.6-1.1 7.2-1.5 10.8-.2 1.3-.3 2.6-.5 3.9-.1.5 0 .8.2 1 .1.1.4.3.8.2.1 0 .3-.1.5-.1 1.6-.6 3.2-1.3 5.3-2.1 1.3-.5 1.4-1.4 1.4-2v-2.6c1-.3 2-.7 3-1-.2 1.5-.2 2.3.3 2.7.4.4 1.1.3 1.7.2.4-.1 1-.2 1.6-.3 1.8-.4 3-1.7 3.2-3.3.2-1.5.4-3.1.6-4.6.6-4.4 1.1-8.9 1.4-13.2.2-3-.3-5-1.5-6.2-1-.9-2.3-1.3-4.1-1.1zm-5.2 19.2c-.1-.2.1-1.4.2-2.1.3-2 .7-4 1.2-6 .1-.4.2-.7.2-1.1.1-.4.3-.9.7-1.6.1-.2.3-.4.5-.5 0 0 .1.1.2.3.1.1.1.3.1.6-.2 3.1-.5 6.3-.8 9.4v.3c-1 .4-1.7.7-2.1.7h-.2zM80.4 85.7c-2.6.4-4.5-1-4.7-3.5 0-.4-.1-.9-.2-1.3-.1-.5-.2-1-.2-1.5-.1-2 1-3.5 3-4.3.1 0 .2-.1.3-.1h.1c.6-.2 1-.3 1.3-.4.9-.1 1 .5 1.1 1.6v.1c.1.4.1.9.4 1.1.1.1.3.1.6.1.1 0 .3-.1.4-.1.1-.1.4-.7.5-1 .1-1.3-.4-2.1-1.6-2.7-.3-.1-.6-.3-.8-.4-.7-.4-1.5-.7-2.1-1.3-2.1-1.9-2.2-5-.5-9.1 1.2-2.9 3.3-5 6.6-6.6.7-.3 1.4-.6 2.3-.9.5-.2 1-.3 1.5-.3 1.8-.1 2.9.8 3.3 2.7.2 1 .3 2 .4 3 0 .5.1.9.1 1.4-.3 2.5-.4 2.6-2.8 3.1-.2 0-.3.1-.5.1-.7.1-1.5.3-2.2.5-.1 0-.2.1-.3.1-.3 0-.5 0-.6-.2-.2-.3-.2-.7-.1-1 .1-.5.2-.9.2-1.3 0-.3-.1-.4-.1-.4s-.2 0-.5.3c-1.1 1-1.6 2.6-1 3.4.4.4.8.7 1.3 1.1.1.1.3.2.4.3.6.4 1.2.8 1.7 1 2.9 1.6 3.6 4.7 2 9.5-.5 1.5-1.5 2.8-2.9 3.9-2 1.5-4 2.5-6 3-.1 0-.2.1-.4.1z"/><path d="M88.4 55.4c1.6-.1 2.6.7 3 2.5.3 1.4.3 2.9.5 4.4-.3 2.4-.3 2.4-2.6 2.8l-2.7.6c-.1 0-.2 0-.3.1-.5.1-.6-.2-.4-.8.1-.5.2-.9.2-1.3s-.1-.6-.3-.6c-.2 0-.4.1-.7.4-1.2 1-1.8 2.9-1 3.8.5.6 1.2 1 1.8 1.4.5.4 1.1.7 1.7 1 3 1.7 3.3 4.9 1.9 9.2-.5 1.5-1.4 2.7-2.8 3.8-1.9 1.4-3.8 2.4-5.8 2.9-.2 0-.3.1-.5.1-2.5.4-4.2-.9-4.4-3.3-.1-1-.3-1.8-.4-2.8-.1-1.8.9-3.2 2.8-3.9.1-.1.3-.1.4-.1.6-.2 1-.3 1.3-.4.6-.1.7.3.8 1.5.1.5.2 1 .5 1.3.2.1.5.2.8.1.2 0 .3-.1.5-.2.3-.1.6-.9.6-1.3.1-1.5-.6-2.4-1.7-3-1-.5-2-.9-2.9-1.7-2.2-1.9-2-5-.5-8.7 1.4-3.2 3.7-5.1 6.4-6.4.7-.4 1.5-.6 2.3-.9.5-.4 1-.5 1.5-.5m-.1-.6c-.5 0-1 .1-1.6.3-.9.3-1.7.6-2.3.9-3.3 1.6-5.5 3.8-6.7 6.8-1.8 4.2-1.6 7.4.6 9.4.6.6 1.4.9 2.1 1.3.3.1.6.3.8.4 1.1.6 1.5 1.4 1.4 2.5 0 .2-.2.6-.3.8-.1 0-.1 0-.2.1h-.4c-.2-.2-.3-.7-.3-1v-.1c-.2-1.1-.3-2-1.4-1.8-.3 0-.8.2-1.4.4h-.1c-.1 0-.2.1-.3.1-2.2.8-3.4 2.5-3.3 4.6 0 .5.1 1.1.2 1.6.1.4.1.8.2 1.2.1 1.3.7 2.3 1.6 3 .9.7 2.1.9 3.5.7.2 0 .3-.1.5-.1 2-.5 4.1-1.5 6.1-3 1.5-1.2 2.5-2.5 3-4.1 1.6-4.9.8-8.1-2.2-9.8-.5-.3-1.1-.6-1.7-1-.1-.1-.3-.2-.4-.3-.5-.3-.9-.6-1.3-1-.5-.7-.1-2.1.9-3 0 0 .1 0 .1-.1 0 .3-.1.7-.2 1.1-.1.4-.2.9.1 1.2.1.2.4.3.9.3.1 0 .2 0 .4-.1.7-.2 1.5-.4 2.2-.5.2 0 .3-.1.5-.1 1.2-.3 1.9-.4 2.4-.9s.5-1.1.7-2.4V62c0-.4-.1-.9-.1-1.4-.1-1-.2-2.1-.4-3.1-.4-1.9-1.6-2.9-3.6-2.7zM98.2 79c-.3 0-.6 0-.8-.2-.3-.2-.4-.6-.4-1.1.2-4.3.3-8.6.4-12.7 0-1.5.1-2.9.1-4.4 0-.5 0-.9-.1-1H97c-.2 0-.4 0-.6.1-.3 0-.6.1-.9.2-.3 0-.5.1-.8.1h-.3c-.5 0-.9 0-1.1-.3-.3-.3-.4-.7-.4-1.3V56c0-1.4.3-1.8 1.6-2.3 1.5-.6 3.2-1.3 4.9-1.8 1.6-.5 3.2-.9 4.7-1.3.7-.2 1.3-.4 2-.5.2 0 .3-.1.5-.1.3 0 .6.1.7.2.2.2.3.6.3 1.1 0 .7.1 1.3.1 2 .1.6.1 1.2.1 1.8 0 1.2-.3 1.6-1.6 2.1-.5.2-1 .3-1.5.5-.2.1-.4.1-.7.2 0 .5.1 1 .1 1.5.1 1.2.2 2.4.2 3.6.1 3.9.1 7.8.1 11.8 0 1.1-.7 2-2 2.5-1.2.5-2.6 1.1-4.2 1.6.3.1.1.1 0 .1z"/><path d="M106.8 50.2c.6 0 .8.3.8 1 0 1.3.2 2.5.2 3.8 0 1.1-.3 1.4-1.4 1.8-.7.3-1.4.5-2.4.8.1 1.9.3 3.6.3 5.4.1 3.9.1 7.8.1 11.8 0 1.1-.8 1.8-1.8 2.3-1.4.6-2.7 1.1-4.1 1.6-.2.1-.3.1-.4.1-.6.1-.9-.3-.9-1 .2-5.7.4-11.4.5-17.1 0-1.2 0-1.4-.7-1.3-.2 0-.4 0-.6.1-.6.1-1.2.2-1.7.3h-.2c-.9.1-1.3-.3-1.2-1.3 0-.8 0-1.6.1-2.4 0-1.2.2-1.5 1.5-2.1 1.6-.7 3.2-1.3 4.8-1.8 2.3-.7 4.5-1.3 6.8-1.9 0-.1.2-.1.3-.1m-.1-.6c-.2 0-.3 0-.5.1-.7.2-1.4.4-2 .5-1.5.4-3.2.8-4.7 1.3-1.7.5-3.4 1.2-4.9 1.8-1.4.6-1.8 1.1-1.8 2.6v2.4c0 .5 0 1.1.5 1.5.3.3.8.4 1.3.3h.3c.3 0 .5-.1.8-.1.3-.1.6-.1.9-.2.3 0 .5-.1.6-.1h.1v.8c0 1.5-.1 3-.1 4.5-.1 4.1-.3 8.4-.4 12.7 0 .6.1 1 .4 1.3.2.2.5.3 1.1.3.2 0 .4-.1.6-.1 1.6-.6 2.9-1.1 4.2-1.6 1.4-.6 2.2-1.6 2.2-2.8 0-4 0-7.9-.1-11.8 0-1.2-.1-2.4-.2-3.7 0-.4-.1-.9-.1-1.3.2 0 .3-.1.4-.1.6-.2 1-.3 1.5-.5 1.4-.5 1.8-1 1.8-2.3 0-.6-.1-1.2-.1-1.8-.1-.7-.1-1.3-.1-2 0-.4 0-.9-.4-1.3-.6-.3-.9-.4-1.3-.4zM110.8 74.3c-.2 0-.4 0-.6-.2-.2-.2-.3-.5-.3-1 0-.8 0-1.6.1-2.4 0-1.1.1-2.1.1-3.2.1-2.7.1-5.5.1-8.2 0-2.7.1-5.3.1-7.9 0-1.3.2-1.5 1.5-1.8 1.2-.3 2.5-.6 3.8-.9.7-.2 1.4-.3 2-.5v2.9c0 5.2-.1 10.6-.2 16 0 .5 0 1-.1 1.5 0 .5-.1 1.1-.1 1.6 0 1.1-.6 1.9-1.6 2.3-1.6.7-3.3 1.2-4.6 1.6-.1.1-.2.1-.2.2z"/><path d="M117.3 48.6v.9c0 5.9-.1 11.7-.3 17.7 0 1-.1 2-.2 3.1 0 .9-.5 1.7-1.4 2.1-1.5.6-3 1.2-4.5 1.6h-.2c-.5.1-.6-.4-.6-.9.1-1.9.1-3.7.2-5.6.1-5.4.2-10.8.2-16.1 0-1.2.1-1.3 1.3-1.6 1.8-.4 3.5-.8 5.5-1.2m.5-.7c-.2 0-.5.1-.7.2-.6.1-1.1.3-1.7.4-1.3.3-2.5.6-3.8.9-1.4.3-1.6.6-1.7 2 0 2.6-.1 5.3-.1 8s-.1 5.4-.2 8.2c0 1.1-.1 2.1-.1 3.2 0 .8-.1 1.6-.1 2.4 0 .6.1 1 .4 1.2.2.2.5.3.8.2.1 0 .2 0 .3-.1 1.3-.4 3-.9 4.6-1.7 1.1-.5 1.7-1.4 1.8-2.6 0-.5 0-1 .1-1.6 0-.5.1-1 .1-1.5.1-5.3.2-10.7.2-15.9V48.6c.1-.2.1-.5.1-.7zM127.3 70.5c-4.1 0-6.5-1.9-7.2-5.8-.1-.7-.3-1.5-.5-2.2-.1-.3-.2-.7-.3-1v-4.2c.1-.5.3-1 .4-1.5.3-1.1.5-2.2.8-3.3 1.1-3.9 4.3-7.1 8.1-7.9.6-.1 1.2-.2 1.8-.2 2.7.1 4.6 1.7 5.2 4.2.2 1 .3 2.1.4 3.1 0 .3 0 .7.1 1 .1.8-.4 1.4-1.3 1.5-1.5.3-2.7.6-3.8.9-.2 0-.3.1-.5.1-.3 0-.5-.1-.6-.2-.2-.2-.3-.5-.3-.9v-.9c0-.9.1-1.8.1-2.7 0-.5-.3-1-.4-1h-.2c-.5 0-1 .4-1.2 1-.4.9-.7 1.9-.9 3-.4 3.5-.4 6.2.2 8.5.1.5.4 1 .8 1.5.2.2.4.3.6.3.4 0 .9-.3 1-1 .2-.8.3-1.7.3-2.6v-.1c.1-1.2.2-1.5 1.5-1.7 1-.2 1.9-.2 2.8-.2h.5c.2 0 .5.1.7.3.2.2.4.5.4.7v.1c0 1.5 0 3.1-.3 4.7-.4 2.7-2.1 4.4-5.1 5.5-.1 0-.3.1-.4.2-.1 0-.1.1-.2.1-.7.3-1.6.5-2.5.7z"/><path d="M130.5 44.7c2.5.1 4.3 1.5 4.9 4 .3 1.3.3 2.7.4 4.1.1.7-.3 1.2-1.1 1.3-1.3.3-2.6.5-3.8.9-.2 0-.3.1-.4.1-.5 0-.6-.3-.6-.8.1-1.2.2-2.4.1-3.6 0-.5-.3-1.2-.6-1.3h-.2c-.6 0-1.2.5-1.5 1.1-.4 1-.8 2-.9 3-.4 2.9-.5 5.9.2 8.6.1.6.5 1.2.9 1.6.2.3.5.4.8.4.5 0 1.1-.4 1.3-1.1.2-.9.3-1.9.3-2.8 0-1.1.2-1.3 1.3-1.5.9-.1 1.9-.2 2.8-.2h.5c.3 0 .8.5.8.8 0 1.6 0 3.2-.3 4.8-.4 2.7-2.1 4.3-4.9 5.3-.2.1-.4.2-.7.3-.9.2-1.7.4-2.6.6-4 0-6.2-1.9-6.9-5.5-.2-1.1-.5-2.2-.8-3.2v-4.1c.4-1.6.8-3.2 1.2-4.7 1.1-3.8 4.3-7 7.9-7.8.8-.2 1.4-.3 1.9-.3m0-.5c0 .2.1.3.1.5-.1-.1-.1-.3-.1-.5-.6 0-1.2 0-1.8.2-3.8.8-7.2 4.1-8.3 8.1-.3 1.1-.6 2.2-.8 3.3-.1.5-.2 1-.4 1.5v4.6c.1.3.2.7.3 1 .2.7.4 1.4.5 2.2.7 4 3.2 6 7.5 6h.2l2.4-.6c.1 0 .1 0 .2-.1h.2c.1 0 .1-.1.2-.1.1-.1.3-.1.4-.2 3.1-1.1 4.8-2.9 5.3-5.7.3-1.6.3-3.2.3-4.8v-.1c0-.3-.2-.6-.5-.9-.3-.3-.7-.4-1-.4h-.5c-.9 0-1.9.1-2.9.2-1.4.2-1.7.7-1.7 2v.1c0 .8-.1 1.7-.3 2.5-.1.5-.5.8-.8.8-.1 0-.2 0-.3-.1-.4-.4-.7-.9-.8-1.4-.6-2.3-.6-5-.2-8.5.1-1 .5-2 .9-2.9.2-.5.6-.9 1-.9.1.1.2.5.2.8 0 .9 0 1.8-.1 2.7v.9c0 .3 0 .8.4 1.1.2.1.4.3.9.3.2 0 .4 0 .6-.1 1.2-.3 2.4-.6 3.8-.9 1-.2 1.5-.8 1.4-1.8 0-.3-.1-.7-.1-1-.1-1-.1-2.1-.4-3.2-.9-2.7-3-4.5-5.8-4.6z"/><g id="_x33_AMN46.tif_00000125581610708278874870000015854068083445898145_"><path class="st1" d="M9.6 100.2c-.3 0-.4-.1-.6-.2-.2-.2-.1-.6-.1-.9.1-.6.2-1.1.3-1.7.1-.8.2-1.5.4-2.3 1.5-7.2 3.1-14.8 4.8-23.1.4-2.1 1.3-3.6 2.7-4.8h.1c.8-.2 1.6-.4 2.3-.6.4-.1.9-.2 1.3-.2 1-.2 2-.4 2.9-.5.2 0 .5-.1.7-.1.7-.1 1.5-.3 2.2-.5.2 0 .3-.1.4-.1.7 0 1 .4.9 1.3-.1 1.3-.3 2.7-.5 4.2-.2 1.2-1 2.1-2.1 2.5-1.3.4-2.4.8-3.5 1.1-.6.2-.8.4-.9 1-.2 1-.4 1.9-.6 3-.1.3-.1.6-.2.9.3-.1.6-.1.9-.2l2.7-.6c.4-.1.6-.1.8-.1.2 0 .5 0 .7.2.2.3.2.7 0 1.6 0 .2-.1.4-.1.7-.1.7-.3 1.4-.4 2.1-.3 1.4-.7 1.8-2.1 2.2-.2.1-.5.1-.7.2-.9.3-1.8.5-2.7.8-.2.1-.6.5-.7.7l-.6 3c0 .2-.1.5-.1.7.3-.1.5-.2.8-.3.8-.3 1.6-.6 2.3-.9.1 0 .3-.1.4-.1.9-.4 1.5-.6 2-.6 1.1-.1 1.1 1.1.9 3-.2 3.4-1.1 4.6-4.6 5.7-2.1.7-4.2 1.3-6.3 1.9-1.2.3-2.4.7-3.6 1h-.1z"/><path d="M27.2 65.5c.5 0 .7.3.7 1-.1 1.4-.3 2.8-.5 4.1-.2 1.1-.9 1.9-1.9 2.2-1.2.4-2.3.8-3.5 1.1-.7.2-1 .5-1.1 1.3-.3 1.4-.6 2.8-.9 4.3 1.4-.3 2.7-.5 4-.8.3-.1.6-.1.8-.1.7 0 .7.3.5 1.5-.2.9-.4 1.8-.6 2.8-.3 1.3-.6 1.6-1.8 1.9-1.1.3-2.3.6-3.4 1.1-.3.1-.9.7-.9 1-.3 1.4-.5 2.7-.8 4.2 1.2-.5 2.4-.9 3.5-1.3s1.8-.7 2.3-.8c.8-.1.8.6.7 2.7-.2 3.3-1 4.3-4.3 5.4-3.3 1.1-6.5 2-9.8 2.9-.1 0-.2.1-.3.1-.4 0-.5-.2-.4-.8.2-1.3.4-2.6.7-4L15 72.2c.3-1.7 1-3.2 2.6-4.5.8-.2 1.5-.4 2.3-.5 1.4-.3 2.8-.5 4.2-.8 1-.2 1.9-.3 2.9-.6-.1-.3.1-.3.2-.3m0-.7c-.2 0-.3 0-.5.1-.7.2-1.5.3-2.2.5-.2 0-.5.1-.7.1l-3 .6c-.4.1-.8.2-1.3.2-.1 0-.2.1-.3.1-.6.2-1.3.3-1.9.5h-.1l-.1.1c-1.5 1.2-2.4 2.8-2.8 5-1.7 8.4-3.3 15.9-4.9 23.2-.2.8-.3 1.6-.4 2.3-.1.5-.2 1.1-.3 1.7 0 .2-.1.8.1 1.1.1.2.3.3.8.3.1 0 .3 0 .5-.1 1.2-.3 2.4-.7 3.6-1 2.1-.6 4.2-1.2 6.3-1.9 3.6-1.2 4.6-2.5 4.9-6.1.1-1.7.2-3.4-1.2-3.3-.5 0-1.1.3-2.1.6-.1 0-.3.1-.4.1l-2.4.9c-.1 0-.2.1-.3.1v-.3c.2-1 .3-2 .6-2.9l.5-.5c.9-.3 1.8-.6 2.7-.8.2-.1.5-.1.7-.2 1.5-.4 2-1 2.3-2.5.2-.7.3-1.4.4-2.1 0-.2.1-.4.1-.7.2-.8.2-1.4-.1-1.8-.3-.4-.8-.3-.9-.3-.2 0-.5.1-.9.1l-2.7.6c-.2 0-.3.1-.5.1 0-.2.1-.3.1-.5l.6-3c.1-.4.1-.5.6-.7 1.1-.3 2.2-.6 3.5-1.1 1.3-.4 2.1-1.5 2.3-2.8.2-1.5.4-2.9.5-4.2.2-.9-.2-1.5-1.1-1.5z"/></g><path class="st1" d="M27.1 93.5c-.3 0-.5 0-.6-.2-.2-.3-.2-.7-.1-1.4.4-2.3.7-4.1 1.1-5.8.3-1.7.7-3.5 1-5.7v-.2c0-.2.1-.6.1-.8.1-.6.1-1 .2-1.1.2-1.2.4-2.5.6-3.7.5-3.2 1-6.3 1.5-9.5.3-1.6.4-1.8 1.9-2.2 1-.3 1.9-.5 2.9-.8 1-.3 2-.5 3-.9.2-.1.4-.1.5-.1.3 0 .5.1.6.2.2.3.2.7.1 1.1-.9 4.9-1.9 9.9-2.8 14.8-.1.7-.3 1.3-.4 2-.1.5-.2.9-.2 1.4-.1.5-.2 1.1-.3 1.6-.1.3 0 .3 0 .3h.1c.1 0 .2 0 .3-.1 1.1-.4 2.1-.7 3.1-.9.1 0 .2-.1.3-.1.3 0 .6.1.8.3.2.3.3.7.1 1.2-.3 1.3-.5 2.7-.8 4-.3 1.6-1 2.5-2.5 3.3-.8.4-1.5.6-2.3.9-.1 0-.2.1-.2.1-2.3.7-4.6 1.5-7 2.2-.5 0-.7.1-1 .1z"/><path d="M39.3 61.1c.5 0 .6.3.4 1-1.1 5.6-2.1 11.2-3.2 16.8-.2 1-.3 2-.5 3.1-.1.5 0 .7.3.7.1 0 .2 0 .3-.1 1-.3 2-.7 3.1-.9.1 0 .2 0 .3-.1.6-.1.8.4.6 1.2-.3 1.4-.5 2.7-.8 4.1-.3 1.5-.9 2.3-2.3 3-.8.4-1.7.7-2.5.9-2.3.8-4.7 1.5-7 2.2-.4.1-.7.2-.9.2-.6.1-.6-.3-.4-1.3.7-4.6 1.4-7 2.1-11.5.1 0 .3-2.1.3-2.2.7-4.4 1.5-8.9 2.2-13.3.2-1.5.2-1.6 1.6-2 2-.6 3.9-1.1 5.9-1.7.2 0 .3-.1.5-.1m0-.6c-.2 0-.4 0-.6.1l-3 .9c-.9.3-1.9.5-2.9.8-1.6.5-1.8.7-2.1 2.5-.5 3.2-1 6.4-1.6 9.5-.2 1.2-.4 2.5-.6 3.7 0 .1-.1.3-.1.4 0 .2-.1.5-.1.7 0 .2 0 .4-.1.6 0 .2-.1.3-.1.5-.4 2.3-.7 4-1 5.7-.3 1.7-.7 3.5-1.1 5.8-.1.7-.2 1.3.1 1.7.3.3.7.3.8.3.2 0 .5-.1 1-.2 2.4-.7 4.8-1.5 7-2.2.1 0 .2 0 .2-.1.8-.2 1.5-.5 2.3-.9 1.6-.8 2.4-1.8 2.7-3.5.2-1.3.5-2.7.8-4 .1-.7.1-1.2-.2-1.5-.2-.2-.4-.4-1-.3-.1 0-.3 0-.4.1-1 .3-2 .6-3.1.9.1-.6.2-1.1.3-1.6.1-.5.2-.9.2-1.4.1-.6.2-1.3.4-1.9.9-4.9 1.9-9.9 2.8-14.8.1-.4.1-1-.1-1.4.1-.3-.1-.4-.5-.4z"/><path class="st1" d="M42.4 89c-.3 0-.5-.1-.6-.2-.2-.2-.2-.5-.1-.8.2-1.3.4-2.7.6-4 .6-3.6 1.1-7.3 1.8-11 .5-2.8 1.2-5.8 2.6-8.8 1.7-3.4 3.9-5.9 6.8-7.7.1-.1.2-.2.4-.2.1 0 .1-.1.2-.1.3-.2 1.2-.6 2.5-.7 1.6-.1 2.9.3 3.7 1.2 1.1 1.2 1.5 3.2 1.2 6.2-.4 4.4-1.1 9.1-1.8 13.6-.2 1.5-.5 3.1-.7 4.7-.2 1.6-1.3 2.7-2.9 3.1-.7.1-1.2.2-1.6.3-.5.1-1.1.1-1.4-.2-.4-.4-.4-1.3-.3-3.1l-3.6 1.2c0 .3 0 .5-.1.8-.1.8-.1 1.5-.1 2.2 0 .9-.3 1.4-1.1 1.7-2 .8-3.7 1.4-5.3 2 .1-.3-.1-.3-.2-.2zM54 62.8c-.1 0-.5.4-.7.7-.4.7-.7 1.2-.8 1.7-.1.4-.2.8-.3 1.1-.5 2.1-1 4.2-1.4 6.2-.2 1.1-.4 2.2-.2 2.4 0 0 .1.1.3.1.4 0 1.2-.3 2.2-.7 0 0 .1 0 .2-.1 0-.1.1-.2.1-.2v-.3c.4-3.2.7-6.5 1.1-9.7 0-.3 0-.6-.1-.8-.2-.4-.3-.4-.4-.4v-.3.3z"/><path d="M56.7 55.7c4.3-.3 5 3.1 4.7 7.1-.5 6-1.6 12.1-2.5 18.3-.2 1.5-1.2 2.5-2.7 2.8-.6.1-1.2.2-1.6.3-1.6.2-1.6-.3-1.4-3.1v-.3c-1.3.4-2.6.9-4.1 1.3-.1 1.1-.2 2.2-.2 3.2 0 .7-.2 1.1-.9 1.3-1.7.7-3.5 1.3-5.3 2-.1 0-.2.1-.3.1-.4 0-.5-.2-.5-.7.8-5 1.5-10 2.5-15 .5-2.8 1.1-5.7 2.6-8.7 1.6-3.3 3.8-5.8 6.7-7.5.2-.1.4-.3.6-.4.3-.2 1.1-.6 2.4-.7M51 75.4c.5 0 1.2-.3 2.3-.7.1 0 .2-.1.3-.2 0-.1.1-.3.1-.4.4-3.3.8-6.7 1.1-10 0-.3 0-.7-.1-.9-.2-.3-.4-.6-.7-.6-.2 0-.7.5-.9.9-.4.6-.7 1.2-.8 1.8-.6 2.5-1.2 5-1.7 7.4-.4 2-.5 2.8.4 2.7m5.7-20.3c-1.4.1-2.3.6-2.6.8-.1 0-.1.1-.2.1-.1.1-.2.2-.4.2-2.9 1.7-5.3 4.4-7 7.8-1.5 3.1-2.1 6.1-2.7 8.9-.7 3.7-1.3 7.4-1.8 11-.2 1.3-.4 2.7-.6 4-.1.5 0 .8.2 1.1.1.1.4.3.8.3.1 0 .3-.1.5-.1 1.5-.6 3.2-1.2 5.3-2 1.3-.5 1.4-1.4 1.4-2 0-.7 0-1.4.1-2.1v-.5c.5-.2 1.1-.3 1.6-.5.5-.1.9-.3 1.4-.4-.1 1.6-.1 2.4.4 2.9.4.4 1 .4 1.6.3.4-.1.9-.2 1.6-.3 1.7-.3 3-1.6 3.2-3.4.2-1.6.5-3.2.7-4.7.7-4.5 1.4-9.1 1.7-13.6.3-3.1-.2-5.1-1.3-6.4-.9-1.1-2.2-1.5-3.9-1.4zm-5.8 19.7c-.1-.3.1-1.4.2-2.2.3-2 .9-4.1 1.4-6.2.1-.4.2-.8.3-1.1.1-.4.3-.9.7-1.6.1-.2.3-.4.5-.5 0 0 .1.1.2.3.1.1.1.3.1.6-.3 3.2-.7 6.5-1.1 9.7v.3c-.9.4-1.7.6-2.1.7h-.2z"/><path class="st1" d="M66.7 81.1c-2.6.4-4.4-1.1-4.5-3.7 0-.4-.1-.9-.1-1.3-.1-.5-.1-1-.2-1.6-.1-2 1-3.6 3.1-4.3.1 0 .2-.1.3-.1h.1c.6-.2 1-.3 1.3-.3.9-.1.9.5 1 1.7v.1c0 .4.1 1 .3 1.2.1.1.3.1.6.1.1 0 .3-.1.4-.1.1-.1.5-.7.5-1 .1-1.3-.3-2.2-1.4-2.9-.3-.2-.5-.3-.8-.5-.7-.4-1.4-.8-2-1.3-2-2-2-5.2-.2-9.4 1.3-3 3.4-5.1 6.6-6.7.7-.3 1.4-.6 2.3-.9.5-.2 1-.3 1.5-.3 1.8-.1 2.8.8 3.1 2.8.2 1 .2 2.1.3 3.1 0 .5 0 .9.1 1.4-.4 2.5-.5 2.7-2.9 3.1-.2 0-.3.1-.5.1-.7.1-1.4.3-2.2.5-.1 0-.2.1-.3.1-.3 0-.5 0-.6-.2-.2-.3-.1-.7-.1-1 .1-.5.2-.9.2-1.3V58s-.2 0-.5.3c-1.1 1-1.7 2.6-1 3.5.3.4.8.8 1.3 1.1.1.1.3.2.4.3.6.4 1.2.8 1.6 1.1 2.8 1.7 3.4 4.9 1.7 9.8-.5 1.5-1.5 2.9-3 4-2 1.5-4 2.5-5.9 2.9-.2.1-.4.1-.5.1z"/><path d="M75.5 50c1.6-.1 2.6.7 2.9 2.6.2 1.4.2 3 .4 4.5-.4 2.4-.4 2.4-2.6 2.9-.9.2-1.8.3-2.7.6-.1 0-.2 0-.3.1-.5 0-.6-.3-.4-.9.1-.5.2-.9.2-1.4 0-.4-.1-.7-.3-.6-.2 0-.4.1-.7.4-1.2 1.1-1.8 2.9-1.1 3.9.5.6 1.1 1 1.7 1.5.5.4 1.1.8 1.6 1.1 2.9 1.8 3.1 5.1 1.6 9.5-.5 1.5-1.5 2.8-2.9 3.8-1.9 1.5-3.8 2.5-5.8 2.9-.2 0-.3.1-.5.1-2.4.3-4.1-1-4.3-3.5-.1-1-.3-1.9-.3-2.9-.1-1.9 1-3.3 2.9-4 .1 0 .3-.1.4-.1.6-.2 1-.3 1.3-.3.6-.1.6.3.8 1.5.1.5.1 1.1.4 1.4.2.1.5.2.8.2.2 0 .3-.1.5-.1.3-.1.6-.9.7-1.3.2-1.6-.5-2.5-1.6-3.1-.9-.6-2-1-2.7-1.8-2.1-2-1.8-5.2-.2-9 1.4-3.3 3.8-5.2 6.5-6.5.7-.4 1.5-.6 2.2-.9.6-.5 1-.6 1.5-.6m0-.6c-.5 0-1 .1-1.5.3-.9.3-1.7.6-2.3.9-3.3 1.6-5.5 3.8-6.8 6.9-1.9 4.3-1.8 7.6.3 9.7.6.6 1.3 1 2 1.4.3.1.5.3.8.4 1 .6 1.5 1.4 1.3 2.6 0 .2-.2.6-.4.8-.1 0-.1 0-.2.1h-.3c-.2-.2-.2-.7-.3-1v-.1c-.1-1.2-.2-2-1.3-1.9-.3 0-.7.2-1.4.4h-.1c-.1 0-.2.1-.3.1-2.2.8-3.4 2.5-3.3 4.7 0 .6.1 1.1.2 1.6.1.4.1.9.1 1.3.1 1.3.6 2.4 1.4 3.1.9.7 2 1 3.4.8.2 0 .3-.1.5-.1 2-.4 4.1-1.4 6.1-3 1.5-1.2 2.6-2.6 3.1-4.2 1.7-5.1 1.1-8.3-1.8-10.1-.5-.3-1-.7-1.6-1.1-.1-.1-.3-.2-.4-.3-.5-.3-.9-.7-1.2-1.1-.5-.7 0-2.2 1-3 0 0 .1 0 .1-.1 0 .3-.1.7-.2 1.2-.1.4-.2.9.1 1.3.1.2.4.3.8.3.1 0 .2 0 .4-.1.7-.2 1.4-.3 2.1-.5.2 0 .3-.1.5-.1 1.2-.2 1.9-.4 2.4-.9s.6-1.2.8-2.5V57c0-.5-.1-.9-.1-1.4-.1-1.1-.1-2.1-.3-3.2-.6-2.1-1.7-3.1-3.6-3z"/><path class="st1" d="M84.3 74.5c-.3 0-.6 0-.8-.2-.2-.2-.3-.6-.3-1.1.3-4.4.6-8.8.8-13.1.1-1.5.2-3 .3-4.6 0-.5.1-1 0-1.1h-.4c-.2 0-.4 0-.6.1-.3 0-.6.1-.9.1-.3 0-.5.1-.8.1h-.3c-.5 0-.9-.1-1.1-.3-.3-.3-.4-.7-.3-1.4v-.4c0-.7.1-1.4.1-2 .1-1.4.4-1.8 1.7-2.4 1.4-.6 3.1-1.3 4.8-1.8 1.6-.5 3.2-1 4.7-1.4.7-.2 1.3-.4 2-.6.2-.1.3-.1.5-.1.3 0 .5.1.7.2.2.2.3.6.3 1.1 0 .7 0 1.4.1 2.1 0 .6.1 1.2.1 1.9 0 1.2-.4 1.7-1.6 2.1-.5.2-1 .3-1.5.5-.2.1-.4.1-.6.2 0 .5 0 1.1.1 1.6.1 1.3.1 2.5.1 3.8 0 4-.1 8.1-.3 12.2 0 1.1-.8 2-2 2.6-1.2.6-2.5 1.1-4.1 1.7-.4.1-.5.2-.7.2z"/><path d="M93.7 44.7c.5 0 .8.3.7 1.1 0 1.3.1 2.6.1 3.9 0 1.1-.3 1.5-1.4 1.9-.7.3-1.4.5-2.3.8.1 1.9.2 3.7.2 5.5 0 4-.2 8.1-.3 12.2 0 1.1-.8 1.9-1.8 2.3-1.4.6-2.7 1.1-4.1 1.6-.2.1-.3.1-.4.1-.6.1-.9-.3-.8-1.1.4-5.9.7-11.8 1.1-17.7.1-1.2.1-1.4-.7-1.4-.2 0-.4 0-.6.1-.6.1-1.2.2-1.7.3h-.2c-.9.1-1.2-.3-1.2-1.4 0-.8.1-1.6.1-2.4.1-1.3.3-1.6 1.5-2.1 1.6-.7 3.2-1.3 4.8-1.8 2.2-.7 4.5-1.3 6.7-1.9h.3m0-.5c-.2 0-.3 0-.5.1-.7.2-1.3.4-2 .6-1.5.4-3.1.9-4.7 1.4-1.7.5-3.4 1.2-4.9 1.9-1.4.6-1.8 1.1-1.9 2.6 0 .7-.1 1.4-.1 2v.4c0 .5 0 1.2.4 1.6.3.3.7.4 1.3.4h.3c.3 0 .5-.1.8-.1.3-.1.6-.1.9-.2.3 0 .5-.1.6-.1h.1v.8c-.1 1.5-.2 3.1-.3 4.6-.3 4.3-.5 8.7-.8 13.1 0 .6.1 1.1.4 1.3.2.2.5.3 1 .3.2 0 .4-.1.6-.1 1.6-.6 2.9-1.1 4.2-1.7 1.4-.6 2.2-1.7 2.2-2.9l.3-12.2c0-1.3 0-2.5-.1-3.8 0-.4 0-.9-.1-1.4.2-.1.3-.1.4-.1.6-.2 1-.3 1.5-.5 1.3-.5 1.8-1.1 1.8-2.4 0-.6 0-1.3-.1-1.9 0-.7-.1-1.4-.1-2 0-.4 0-1-.4-1.3-.1-.4-.4-.5-.8-.4z"/><path class="st1" d="M96.8 69.6c-.2 0-.4 0-.6-.2-.2-.2-.3-.5-.3-1.1 0-.8.1-1.7.1-2.5.1-1.1.1-2.2.2-3.3.1-2.8.3-5.6.4-8.4.1-2.7.2-5.5.4-8.2.1-1.3.2-1.5 1.5-1.9 1.2-.3 2.5-.6 3.8-.9.7-.2 1.3-.3 2-.5V44c0 .6 0 1.2-.1 1.8-.2 5.4-.5 11-.7 16.5 0 .5-.1 1-.1 1.5-.1.5-.1 1.1-.1 1.6 0 1.1-.7 2-1.6 2.4-1.6.7-3.3 1.3-4.5 1.7-.2.1-.3.1-.4.1z"/><path d="M104 43v1c-.2 6.1-.5 12.1-.8 18.3-.1 1-.2 2.1-.3 3.2 0 1-.6 1.8-1.5 2.2-1.5.7-3 1.2-4.5 1.7h-.2c-.5.1-.6-.4-.6-1 .1-1.9.2-3.8.3-5.8.3-5.6.5-11.1.8-16.6.1-1.2.1-1.3 1.3-1.6 1.9-.5 3.7-.9 5.5-1.4m.6-.7c-.2.1-.5.1-.7.2-.6.1-1.1.3-1.7.4-1.3.3-2.5.6-3.7.9-1.4.4-1.6.7-1.7 2.1-.1 2.7-.2 5.5-.4 8.2-.1 2.8-.3 5.6-.4 8.4-.1 1.1-.1 2.2-.2 3.3-.1.8-.1 1.7-.2 2.5 0 .6.1 1 .4 1.3.2.2.5.3.8.2.1 0 .2 0 .3-.1 1.3-.4 2.9-1 4.6-1.7 1.1-.5 1.8-1.5 1.8-2.7 0-.5.1-1.1.1-1.6s.1-1 .1-1.5c.3-5.5.5-11.1.7-16.5 0-.6 0-1.2.1-1.7v-1c.1-.2.1-.5.1-.7z"/><path class="st1" d="M113.2 65.6c-4 .1-6.3-1.9-6.8-5.9-.1-.8-.3-1.5-.4-2.3-.1-.3-.1-.7-.2-1 .1-1.4.1-2.9.2-4.3.1-.5.3-1 .4-1.5.3-1.1.6-2.3.9-3.4 1.2-4.1 4.5-7.5 8.2-8.4.6-.1 1.2-.2 1.8-.2 2.6 0 4.5 1.6 5 4.3.2 1 .2 2.2.3 3.2v1.1c0 .9-.4 1.4-1.3 1.6-1.4.3-2.7.7-3.8 1-.2.1-.3.1-.5.1-.3 0-.5-.1-.6-.2-.2-.2-.3-.5-.2-.9 0-.3 0-.6.1-.9.1-.9.2-1.9.1-2.8 0-.5-.2-1-.4-1.1h-.2c-.5 0-1 .5-1.2 1.1-.4.9-.8 2-1 3.1-.5 3.6-.6 6.4-.1 8.8.1.5.4 1.1.8 1.5.2.2.3.3.6.3.4 0 .8-.3 1-1 .2-.9.3-1.8.4-2.7v-.2c.1-1.2.3-1.6 1.6-1.8 1-.2 1.9-.3 2.8-.3h.5c.2 0 .5.1.7.3.2.2.4.5.4.7v.1c0 1.6-.1 3.3-.4 4.9-.5 2.8-2.2 4.6-5.2 5.8-.1.1-.3.1-.4.2-.1 0-.1.1-.2.1-1.1.2-2 .5-2.9.7z"/><path d="M117.2 38.8c2.4 0 4.2 1.5 4.7 4 .2 1.4.2 2.8.3 4.3 0 .7-.3 1.2-1.1 1.4-1.3.3-2.5.6-3.8 1-.2 0-.3.1-.4.1-.5 0-.6-.3-.6-.9.1-1.2.2-2.5.2-3.7 0-.5-.2-1.3-.6-1.3h-.2c-.6 0-1.2.6-1.5 1.2-.4 1-.8 2.1-1 3.1-.4 3.1-.6 6.1-.1 8.9.1.6.4 1.2.8 1.7.2.3.5.4.8.4.5 0 1.1-.5 1.3-1.2.3-1 .3-1.9.4-2.9.1-1.1.2-1.4 1.4-1.6.9-.2 1.8-.3 2.7-.3h.5c.3 0 .8.4.8.8 0 1.6-.1 3.3-.4 5-.5 2.8-2.2 4.5-5 5.6-.2.1-.4.2-.7.3-.9.2-1.7.5-2.6.7-4 .1-6.1-1.9-6.6-5.6l-.6-3.3c.1-1.4.1-2.8.1-4.3.5-1.6.9-3.3 1.4-4.9 1.2-4 4.4-7.3 8.1-8.2.6-.2 1.2-.3 1.7-.3m0-.5c0 .2 0 .3.1.5-.1-.2-.1-.3-.1-.5-.6 0-1.2.1-1.8.2-3.8.9-7.2 4.4-8.4 8.5-.3 1.1-.6 2.3-.9 3.4-.1.5-.3 1-.4 1.5v.2c-.1 1.4-.1 2.8-.2 4.3v.2c.1.4.1.7.2 1.1.2.7.3 1.5.4 2.3.5 4.1 2.9 6.2 7.1 6.1h.2c.9-.2 1.7-.5 2.6-.7h.2c.1 0 .1-.1.2-.1.1-.1.3-.1.4-.2 3.1-1.2 4.8-3.1 5.4-6 .3-1.7.4-3.3.4-5V54c0-.3-.2-.6-.5-.9-.3-.3-.6-.4-.9-.4h-.5c-.9 0-1.9.1-2.8.3-1.4.3-1.7.7-1.8 2.1v.1c-.1.9-.1 1.8-.4 2.6-.1.5-.5.8-.8.8-.1 0-.2 0-.3-.1-.4-.4-.6-.9-.7-1.4-.5-2.4-.4-5.2.1-8.7.1-1 .6-2.1.9-3 .2-.5.7-.9 1-.9.1.1.2.5.2.8 0 .9-.1 1.8-.1 2.7 0 .3-.1.6-.1.9 0 .3 0 .8.3 1.2.1.1.4.3.8.3.2 0 .3 0 .5-.1 1.1-.3 2.3-.6 3.8-1 1-.2 1.5-.9 1.5-1.9v-1.1c0-1.1-.1-2.2-.3-3.3-.5-3-2.6-4.7-5.3-4.7z"/></svg>