<svg id="_0024_question" xmlns="http://www.w3.org/2000/svg" viewBox="0 0 500 500" data-imageid="question-41" imageName="Question" class="illustrations_image" style="width: 166px;"><defs><style>.cls-1_question-41{fill:#f4a28c;}.cls-2_question-41{opacity:.03;}.cls-2_question-41,.cls-3_question-41{fill:#000001;}.cls-4_question-41{fill:#fff;opacity:.3;}.cls-5_question-41{fill:#c9c9c9;}.cls-6_question-41{fill:#ce8172;opacity:.31;}.cls-7_question-41{opacity:.58;}.cls-7_question-41,.cls-8_question-41,.cls-9_question-41{fill:#68e1fd;}.cls-10_question-41{fill:#24285b;}.cls-3_question-41{opacity:.08;}.cls-8_question-41{opacity:.73;}.cls-11_question-41{fill:#ffd200;}</style></defs><ellipse id="sd_question-41" class="cls-2_question-41" cx="246.21" cy="453.6" rx="153.96" ry="27.39"/><g id="plant_question-41"><path class="cls-7_question-41 targetColor" d="m342.46,422.72s-18.04-4.85-22.03-21.6c0,0,27.9-5.76,28.81,23.05l-6.78-1.45Z" style="fill: rgb(104, 225, 253);"/><path class="cls-8_question-41 targetColor" d="m344.66,420.92s-12.67-19.85-1.67-38.51c0,0,21.29,13.39,11.96,38.51h-10.29Z" style="fill: rgb(104, 225, 253);"/><path class="cls-9_question-41 targetColor" d="m347.91,420.92s6.56-21.05,26.65-25.11c0,0,3.83,13.63-12.92,25.11h-13.74Z" style="fill: rgb(104, 225, 253);"/><polygon class="cls-10_question-41" points="334.84 420.5 338.59 445.48 361.6 445.48 364.89 420.5 334.84 420.5"/></g><g id="question_question-41"><circle class="cls-10_question-41" cx="339.1" cy="77.93" r="55.75"/><path class="cls-11_question-41" d="m342.34,46.35c6.37.37,11.36,2.37,14.99,5.9,3.54,3.53,5.16,7.88,4.87,12.89-.2,3.48-.89,6.42-2.38,8.72-1.5,2.3-2.26,3.7-4.57,5.27-2.31,1.57-2.84,1.96-5.56,3.25-1.32.69-2.19,1.07-2.55,1.3-3.61,1.92-5.59,3.76-5.78,7.08-.12,2.12-.84,2.68-2.88,2.56l-3.4-.2c-2.04-.12-2.68-.75-2.56-2.88.42-7.22,3.6-10.53,8.98-13.7-.08,0,3.44-1.93,3.61-2.01.35-.23,2.65-1.63,3.11-2.2.46-.57,1.99-2.01,2.4-3.1.4-1,.92-2.59,1.02-4.29.3-5.18-3.32-8.88-10.11-9.28-6.54-.38-10.17,2.05-12.86,7.26-1.06,2.07-1.76,2.37-3.75,1.57l-3.99-1.68c-1.92-.71-2.44-2.02-1.57-3.76,4.2-9.13,11.86-13.37,22.98-12.71Zm-5.4,51.57c4.08.24,5.35,1.68,5.12,5.75l-.04.77c-.24,4.16-1.68,5.35-5.75,5.12l-.68-.04c-4.08-.24-5.36-1.59-5.12-5.75l.04-.77c.24-4.08,1.68-5.36,5.75-5.12l.68.04Z"/><polygon class="cls-10_question-41" points="298.39 89.74 263.43 116.88 307.54 107.5 298.39 89.74"/></g><g id="person_question-41"><rect class="cls-5_question-41" x="169.63" y="52.1" width="3.91" height="20.54" transform="translate(-.24 124.08) rotate(-39.73)"/><rect class="cls-5_question-41" x="182.97" y="55.35" width="20.54" height="3.91" transform="translate(118.33 244.42) rotate(-84.7)"/><path class="cls-9_question-41 targetColor" d="m196.62,146.2s-74.73,8.72-101.4,29.12c-26.68,20.4-21.44,51.69,65.38,35.26,86.82-16.43,36.02-64.38,36.02-64.38Z" style="fill: rgb(104, 225, 253);"/><path class="cls-3_question-41" d="m196.62,146.2s-74.73,8.72-101.4,29.12c-26.68,20.4-21.44,51.69,65.38,35.26,86.82-16.43,36.02-64.38,36.02-64.38Z"/><path class="cls-1_question-41" d="m167.03,94.94c2.61-.33,5.14-1.09,7.48-2.29,3.9-2,12.32-3.82,12.13,4.29-.12,5.21-8.22-.95-8.76,6.05-.54,7.01.45,15.89-14.03,13.63-13.22-2.06-9.53-20.08,3.18-21.69Z"/><path class="cls-9_question-41 targetColor" d="m207.54,437.26s-2.81,8.24-10.2,9c-7.39.75-9.21,8.02-2.52,9.8,6.69,1.77,23.71-7.08,23.71-7.08l-.73-11.76-10.26.05Z" style="fill: rgb(104, 225, 253);"/><path class="cls-9_question-41 targetColor" d="m285.19,428.07s2.17,8.43-3.6,13.11c-5.77,4.68-3.31,11.76,3.26,9.57,6.57-2.18,15.96-18.91,15.96-18.91l-6.4-8.57-9.21,4.79Z" style="fill: rgb(104, 225, 253);"/><path class="cls-1_question-41" d="m221.68,89.65s7.11,12.49,8.89,22.15c.72,3.92-1.91,7.74-5.84,8.4-4.88.83-11.71.53-16.33-5.7l-9.14-9.61s-5.52-6.23-.59-14.9c4.93-8.68,19.06-8.17,23.01-.34Z"/><polygon class="cls-1_question-41" points="202.58 107.01 202.79 154.1 228.73 152.13 218.43 119.5 202.58 107.01"/><path class="cls-1_question-41" d="m225.75,97.76l5.95,3.36c1.47.83,1.58,2.91.2,3.88l-4.56,3.23-1.58-10.47Z"/><path class="cls-6_question-41" d="m218.72,120.42s-5.56-.52-8.76-3.4c0,0-.9,10.27,11.71,12.75l-2.95-9.35Z"/><path class="cls-9_question-41 targetColor" d="m218.5,144.4h26.02s83.18,7.21,84.6,48.36c1.42,41.15-52.53,123.44-52.53,123.44h-89.74s-103.21-171.79,31.65-171.79Z" style="fill: rgb(104, 225, 253);"/><path class="cls-3_question-41" d="m270.92,182.64s-18.79,26.8-10.94,47.66c7.85,20.87,11.36,54.29-49.17,21.91l-8.79-28.04-23.64-8.05-9.51,38.71,16.28,5.52c7.71,2.61,12.21,10.91,9.69,18.66-2.16,6.63-7.51,13.21-20.05,14.47l12.06,22.73h89.74l11.89-19.35,32.7-71.83-50.26-42.38Z"/><path class="cls-10_question-41" d="m202.62,116.4s-6.01-11.02-13.2-15.87c-7.19-4.86-1.3-20.52,11.34-23.32,9.45-2.09,14.87-5.2,14.94-10.54.03-2.48,3.04-3.81,5.02-2.32,4.34,3.26,8.76,8.59,6.62,15.98-1.57,5.43-6.16,9.46-11.62,10.91l-8.52,2.26s11.3,15.39-4.58,22.9Z"/><path class="cls-1_question-41" d="m212.93,107.21s-2.41-4.98-6.01-2.86c-3.6,2.12-.17,9.34,5.28,7.66l.73-4.8Z"/><path class="cls-9_question-41 targetColor" d="m271.36,195.09c-6.88-25.14,23.26-43.82,42.9-26.68,9.4,8.2,17.39,18.76,19.82,31.87,6.97,37.66,29.29,70.44-4.88,92.75-34.17,22.32-115.1-27.2-115.1-27.2l11.14-20.22s40.5,16.04,65.61,14.65c17.41-.97-9.78-29.71-19.48-65.16Z" style="fill: rgb(104, 225, 253);"/><rect class="cls-11_question-41" x="190.15" y="214.23" width="25.11" height="40.5" transform="translate(60 -40.67) rotate(13.43)"/><path class="cls-4_question-41" d="m271.36,195.09c-6.88-25.14,23.26-43.82,42.9-26.68,9.4,8.2,17.39,18.76,19.82,31.87,6.97,37.66,29.29,70.44-4.88,92.75-34.17,22.32-115.1-27.2-115.1-27.2l11.14-20.22s40.5,16.04,65.61,14.65c17.41-.97-9.78-29.71-19.48-65.16Z"/><path class="cls-1_question-41" d="m223.82,248.17s-.95-5.2-5.32-10.43c-4.38-5.23-5.81-7.56-11.89-7.44-6.08.12-6.63,22.3,10.03,30.91l7.19-13.04Z"/><path class="cls-10_question-41" d="m276.59,316.2s-17.97,74.62,18.01,106l-12.67,11.86s-46.65-27.08-53.16-101.47l47.82-16.39Z"/><path class="cls-9_question-41 targetColor" d="m156.34,103.37l7.51,13.26-54.95,86.44c-8.49,13.35-29.59,7.83-29.79-7.99-.09-7.28,2.21-16.05,8.71-26.4,23.65-37.63,68.52-65.31,68.52-65.31Z" style="fill: rgb(104, 225, 253);"/><rect class="cls-5_question-41" x="158.71" y="70.96" width="3.91" height="20.54" transform="translate(58.85 229.71) rotate(-82.38)"/><path class="cls-10_question-41" d="m186.85,316.2s-18.45,69.65,17.92,121.02l14.68-.72s-21.28-69.47,10.34-94.89l46.8-25.42h-89.74Z"/></g></svg>