<svg version="1.1" id="Layer_1" xmlns="http://www.w3.org/2000/svg" xmlns:xlink="http://www.w3.org/1999/xlink" x="0px" y="0px" viewBox="0 0 500 500" style="width: 166px;" xml:space="preserve" data-imageid="ranking-56" imageName="Ranking" class="illustrations_image">
<style type="text/css">
	.st0_ranking-56{fill:#FFC9B0;}
	.st1_ranking-56{fill:#093F68;}
	.st2_ranking-56{fill:#FFFFFF;}
	.st3_ranking-56{fill:#725858;}
	.st4_ranking-56{fill:#F56132;}
	.st5_ranking-56{fill:#FFBC0E;}
	.st6_ranking-56{fill:#68E1FD;}
	.st7_ranking-56{fill:none;}
	.st8_ranking-56{fill:#70CC40;}
</style>
<g id="character-1_ranking-56">
	<path class="st0_ranking-56" d="M81,293.6h11.2v9c1.1,1.7,1.4,3.7,0.9,5.7c-0.9,3.1-2,5.9-6.9,4S81,301.5,81,293.6z"/>
	<path class="st1_ranking-56" d="M88.9,314.7c-1.2,0-2.3-0.3-3.4-0.7c-5.8-2.2-6.3-11.3-6.3-20.4c0-1,0.8-1.8,1.8-1.8h11.2c1,0,1.8,0.8,1.8,1.8&#10;&#9;&#9;c0,0,0,0,0,0v8.5c1.1,2,1.4,4.4,0.8,6.7c-0.6,2-1.4,4.3-3.5,5.4C90.6,314.5,89.7,314.7,88.9,314.7z M82.9,295.4&#10;&#9;&#9;c0,5.6,0.4,13.8,4,15.2c0.9,0.4,1.9,0.6,2.8,0.3c0.8-0.4,1.3-1.8,1.7-3.1c0.3-1.4,0.1-2.9-0.7-4.1c-0.2-0.3-0.3-0.6-0.3-1v-7.2&#10;&#9;&#9;L82.9,295.4z"/>
	<path class="st0_ranking-56" d="M152.2,293.6h-11.1v9c-1.1,1.7-1.4,3.7-0.9,5.7c0.9,3.1,2,5.9,6.9,4S152.2,301.5,152.2,293.6z"/>
	<path class="st1_ranking-56" d="M144.3,314.7c-0.8,0-1.6-0.2-2.4-0.5c-2.1-1-2.9-3.3-3.5-5.4c-0.6-2.2-0.3-4.6,0.8-6.7v-8.5&#10;&#9;&#9;c0-1,0.8-1.8,1.8-1.8c0,0,0,0,0,0h11.1c1,0,1.8,0.8,1.8,1.8c0,9.1-0.5,18.1-6.3,20.4C146.6,314.4,145.5,314.7,144.3,314.7z&#10;&#9;&#9; M142.9,295.4v7.2c0,0.4-0.1,0.7-0.3,1c-0.8,1.2-1,2.7-0.6,4.1c0.4,1.3,0.9,2.8,1.6,3.1c1,0.2,2,0.1,2.8-0.3&#10;&#9;&#9;c3.6-1.4,3.9-9.6,4-15.2L142.9,295.4z"/>
	<path class="st2_ranking-56" d="M103.9,214.1h25.4c12.7,0,22.9,10.3,22.9,22.9c0,0,0,0,0,0v56.6l0,0H81l0,0V237&#10;&#9;&#9;C81,224.3,91.2,214.1,103.9,214.1C103.9,214,103.9,214,103.9,214.1z"/>
	<path class="st1_ranking-56" d="M152.2,295.4H81c-1,0-1.8-0.8-1.8-1.8c0,0,0,0,0,0v-55.8c0-14.1,11.5-25.6,25.6-25.6h23.6&#10;&#9;&#9;c14.1,0,25.6,11.5,25.6,25.6v55.8C154,294.6,153.2,295.4,152.2,295.4z M82.8,291.8h67.6v-54c0-12.2-9.8-22-22-22h-23.6&#10;&#9;&#9;c-12.2,0-22,9.8-22,22L82.8,291.8z"/>
	<path class="st1_ranking-56" d="M92.2,282.8c-1,0-1.8-0.8-1.8-1.8c0,0,0,0,0,0v-44.8c0.1-1,0.9-1.8,1.9-1.7c0.9,0.1,1.6,0.8,1.7,1.7V281&#10;&#9;&#9;C94,282,93.2,282.8,92.2,282.8C92.2,282.8,92.2,282.8,92.2,282.8z"/>
	<path class="st1_ranking-56" d="M141.1,282.7c-1,0-1.8-0.8-1.8-1.8c0,0,0,0,0,0v-44.6c0.1-1,0.9-1.8,1.9-1.7c0.9,0.1,1.6,0.8,1.7,1.7v44.6&#10;&#9;&#9;C142.9,281.8,142.1,282.7,141.1,282.7z"/>
	<path class="st3_ranking-56" d="M107.1,141.2c1.1-0.3,2.2-0.5,3.3-0.6c5.2-0.5,10.4-1.1,15.3,0.8c10.1,3.9,17.2,13.2,18.3,24l0.9,21.2l-57.6,8&#10;&#9;&#9;c-0.5-1.2-4.3-5-4.4-6.2c-0.2-1.4-0.5-2.7-1-4c-1.1-3.4-1.8-6.8-2.2-10.4c-0.5-5.5,0.2-11.1,1.9-16.4c1-3.2,2.2-6.5,4.7-8.6&#10;&#9;&#9;s6.8-2.6,9-0.1C98.3,145.1,102.5,142.4,107.1,141.2z"/>
	<path class="st1_ranking-56" d="M87.4,196.5c-0.7,0-1.4-0.5-1.7-1.2c-0.5-0.7-1-1.4-1.6-2c-1.8-2.2-2.9-3.5-2.9-4.8c-0.1-0.9-0.3-1.8-0.6-2.7&#10;&#9;&#9;c-0.1-0.3-0.2-0.6-0.3-0.9c-1.1-3.5-1.8-7.1-2.3-10.7c-0.5-5.8,0.2-11.6,2-17.1c1-3.3,2.3-7,5.2-9.5c2.7-2.3,6.9-3.1,9.9-1.3&#10;&#9;&#9;c4-4.3,9.4-7,15.2-7.5l0.9-0.1c5-0.5,10.2-0.9,15.2,1c10.8,4.1,18.3,14,19.4,25.6c0,0,0,0,0.9,21.3c0,0.9-0.6,1.7-1.6,1.9l-57.6,8&#10;&#9;&#9;L87.4,196.5z M84.8,188.2c0.6,1,1.3,1.9,2.1,2.8c0.6,0.7,1,1.3,1.4,1.8l54.8-7.6c-0.2-4.9-0.8-19.3-0.8-19.6l0,0&#10;&#9;&#9;c-1-10.1-7.6-18.8-17.1-22.4c-4.2-1.6-8.8-1.2-13.6-0.7l-0.9,0.1c-1,0.1-2,0.3-3,0.5l0,0c-4.3,1.1-8.1,3.5-10.8,7&#10;&#9;&#9;c-0.3,0.4-0.8,0.7-1.4,0.7c-0.5,0-1.1-0.2-1.4-0.6c-1.4-1.7-4.7-1.2-6.4,0.3c-2.2,1.9-3.2,4.9-4.1,7.8c-1.7,5.1-2.3,10.4-1.8,15.7&#10;&#9;&#9;c0.4,3.4,1.1,6.7,2.1,10l0.3,0.8C84.4,185.8,84.7,187,84.8,188.2z M84.8,188.1l22.4-46.9l0,0L84.8,188.1z"/>
	<path class="st0_ranking-56" d="M112,210.5h9l0,0v6.9c0,1.2-0.9,2.1-2.1,2.1l0,0h-4.8c-1.2,0-2.1-0.9-2.1-2.1l0,0L112,210.5L112,210.5z"/>
	<path class="st1_ranking-56" d="M117.2,221.4h-1.4c-3.1,0-5.6-2.5-5.6-5.6v-5.2c0-1,0.8-1.8,1.8-1.8h9c1,0,1.8,0.8,1.8,1.8v5.2&#10;&#9;&#9;C122.8,218.8,120.3,221.3,117.2,221.4z M113.8,212.4v3.4c0,1.1,0.9,2,2,2h1.4c1.1,0,2-0.9,2-2v-3.4H113.8z"/>
	
		<ellipse transform="matrix(0.9958 -9.202302e-02 9.202302e-02 0.9958 -16.4234 13.4461)" class="st0_ranking-56" cx="137.6" cy="184.8" rx="8.2" ry="7.6"/>
	<path class="st1_ranking-56" d="M137.4,194.2c-2.3,0-4.5-0.7-6.3-2.1c-2.1-1.5-3.4-3.8-3.6-6.4c-0.5-5.1,3.6-9.7,9.2-10.2&#10;&#9;&#9;c2.6-0.3,5.2,0.4,7.3,2c4,2.9,4.8,8.5,1.9,12.5c-0.2,0.3-0.4,0.6-0.7,0.8c-1.8,1.9-4.2,3.1-6.8,3.3&#10;&#9;&#9;C138.1,194.2,137.8,194.2,137.4,194.2z M137.7,179.1c-0.2,0-0.4,0-0.7,0c-3.5,0.3-6.2,3.1-5.9,6.3c0.2,1.5,1,2.9,2.2,3.8&#10;&#9;&#9;c2.8,2.1,6.8,1.7,9.2-0.9c1.1-1.1,1.6-2.6,1.5-4.1l0,0c-0.2-1.5-1-2.9-2.2-3.8C140.6,179.5,139.2,179.1,137.7,179.1z"/>
	<path class="st0_ranking-56" d="M116.1,211.5L116.1,211.5c-14.5,1.3-27.4-9.3-28.7-23.9c0,0,0,0,0,0l4.8-7.1c0,0,10.7-11.3,8.1-18.5&#10;&#9;&#9;c0,0,15.3,8.2,25,6.6c12.5-2.2,13.2-2.4,13.2-2.4l1.5,16.5C141.3,197.3,130.7,210.2,116.1,211.5z"/>
	<path class="st1_ranking-56" d="M113.7,213.4c-14.6,0-26.7-11.1-28.1-25.6c0-0.4,0.1-0.8,0.3-1.2l4.8-7.1c0.1-0.1,0.1-0.2,0.2-0.2&#10;&#9;&#9;c2.8-2.9,9.5-11.6,7.7-16.6c-0.3-0.9,0.2-2,1.1-2.3c0.5-0.2,1-0.1,1.5,0.1c0.1,0.1,14.9,7.9,23.8,6.4c11.6-2,13-2.3,13.1-2.3&#10;&#9;&#9;c0.5-0.1,1.1,0,1.5,0.3c0.4,0.3,0.7,0.8,0.8,1.3l1.5,16.6c1.4,15.5-10,29.3-25.5,30.7l0,0C115.4,213.4,114.5,213.4,113.7,213.4z&#10;&#9;&#9; M89.3,188.1c1.6,13.3,13.4,22.9,26.7,21.6l0,0c13.5-1.3,23.4-13.2,22.2-26.7l-1.3-14.6c-2.2,0.4-6.2,1.1-11.3,2&#10;&#9;&#9;c-7.6,1.3-18-2.9-23.1-5.2c-0.4,7.1-7.6,15.1-8.9,16.5L89.3,188.1z"/>
	<rect x="92.1" y="280.2" class="st1_ranking-56" width="19.2" height="88.3"/>
	<path class="st1_ranking-56" d="M111.4,370.3H92.1c-1,0-1.8-0.8-1.8-1.8v-88.3c0-1,0.8-1.8,1.8-1.8h19.2c1,0,1.8,0.8,1.8,1.8v88.3&#10;&#9;&#9;C113.2,369.5,112.4,370.3,111.4,370.3C111.4,370.3,111.4,370.3,111.4,370.3z M93.9,366.7h15.6v-84.6H93.9V366.7z"/>
	<rect x="124.5" y="280.2" class="st1_ranking-56" width="16.7" height="88.3"/>
	<path class="st1_ranking-56" d="M141.1,370.3h-16.7c-1,0-1.8-0.8-1.8-1.8c0,0,0,0,0,0v-88.3c0-1,0.8-1.8,1.8-1.8c0,0,0,0,0,0h16.7&#10;&#9;&#9;c1,0,1.8,0.8,1.8,1.8v88.3C142.9,369.5,142.1,370.3,141.1,370.3z M126.3,366.7h13v-84.6h-13V366.7z"/>
	<rect x="93.1" y="280.1" class="st1_ranking-56" width="48.1" height="13.6"/>
	<path class="st1_ranking-56" d="M141.1,295.5H93.1c-1,0-1.8-0.8-1.8-1.8v-13.6c0-1,0.8-1.8,1.8-1.8h48.1c1,0,1.8,0.8,1.8,1.8v13.6&#10;&#9;&#9;C142.9,294.7,142.1,295.5,141.1,295.5z M94.9,291.9h44.5v-10H94.9V291.9z"/>
	<polygon class="st2_ranking-56" points="108.9,368.5 108.9,380.8 82.9,380.8 95.9,368.5 &#9;"/>
	<path class="st1_ranking-56" d="M109,382.6H82.9c-1,0-1.8-0.8-1.8-1.8c0-0.5,0.2-1,0.6-1.3l13-12.3c0.3-0.3,0.8-0.5,1.2-0.5h13&#10;&#9;&#9;c1,0,1.8,0.8,1.8,1.8v12.3C110.7,381.8,110,382.5,109,382.6z M87.4,379h19.7v-8.7H96.6L87.4,379z"/>
	<polygon class="st2_ranking-56" points="125.5,368.5 125.5,380.8 151.6,380.8 138.5,368.5 &#9;"/>
	<path class="st1_ranking-56" d="M151.6,382.6h-26.1c-1,0-1.8-0.8-1.8-1.8c0,0,0,0,0,0v-12.3c0-1,0.8-1.8,1.8-1.8c0,0,0,0,0,0h13&#10;&#9;&#9;c0.5,0,0.9,0.2,1.2,0.5l13,12.3c0.7,0.7,0.8,1.8,0.1,2.6C152.5,382.4,152,382.6,151.6,382.6L151.6,382.6z M127.3,379H147l-9.2-8.7&#10;&#9;&#9;h-10.5L127.3,379z"/>
	<path class="st4_ranking-56" d="M114.1,221.7h5.8c0.8,0,1.4,0.6,1.4,1.4v4c0,0.8-0.6,1.4-1.4,1.4h-5.8c-0.8,0-1.4-0.6-1.4-1.4v-4&#10;&#9;&#9;C112.7,222.3,113.3,221.7,114.1,221.7z"/>
	<path class="st1_ranking-56" d="M118.8,230.2h-3.6c-2.4,0-4.3-1.9-4.3-4.3v-1.8c0-2.4,1.9-4.3,4.3-4.3h3.6c2.4,0,4.3,1.9,4.3,4.3v1.8&#10;&#9;&#9;C123,228.3,121.1,230.2,118.8,230.2z M115.2,223.5c-0.4,0-0.7,0.3-0.7,0.6v1.8c0,0.4,0.3,0.6,0.7,0.6h3.6c0.4,0,0.7-0.3,0.7-0.6&#10;&#9;&#9;v-1.8c0-0.4-0.3-0.6-0.7-0.6H115.2z"/>
	<polygon class="st4_ranking-56" points="114.5,228.4 109.6,255.2 117.3,267.5 123.7,256.4 119.4,228.4 &#9;"/>
	<path class="st1_ranking-56" d="M117.3,269.3c-0.6,0-1.2-0.3-1.5-0.9l-7.7-12.3c-0.2-0.4-0.3-0.8-0.2-1.3l4.9-26.9c0.2-0.9,0.9-1.5,1.8-1.5&#10;&#9;&#9;h4.9c0.9,0,1.7,0.7,1.8,1.5l4.3,28c0.1,0.4,0,0.8-0.2,1.2l-6.4,11.1C118.5,268.9,117.9,269.3,117.3,269.3L117.3,269.3z&#10;&#9;&#9; M111.5,254.9l5.7,9.1l4.6-8l-3.9-25.9H116L111.5,254.9z"/>
	<circle class="st1_ranking-56" cx="112.7" cy="183.7" r="2.4"/>
	<circle class="st1_ranking-56" cx="133.9" cy="179.5" r="2.4"/>
	<path class="st1_ranking-56" d="M126.1,193.1L126.1,193.1c-1.1-0.1-1.9-0.9-1.8-1.9c0.1-0.9,0.8-1.6,1.7-1.7h0.1c0.7,0,1.4-0.1,2.1-0.2&#10;&#9;&#9;c-0.7-1.3-1.5-2.6-2.4-3.8c-0.7-0.8-0.6-1.9,0.2-2.6c0.8-0.7,1.9-0.6,2.6,0.2c0.1,0.1,0.1,0.1,0.2,0.2c2.6,3.4,3.7,6,3.3,7.5&#10;&#9;&#9;c-0.2,0.7-0.7,1.3-1.3,1.6C129.2,192.8,127.6,193.1,126.1,193.1z M128.4,190L128.4,190z"/>
	<path class="st1_ranking-56" d="M124,204.1c-0.2,0-0.5,0-0.7,0c-2.9-0.3-5.4-2.1-7.5-5.5c-0.5-0.8-0.3-2,0.6-2.5c0.8-0.5,2-0.3,2.5,0.6&#10;&#9;&#9;c1.5,2.4,3.1,3.6,4.7,3.8c2.4,0.3,4.6-2,4.7-2c0.7-0.7,1.8-0.8,2.6-0.1s0.8,1.8,0.1,2.6l0,0C130.8,201.1,127.9,204.1,124,204.1z"/>
	<path class="st0_ranking-56" d="M93.8,198c-5.3,0.5-9.9-3-10.4-7.9s3.5-9.1,8.8-9.6"/>
	<path class="st1_ranking-56" d="M92.8,199.9c-5.8,0-10.7-4.1-11.2-9.6c-0.3-2.9,0.7-5.7,2.7-7.8c2-2.2,4.8-3.5,7.7-3.8c1-0.1,1.9,0.6,2,1.6&#10;&#9;&#9;c0,0,0,0,0,0.1c0.1,1-0.6,1.9-1.6,2c0,0,0,0,0,0c-2,0.2-4,1.1-5.3,2.6c-1.3,1.3-1.9,3.2-1.8,5c0.3,3.8,4.1,6.6,8.4,6.2&#10;&#9;&#9;c1-0.1,1.9,0.6,2,1.6c0.1,1-0.6,1.9-1.6,2C93.6,199.9,93.2,199.9,92.8,199.9z"/>
</g>
<g id="character-3_ranking-56">
	<path class="st3_ranking-56" d="M394.9,132.9l1.5-0.6c3.5-1.3,6.8,0.3,10.1,2c8.3,4.1,13.7,13.6,16.7,22c3.5,10,5.3,20.6,8.6,30.6&#10;&#9;&#9;c3.2,9.7,1.8,20.7-2.9,29.6c-2.3,4.7-5.8,8.8-10.1,11.9c-5,3.4-9.4,3.4-15,3.1c-5-0.3-10.2,1.4-15.4,1.3&#10;&#9;&#9;c-10.7-0.2-21.1-4.1-28.1-12.4c-3.1-3.7-5.5-8.3-5.3-13.2c0.1-3.5,1.6-6.9,2.7-10.2c3.1-9.1,2-18.7,2.8-28.2&#10;&#9;&#9;c0.6-7.4,1.5-15,4.4-21.9c2.2-5.2,8.2-12.9,14.7-12.1c2.4,0.3,4.8,1.3,7.1,1c1-0.2,2-0.5,3-0.9L394.9,132.9z"/>
	<path class="st1_ranking-56" d="M388.7,234.6h-0.4c-12.1-0.2-22.6-4.8-29.5-13c-2.7-3.3-6-8.4-5.8-14.4c0.2-3.1,1-6.1,2.1-8.9&#10;&#9;&#9;c0.2-0.6,0.4-1.2,0.6-1.8c2-6,2.2-12.2,2.3-18.8c0.1-2.9,0.1-6,0.4-9c0.6-7.4,1.5-15.3,4.6-22.4c2.4-5.6,9-14.1,16.6-13.2&#10;&#9;&#9;c0.9,0.1,1.8,0.3,2.7,0.5c1.3,0.4,2.7,0.5,4,0.5c0.9-0.2,1.8-0.4,2.6-0.8l6.7-2.5c4.2-1.6,8,0.3,11.4,2&#10;&#9;&#9;c10.2,5.1,15.5,16.6,17.7,23.1c1.9,5.4,3.3,10.9,4.6,16.3c1.2,4.8,2.5,9.7,4,14.4c3.2,9.7,2.1,21.3-3,31c-2.4,5-6.1,9.3-10.6,12.5&#10;&#9;&#9;c-5.5,3.7-10.4,3.7-16.2,3.4c-2.6-0.1-5.1,0.1-7.7,0.6C393.5,234.3,391.1,234.6,388.7,234.6z M378.6,136.6c-5,0-10.2,6.5-12.1,11.1&#10;&#9;&#9;c-2.8,6.6-3.7,14.2-4.3,21.3c-0.2,2.9-0.3,5.9-0.4,8.8c-0.2,6.5-0.3,13.3-2.5,19.8c-0.2,0.6-0.4,1.3-0.7,1.9c-1,2.5-1.7,5.1-2,7.8&#10;&#9;&#9;c-0.2,4.9,2.6,9.2,4.9,12c6.2,7.4,15.7,11.6,26.8,11.7c2.3,0,4.7-0.2,7-0.7c2.8-0.5,5.6-0.7,8.5-0.7c5.2,0.3,9.3,0.4,13.9-2.8&#10;&#9;&#9;c4-2.9,7.3-6.7,9.5-11.2c4.6-8.9,5.7-19.4,2.8-28.2c-1.6-4.8-2.8-9.8-4-14.6c-1.3-5.3-2.7-10.8-4.5-16c-1.6-4.8-6.5-16.4-15.8-21&#10;&#9;&#9;c-3.2-1.6-5.9-2.9-8.6-1.9l-1.4,0.6l0,0l-5.2,2c-1.1,0.5-2.2,0.8-3.4,1c-1.8,0.1-3.6,0-5.3-0.5c-0.8-0.2-1.6-0.4-2.3-0.4&#10;&#9;&#9;C379.1,136.6,378.8,136.6,378.6,136.6L378.6,136.6z M394.9,133L394.9,133z"/>
	<path class="st0_ranking-56" d="M355,276.2h10v8.1c1,1.5,1.3,3.4,0.8,5.1c-0.8,2.8-1.9,5.3-6.2,3.6S355,283.4,355,276.2z"/>
	<path class="st1_ranking-56" d="M362.1,295.5c-1.1,0-2.1-0.3-3.1-0.7c-5.4-2.1-5.8-10.3-5.8-18.6c0-1,0.8-1.8,1.8-1.8h10c1,0,1.8,0.8,1.8,1.8&#10;&#9;&#9;c0,0,0,0,0,0v7.6c1,1.9,1.3,4.1,0.7,6.1c-0.6,1.9-1.3,4-3.3,5C363.6,295.3,362.9,295.5,362.1,295.5z M356.8,278&#10;&#9;&#9;c0,5,0.4,12.2,3.5,13.4c0.7,0.4,1.6,0.5,2.4,0.3c0.6-0.3,1-1.5,1.4-2.7c0.3-1.2,0.1-2.5-0.6-3.6c-0.2-0.3-0.3-0.6-0.3-1V278H356.8z&#10;&#9;&#9;"/>
	<path class="st0_ranking-56" d="M419.3,276.2h-10v8.1c-1,1.5-1.3,3.4-0.8,5.1c0.8,2.8,1.8,5.3,6.2,3.6S419.3,283.4,419.3,276.2z"/>
	<path class="st1_ranking-56" d="M412.2,295.5c-0.7,0-1.5-0.1-2.2-0.5c-2-1-2.7-3.1-3.3-5c-0.6-2.1-0.3-4.3,0.7-6.1v-7.6c0-1,0.8-1.8,1.8-1.8&#10;&#9;&#9;h10c1,0,1.8,0.8,1.8,1.8c0,8.3-0.5,16.5-5.8,18.6C414.3,295.2,413.2,295.4,412.2,295.5z M411,278v6.3c0,0.4-0.1,0.7-0.3,1&#10;&#9;&#9;c-0.7,1.1-0.9,2.4-0.6,3.6c0.4,1.2,0.8,2.4,1.4,2.7c0.8,0.2,1.7,0.1,2.4-0.3c3.1-1.2,3.4-8.4,3.5-13.4L411,278z"/>
	<path class="st2_ranking-56" d="M373.3,204.4H401c10.1,0,18.3,8.2,18.3,18.3v47.1c0,3.6-2.9,6.5-6.5,6.5h-51.4c-3.6,0-6.5-2.9-6.5-6.5v-47.1&#10;&#9;&#9;C355,212.6,363.2,204.4,373.3,204.4z"/>
	<path class="st1_ranking-56" d="M419.3,278H355c-1,0-1.8-0.8-1.8-1.8v-50.3c0-12.9,10.4-23.3,23.3-23.3h21.3c12.9,0,23.3,10.4,23.3,23.3v50.4&#10;&#9;&#9;C421.1,277.2,420.3,278,419.3,278z M356.8,274.4h60.6v-48.5c0-10.9-8.8-19.6-19.7-19.7h-21.3c-10.9,0-19.6,8.8-19.7,19.7V274.4z"/>
	<rect x="383.1" y="209.6" class="st5_ranking-56" width="8.8" height="46.4"/>
	<path class="st1_ranking-56" d="M391.9,257.8h-8.8c-1,0-1.8-0.8-1.8-1.8v-46.4c0-1,0.8-1.8,1.8-1.8h8.8c1,0,1.8,0.8,1.8,1.8v0V256&#10;&#9;&#9;C393.7,257,392.8,257.8,391.9,257.8z M384.9,254.1h5.1v-42.8h-5.1V254.1z"/>
	<path class="st1_ranking-56" d="M365,262.5c-1,0-1.8-0.8-1.8-1.8c0,0,0,0,0,0v-36.3c0.1-1,0.9-1.8,1.9-1.7c0.9,0.1,1.6,0.8,1.7,1.7v36.3&#10;&#9;&#9;C366.9,261.7,366.1,262.5,365,262.5C365.1,262.5,365.1,262.5,365,262.5z"/>
	<path class="st1_ranking-56" d="M409.2,262.4c-1,0-1.8-0.8-1.8-1.8v-36.1c0.1-1,0.9-1.8,1.9-1.7c0.9,0.1,1.6,0.8,1.7,1.7v36.1&#10;&#9;&#9;C411,261.6,410.2,262.4,409.2,262.4z"/>
	<rect x="365.7" y="257" class="st0_ranking-56" width="14" height="91.4"/>
	<path class="st1_ranking-56" d="M379.6,350.3h-14c-1,0-1.8-0.8-1.8-1.8c0,0,0,0,0,0V257c0-1,0.8-1.8,1.8-1.8c0,0,0,0,0,0h14&#10;&#9;&#9;c1,0,1.8,0.8,1.8,1.8c0,0,0,0,0,0v91.4C381.5,349.4,380.7,350.3,379.6,350.3C379.7,350.3,379.7,350.3,379.6,350.3z M367.5,346.6&#10;&#9;&#9;h10.4v-87.8h-10.4L367.5,346.6z"/>
	<rect x="395.8" y="257" class="st0_ranking-56" width="13.9" height="91.4"/>
	<path class="st1_ranking-56" d="M409.8,350.3h-13.9c-1,0-1.8-0.8-1.8-1.8V257c0-1,0.8-1.8,1.8-1.8h13.9c1,0,1.8,0.8,1.8,1.8c0,0,0,0,0,0v91.4&#10;&#9;&#9;C411.6,349.4,410.8,350.3,409.8,350.3C409.8,350.3,409.8,350.3,409.8,350.3z M397.6,346.6H408v-87.8h-10.4V346.6z"/>
	<rect x="365" y="256.7" class="st1_ranking-56" width="45" height="63.6"/>
	<path class="st1_ranking-56" d="M410.1,322.1h-45c-1,0-1.8-0.8-1.8-1.8c0,0,0,0,0,0v-63.5c0-1,0.8-1.8,1.8-1.8h45c1,0,1.8,0.8,1.8,1.8v63.5&#10;&#9;&#9;C411.9,321.2,411.1,322.1,410.1,322.1C410.1,322.1,410.1,322.1,410.1,322.1z M366.9,318.4h41.4v-59.9h-41.4V318.4z"/>
	<polygon class="st2_ranking-56" points="379.6,348.5 379.6,360.4 354.4,360.4 367,348.5 &#9;"/>
	<path class="st1_ranking-56" d="M379.6,362.2h-25.3c-0.7,0-1.4-0.5-1.7-1.1c-0.3-0.7-0.1-1.5,0.5-2l12.6-11.9c0.3-0.3,0.8-0.5,1.2-0.5h12.6&#10;&#9;&#9;c1,0,1.8,0.8,1.8,1.8c0,0,0,0,0,0v11.9C381.5,361.4,380.7,362.2,379.6,362.2C379.7,362.2,379.7,362.2,379.6,362.2z M358.9,358.6&#10;&#9;&#9;h18.9v-8.3h-10.1L358.9,358.6z"/>
	<polygon class="st2_ranking-56" points="395.7,348.5 395.7,360.4 421,360.4 408.4,348.5 &#9;"/>
	<path class="st1_ranking-56" d="M421,362.2h-25.3c-1,0-1.8-0.8-1.8-1.8v-11.9c0-1,0.8-1.8,1.8-1.8c0,0,0,0,0,0h12.6c0.5,0,0.9,0.2,1.2,0.5&#10;&#9;&#9;l12.6,11.9c0.7,0.7,0.8,1.8,0.1,2.6C422,362,421.5,362.2,421,362.2L421,362.2z M397.5,358.6h18.9l-8.8-8.3h-10.1L397.5,358.6z"/>
	<path class="st0_ranking-56" d="M389.9,211.2h-4.9c-1.2,0-2.1-0.9-2.1-2.1v-6.9l0,0h9l0,0v6.9C392,210.3,391.1,211.2,389.9,211.2z"/>
	<path class="st1_ranking-56" d="M388.2,213.1h-1.4c-3.1,0-5.6-2.5-5.6-5.6v-5.2c0-1,0.8-1.8,1.8-1.8c0,0,0,0,0,0h9c1,0,1.8,0.8,1.8,1.8v0v5.2&#10;&#9;&#9;C393.9,210.5,391.3,213,388.2,213.1z M384.9,204.1v3.4c0,1.1,0.9,2,2,2h1.4c1.1,0,2-0.9,2-2V204L384.9,204.1z"/>
	
		<ellipse transform="matrix(9.202299e-02 -0.9958 0.9958 9.202299e-02 156.9654 525.2615)" class="st0_ranking-56" cx="366.5" cy="176.6" rx="7.5" ry="8.2"/>
	<path class="st1_ranking-56" d="M366.6,185.9c-0.3,0-0.7,0-1,0c-5.5-0.5-9.6-5.1-9.2-10.2l0,0c0.5-5.1,5.4-8.9,10.9-8.4s9.6,5.1,9.2,10.2&#10;&#9;&#9;C376,182.3,371.7,185.9,366.6,185.9z M360.1,175.9c-0.3,3.1,2.3,6,5.9,6.3s6.6-2,6.9-5.1s-2.3-6-5.9-6.3S360.3,172.8,360.1,175.9z"/>
	<path class="st0_ranking-56" d="M387.9,203.2c14.5,1.3,27.4-9.4,28.7-23.9l-4.8-7.1c-2.7-2.8-5.6-6.5-7-10.1c-1.6-4.5-2.1-8.8-7.6-10.4&#10;&#9;&#9;c-4.1-1.1-8.5,0.5-11,3.9c-2-3.6-6.5-5.2-10.5-4.4c-4,1-7.4,3.7-9.3,7.3c-2.9,5.3-2.4,10.1-2.5,15.8c-0.1,4.8,0.3,9.3,2.4,13.8&#10;&#9;&#9;C370.4,196.6,378.6,202.3,387.9,203.2z"/>
	<path class="st1_ranking-56" d="M390.4,205.1c-0.9,0-1.7,0-2.6-0.1l0,0c-10-0.9-18.7-7.1-23-16.2c-2-4.6-2.9-9.6-2.5-14.6c0-1,0-1.9,0-2.8&#10;&#9;&#9;c0-4.6,0-9,2.7-13.8c2.1-4.1,6-7.1,10.5-8.2c4-0.8,8.1,0.4,11,3.3c3.1-2.8,7.4-3.8,11.4-2.8c5.6,1.6,6.9,5.6,8.2,9.5&#10;&#9;&#9;c0.2,0.6,0.4,1.3,0.7,2c1,2.7,3.1,5.8,6.6,9.5c0.1,0.1,0.1,0.2,0.2,0.2l4.8,7.1c0.2,0.3,0.3,0.8,0.3,1.2&#10;&#9;&#9;C417.1,194,404.9,205.1,390.4,205.1z M388.1,201.4c13.3,1.2,25.1-8.4,26.7-21.6l-4.3-6.4c-3.7-4-6.1-7.5-7.2-10.6&#10;&#9;&#9;c-0.3-0.7-0.5-1.4-0.7-2.1c-1.1-3.6-2-6.1-5.7-7.2c-3.4-0.9-6.9,0.4-9,3.2c-0.4,0.5-1,0.8-1.6,0.8c-0.6,0-1.2-0.4-1.5-0.9&#10;&#9;&#9;c-1.5-2.7-5.1-4.2-8.5-3.5c-3.5,0.9-6.4,3.2-8,6.4c-2.2,4-2.2,7.7-2.2,12c0,0.9,0,1.9,0,2.9c-0.3,4.4,0.4,8.9,2.1,13&#10;&#9;&#9;C371.8,195.2,379.3,200.5,388.1,201.4L388.1,201.4z"/>
	<circle class="st1_ranking-56" cx="393.7" cy="169.3" r="2.4"/>
	<circle class="st1_ranking-56" cx="372.5" cy="165.1" r="2.4"/>
	<path class="st1_ranking-56" d="M380.3,178.7c-1.5,0-3.1-0.3-4.5-0.8c-0.7-0.3-1.2-0.9-1.3-1.6c-0.4-1.5,0.7-4,3.3-7.5c0.6-0.8,1.7-1,2.5-0.4&#10;&#9;&#9;c0.8,0.6,1,1.7,0.4,2.5c-0.9,1.2-1.7,2.5-2.4,3.8c0.7,0.1,1.4,0.2,2.1,0.2l0,0c1,0,1.8,0.8,1.8,1.8&#10;&#9;&#9;C382.2,177.9,381.4,178.7,380.3,178.7L380.3,178.7z"/>
	<path class="st1_ranking-56" d="M382.4,189.8c-2.6-0.1-5.1-1.3-6.9-3.1c-0.7-0.7-0.7-1.9,0.1-2.6c0.7-0.7,1.9-0.7,2.6,0.1&#10;&#9;&#9;c0.1,0.1,2.2,2.2,4.7,2c1.7-0.2,3.3-1.4,4.8-3.8c0.5-0.8,1.7-1.1,2.5-0.6s1.1,1.7,0.6,2.5c-2.1,3.4-4.6,5.2-7.5,5.5L382.4,189.8z"/>
	<path class="st0_ranking-56" d="M410.3,189.7c5.3,0.5,9.9-3,10.4-7.9s-3.5-9.1-8.8-9.6"/>
	<path class="st1_ranking-56" d="M411.3,191.6c-0.4,0-0.8,0-1.1-0.1c-1-0.1-1.7-1-1.6-2c0.1-1,1-1.7,2-1.6c2,0.2,4.1-0.4,5.7-1.6&#10;&#9;&#9;c1.5-1.1,2.5-2.8,2.7-4.6c0.4-3.8-2.8-7.3-7.1-7.7c-1-0.1-1.7-1-1.6-2c0.1-1,1-1.7,2-1.6l0,0c6.3,0.6,10.9,5.8,10.4,11.6&#10;&#9;&#9;c-0.3,2.9-1.8,5.5-4.1,7.2C416.3,190.8,413.8,191.6,411.3,191.6z"/>
</g>
<g id="steps_ranking-56">
	<rect x="181.4" y="333.5" class="st6_ranking-56 targetColor" width="136.4" height="91.5" style="fill: rgb(104, 225, 253);"/>
	<path class="st1_ranking-56" d="M317.8,426.8H181.4c-1,0-1.8-0.8-1.8-1.8v-91.4c0-1,0.8-1.8,1.8-1.8h0h136.4c1,0,1.8,0.8,1.8,1.8c0,0,0,0,0,0&#10;&#9;&#9;v91.4C319.6,425.9,318.8,426.8,317.8,426.8L317.8,426.8z M183.2,423.1H316v-87.8H183.2V423.1z"/>
	<rect x="317.8" y="360.8" class="st6_ranking-56 targetColor" width="138.7" height="64.2" style="fill: rgb(104, 225, 253);"/>
	<path class="st1_ranking-56" d="M456.5,426.8H317.8c-1,0-1.8-0.8-1.8-1.8v-64.2c0-1,0.8-1.8,1.8-1.8c0,0,0,0,0,0h138.7c1,0,1.8,0.8,1.8,1.8&#10;&#9;&#9;c0,0,0,0,0,0v64.2C458.3,425.9,457.5,426.8,456.5,426.8z M319.6,423.1h135.1v-60.6H319.6V423.1z"/>
	<rect x="43.2" y="380.8" class="st6_ranking-56 targetColor" width="138.7" height="44.1" style="fill: rgb(104, 225, 253);"/>
	<path class="st1_ranking-56" d="M181.9,426.8H43.2c-1,0-1.8-0.8-1.8-1.8v-44.1c0-1,0.8-1.8,1.8-1.8h138.7c1,0,1.8,0.8,1.8,1.8V425&#10;&#9;&#9;C183.7,425.9,182.9,426.8,181.9,426.8z M45,423.1h135.1v-40.5H45V423.1z"/>
</g>
<g id="character-2_ranking-56">
	<path class="st2_ranking-56" d="M180,108.5c5.1,13.6,39.8,48,70.1,48c6.9,0,55.9,9.2,66.6,19.8c10.2,10.2-22.5,36.7-22.5,36.7l-11.3-9.6&#10;&#9;&#9;l17.1-17.8l-26.8-7.4v54.5h-48.1v-52.2c0,0-22.8-15.5-32.7-27.5c-6.2-7.5-18.2-21-24-36.5L180,108.5z"/>
	<path class="st1_ranking-56" d="M273.4,234.5h-48.1c-1,0-1.8-0.8-1.8-1.8v-51.2c-4.2-2.9-23.2-16.4-32.3-27.3l-1.7-2&#10;&#9;&#9;c-6.4-7.7-17.2-20.6-22.6-35c-0.3-0.8,0-1.6,0.7-2.1l11.5-7.9c0.5-0.3,1-0.4,1.6-0.2c0.5,0.2,1,0.6,1.2,1.1&#10;&#9;&#9;c5.1,13.6,39.5,46.8,68.4,46.8c7.1,0,56.6,9.2,67.9,20.3c1.8,1.8,2.7,4.2,2.5,6.8c-0.6,12.6-24.1,31.8-25.1,32.6&#10;&#9;&#9;c-0.7,0.6-1.6,0.6-2.3,0l-11.3-9.6c-0.8-0.7-0.8-1.8-0.2-2.6c0,0,0,0,0.1-0.1l15-15.6l-21.6-6v52.1&#10;&#9;&#9;C275.1,233.7,274.3,234.5,273.4,234.5z M227,230.9h44.5v-52.7c0-1,0.8-1.8,1.8-1.8c0.2,0,0.3,0,0.5,0.1l26.8,7.4&#10;&#9;&#9;c1,0.3,1.5,1.3,1.3,2.2c-0.1,0.3-0.2,0.6-0.4,0.8l-15.8,16.4l8.6,7.4c7.1-6,22.2-20.4,22.6-29c0.1-1.5-0.4-2.9-1.4-4&#10;&#9;&#9;c-10.1-10-58.9-19.3-65.3-19.3c-29.5,0-63.2-31.5-70.9-47.1l-8.5,5.9c5.3,13.3,15.4,25.4,21.5,32.6l1.7,2&#10;&#9;&#9;c9.7,11.7,32.1,27,32.3,27.2c0.5,0.3,0.8,0.9,0.8,1.5L227,230.9z"/>
	<path class="st3_ranking-56" d="M251.1,78.4c-13.6-0.7-27.5,3.3-33,17.1c-3.4,8.4-3.5,17.7-2.5,26.7c0.1,2.1,0.6,4.1,1.6,6&#10;&#9;&#9;c1.9,3,4.6,3.4,7.7,2.8c4-0.9,8.3-0.4,12.4-0.4h27.5c4.2,0,13.2,2.8,15.6-1.6s2.1-12.1,2.4-16.8c0.4-6.4-0.1-12.9-3-18.7&#10;&#9;&#9;C274.3,82.3,262.6,78.9,251.1,78.4z"/>
	<path class="st1_ranking-56" d="M274.4,133.2c-2,0-3.9-0.2-5.9-0.5c-1.2-0.2-2.5-0.3-3.7-0.4h-27.5c-1,0-2,0-3.1,0c-3-0.2-6,0-8.9,0.4&#10;&#9;&#9;c-4.4,0.9-7.5-0.2-9.6-3.6c-1.1-2.1-1.8-4.4-1.9-6.8c-1.2-11.3-0.4-20.1,2.6-27.6c6.8-17,24.7-18.8,34.8-18.2&#10;&#9;&#9;c15.1,0.8,25.3,6.1,30.2,16c2.6,5.3,3.6,11.5,3.2,19.6c0,0.8-0.1,1.8-0.1,2.8c-0.2,4.9-0.4,11-2.5,14.9&#10;&#9;&#9;C280.5,132.5,277.5,133.2,274.4,133.2z M231.2,128.6c1,0,2.1,0,3.1,0s2,0.1,3,0.1h27.5c1.4,0,2.8,0.2,4.2,0.4&#10;&#9;&#9;c3.6,0.5,8.6,1.1,9.9-1.1c1.7-3.1,1.9-8.9,2.1-13.2c0-1,0.1-2,0.1-2.9c0.4-7.4-0.5-13.1-2.8-17.8c-4.4-8.7-13.2-13.3-27.2-14&#10;&#9;&#9;c-9.1-0.4-25.3,1-31.2,16c-2.8,6.9-3.5,15.2-2.4,25.9c0.1,1.8,0.5,3.6,1.4,5.2c1.3,2,2.9,2.6,5.8,2&#10;&#9;&#9;C226.7,128.8,229,128.6,231.2,128.6L231.2,128.6z"/>
	<path class="st0_ranking-56" d="M251.6,162.9h-5.2c-1.3,0-2.3-1-2.3-2.3v-7.5l0,0h9.8l0,0v7.5C253.9,161.9,252.9,162.9,251.6,162.9&#10;&#9;&#9;L251.6,162.9z"/>
	<path class="st1_ranking-56" d="M249.8,164.7h-1.5c-3.3,0-6-2.7-6-6v-5.6c0-1,0.8-1.8,1.8-1.8h9.8c1,0,1.8,0.8,1.8,1.8v5.6&#10;&#9;&#9;C255.7,162,253.1,164.7,249.8,164.7z M246,155v3.8c0,1.3,1,2.3,2.3,2.3c0,0,0,0,0,0h1.5c1.3,0,2.3-1.1,2.3-2.3V155H246z"/>
	<ellipse class="st0_ranking-56" cx="275.4" cy="127.8" rx="8.9" ry="8.2"/>
	<path class="st1_ranking-56" d="M275.4,137.8c-5.9,0-10.8-4.5-10.8-10s4.8-10,10.8-10s10.8,4.5,10.8,10C286.1,133.3,281.3,137.8,275.4,137.8z&#10;&#9;&#9; M275.4,121.4c-3.9,0-7.1,2.8-7.1,6.4c0,3.5,3.2,6.4,7.1,6.4s7.1-2.9,7.1-6.4S279.3,121.4,275.4,121.4z"/>
	<ellipse class="st0_ranking-56" cx="223.2" cy="127.8" rx="8.9" ry="8.2"/>
	<path class="st1_ranking-56" d="M223.2,137.8c-5.9,0-10.8-4.5-10.8-10s4.8-10,10.8-10s10.8,4.5,10.8,10C234,133.3,229.1,137.8,223.2,137.8z&#10;&#9;&#9; M223.2,121.4c-3.9,0-7.1,2.8-7.1,6.4c0,3.5,3.2,6.4,7.1,6.4s7.1-2.9,7.1-6.4S227.1,121.4,223.2,121.4z"/>
	<path class="st0_ranking-56" d="M249,154.4c15.8,0,28.6-12.8,28.6-28.6c0,0,0,0,0,0c0.1-5,0-10-0.5-15c-0.1-1.4-0.4-2.8-0.8-4.2&#10;&#9;&#9;c-2.4-7-10.7-4.6-15.2-1.4c-3.5,2.5-7,5.7-11.3,6.2c-3.1,0.2-6.2-0.6-8.8-2.4c-5-3.2-8.2-12-15-6.9c-7,5.3-5.8,16-5.8,23.7&#10;&#9;&#9;C220.3,141.6,233.1,154.4,249,154.4C249,154.4,249,154.4,249,154.4z"/>
	<path class="st1_ranking-56" d="M249,156.2c-16.8,0-30.4-13.6-30.5-30.4c0-1,0-2,0-3c-0.1-7.5-0.3-16.9,6.5-22.1c6.1-4.6,10.3,0,13.3,3.3&#10;&#9;&#9;c1.1,1.3,2.3,2.5,3.7,3.5c2.2,1.6,4.9,2.3,7.6,2.1c3-0.4,5.7-2.3,8.5-4.4c0.7-0.5,1.3-1,2-1.5c3.2-2.3,8.5-4.5,12.8-3.1&#10;&#9;&#9;c2.5,0.8,4.4,2.8,5.2,5.3c0.5,1.5,0.8,3.1,0.9,4.6c0.4,4.5,0.6,9.1,0.5,13.6v1.6C279.5,142.6,265.8,156.3,249,156.2z M230.1,102.4&#10;&#9;&#9;c-1.1,0.1-2.1,0.5-2.9,1.2c-5.4,4-5.2,12-5.1,19.1c0,1.1,0,2.1,0,3.1c0,14.8,12,26.8,26.8,26.8s26.8-12,26.8-26.8c0,0,0,0,0,0v-1.6&#10;&#9;&#9;c0.1-4.4-0.1-8.8-0.5-13.2c-0.1-1.3-0.3-2.6-0.7-3.8c-0.4-1.4-1.5-2.6-2.9-3.1c-2.8-0.9-7,0.7-9.6,2.6c-0.6,0.5-1.3,0.9-1.9,1.4&#10;&#9;&#9;c-3,2.3-6.2,4.7-10.2,5.1c-3.5,0.3-7.1-0.6-10-2.7c-1.6-1.2-3.1-2.6-4.4-4.1C233.3,103.8,231.8,102.4,230.1,102.4L230.1,102.4z"/>
	<path class="st1_ranking-56" d="M249.2,132.4c-0.8,0-1.6-0.1-2.4-0.3c-0.7-0.2-1.3-0.7-1.6-1.4c-0.7-1.5,0.1-4.4,2.3-8.7&#10;&#9;&#9;c0.4-0.9,1.5-1.3,2.4-0.9s1.3,1.5,0.9,2.4c0,0.1-0.1,0.1-0.1,0.2c-0.8,1.6-1.5,3.3-2,5c0.9,0,1.8,0,2.7-0.2c1-0.2,1.9,0.5,2.1,1.5&#10;&#9;&#9;s-0.5,1.9-1.5,2.1C251,132.3,250.1,132.4,249.2,132.4z M248.5,129.4L248.5,129.4z"/>
	<polygon class="st1_ranking-56" points="273.2,318.9 294.3,318.9 273.4,215.8 252.3,215.8 &#9;"/>
	<path class="st1_ranking-56" d="M294.3,320.7h-21.1c-0.9,0-1.6-0.6-1.8-1.5l-21-103.1c-0.2-1,0.5-2,1.5-2.1c0.1,0,0.2,0,0.3,0h21.1&#10;&#9;&#9;c0.9,0,1.6,0.6,1.8,1.4l21,103.1c0.2,1-0.4,1.9-1.4,2.1C294.5,320.7,294.4,320.7,294.3,320.7z M274.7,317h17.4l-20.2-99.5h-17.4&#10;&#9;&#9;L274.7,317z"/>
	<polygon class="st1_ranking-56" points="227,318.9 243.3,318.9 244.1,215.8 225.2,215.8 &#9;"/>
	<path class="st1_ranking-56" d="M243.3,320.7H227c-1,0-1.8-0.8-1.8-1.8l-1.8-103.1c0-0.5,0.2-1,0.5-1.3c0.3-0.3,0.8-0.5,1.3-0.5h18.9&#10;&#9;&#9;c0.5,0,1,0.2,1.3,0.5c0.3,0.3,0.5,0.8,0.5,1.3l-0.8,103.1C245.2,319.9,244.4,320.7,243.3,320.7&#10;&#9;&#9;C243.3,320.7,243.3,320.7,243.3,320.7z M228.7,317h12.8l0.8-99.5h-15.2L228.7,317z"/>
	<rect x="225.2" y="215.6" class="st1_ranking-56" width="47.2" height="19.2"/>
	<path class="st1_ranking-56" d="M272.4,236.6h-47.2c-1,0-1.8-0.8-1.8-1.8c0,0,0,0,0,0v-19.2c0-1,0.8-1.8,1.8-1.8h47.2c1,0,1.8,0.8,1.8,1.8&#10;&#9;&#9;v19.2C274.3,235.8,273.4,236.6,272.4,236.6C272.4,236.6,272.4,236.6,272.4,236.6z M227,233h43.6v-15.6H227V233z"/>
	<polygon class="st2_ranking-56" points="273.2,318.9 276,332.8 308,332.8 290.6,318.9 &#9;"/>
	<path class="st1_ranking-56" d="M308,334.6h-32c-0.9,0-1.6-0.6-1.8-1.5l-2.8-13.9c-0.1-0.5,0-1.1,0.4-1.5c0.3-0.4,0.9-0.7,1.4-0.7h17.4&#10;&#9;&#9;c0.4,0,0.8,0.1,1.1,0.4l17.5,13.9c0.8,0.6,0.9,1.8,0.3,2.6C309.1,334.3,308.6,334.6,308,334.6L308,334.6z M277.5,330.9h25.3&#10;&#9;&#9;L290,320.7h-14.5L277.5,330.9z"/>
	<polygon class="st2_ranking-56" points="242.3,318.9 242.3,332.8 213,332.8 229.5,318.9 &#9;"/>
	<path class="st1_ranking-56" d="M242.3,334.6H213c-1,0-1.8-0.8-1.8-1.8c0-0.5,0.2-1,0.6-1.4l16.6-13.9c0.3-0.3,0.7-0.4,1.2-0.4h12.8&#10;&#9;&#9;c1,0,1.8,0.8,1.8,1.8v13.9C244.2,333.7,243.4,334.6,242.3,334.6C242.4,334.6,242.3,334.6,242.3,334.6z M217.9,330.9h22.6v-10.3&#10;&#9;&#9;h-10.3L217.9,330.9z"/>
	<line class="st7_ranking-56" x1="273.4" y1="190.3" x2="273.4" y2="172.6"/>
	<path class="st1_ranking-56" d="M273.4,192.1c-1,0-1.8-0.8-1.8-1.8c0,0,0,0,0,0v-17.7c-0.1-1,0.7-1.9,1.7-1.9c1-0.1,1.9,0.7,1.9,1.7&#10;&#9;&#9;c0,0.1,0,0.2,0,0.3v17.7C275.2,191.3,274.4,192.1,273.4,192.1C273.4,192.1,273.4,192.1,273.4,192.1z"/>
	<line class="st7_ranking-56" x1="225.2" y1="180.5" x2="225.2" y2="168.9"/>
	<path class="st1_ranking-56" d="M225.2,182.3c-1,0-1.8-0.8-1.8-1.8v-11.6c-0.1-1,0.7-1.9,1.7-1.9s1.9,0.7,1.9,1.7c0,0.1,0,0.2,0,0.3v11.6&#10;&#9;&#9;C227,181.5,226.2,182.3,225.2,182.3z"/>
	<path class="st1_ranking-56" d="M250.3,144.8c-4,0-8.8-1.4-14.3-5.4c-0.8-0.6-1-1.7-0.4-2.5s1.7-1,2.5-0.4c13.9,10.1,22,0.7,22.3,0.3&#10;&#9;&#9;c0.6-0.8,1.8-0.9,2.5-0.3c0.8,0.6,0.9,1.8,0.3,2.6C259.9,142.7,255.2,144.7,250.3,144.8z"/>
	<path class="st1_ranking-56" d="M265.7,122.6c-1,0-1.8-0.8-1.8-1.8c0,0,0,0,0,0c0-1.4-1.1-2.5-2.5-2.5s-2.5,1.1-2.5,2.5c0.1,1-0.7,1.9-1.7,1.9&#10;&#9;&#9;c-1,0.1-1.9-0.7-1.9-1.7c0-0.1,0-0.2,0-0.3c0-3.4,2.7-6.1,6.1-6.1s6.1,2.7,6.1,6.1C267.5,121.8,266.7,122.6,265.7,122.6&#10;&#9;&#9;C265.7,122.6,265.7,122.6,265.7,122.6z"/>
	<path class="st1_ranking-56" d="M241.3,122.6c-1,0-1.8-0.8-1.8-1.8c0,0,0,0,0,0c0-1.4-1.1-2.5-2.5-2.5s-2.5,1.1-2.5,2.5c0.1,1-0.7,1.9-1.7,1.9&#10;&#9;&#9;s-1.9-0.7-1.9-1.7c0-0.1,0-0.2,0-0.3c0-3.4,2.7-6.1,6.1-6.1c3.4,0,6.1,2.7,6.1,6.1C243.1,121.8,242.3,122.6,241.3,122.6z"/>
	<path class="st0_ranking-56" d="M283,203.4c0,0-8.3,5.1-9,7.9s1.3,15.9,2.7,16.6s11.4,3.9,12,0s-4.1-4.9-4.1-4.9s9.3-2.4,9.7-10L283,203.4z"/>
	<path class="st1_ranking-56" d="M285.1,231.6c-3.2-0.1-6.3-0.8-9.3-2.1c-2.7-1.5-4.2-16.1-3.5-18.6c0.8-3.3,7.7-7.7,9.8-9&#10;&#9;&#9;c0.7-0.4,1.5-0.3,2.1,0.2l11.3,9.6c0.4,0.4,0.7,0.9,0.6,1.5c-0.3,5.4-4.2,8.5-7.3,10.1c1.4,1.2,2,3.1,1.7,4.9&#10;&#9;&#9;c-0.2,1.2-1,2.3-2.1,2.8C287.4,231.4,286.3,231.6,285.1,231.6z M277.9,226.4c3,1.5,8.5,1.8,9.1,1.2c0.3-2.1-2.4-2.8-2.8-2.9&#10;&#9;&#9;c-1-0.2-1.6-1.2-1.4-2.2c0.2-0.7,0.7-1.2,1.3-1.3c0.1,0,7.3-2,8.3-7.4l-9.5-8.1c-3.6,2.4-6.8,5.1-7,6.1&#10;&#9;&#9;C275.3,213.9,276.9,224.4,277.9,226.4z M278,226.6L278,226.6z"/>
	<path class="st8_ranking-56" d="M251.5,170.4h-5.2c-0.7,0-1.2-0.6-1.2-1.2v-3.6c0-0.7,0.6-1.2,1.2-1.2h5.2c0.7,0,1.2,0.6,1.2,1.2v3.6&#10;&#9;&#9;C252.7,169.8,252.1,170.4,251.5,170.4z"/>
	<path class="st1_ranking-56" d="M250.4,172.2h-3.2c-2.2,0-4-1.8-4-4v-1.6c0-2.2,1.8-4,4-4h3.2c2.2,0,4,1.8,4.1,4v1.6&#10;&#9;&#9;C254.5,170.4,252.7,172.2,250.4,172.2z M247.2,166.2c-0.2,0-0.4,0.2-0.4,0.4c0,0,0,0,0,0v1.6c0,0.2,0.2,0.4,0.4,0.4l0,0h3.2&#10;&#9;&#9;c0.2,0,0.4-0.2,0.4-0.4v-1.6c0-0.2-0.2-0.4-0.4-0.4H247.2z"/>
	<polygon class="st8_ranking-56" points="251.1,170.4 255.5,194.6 248.6,205.6 242.8,195.6 246.6,170.4 &#9;"/>
	<path class="st1_ranking-56" d="M248.6,207.5L248.6,207.5c-0.6,0-1.2-0.4-1.5-0.9l-5.8-10c-0.2-0.4-0.3-0.8-0.2-1.2l3.8-25.3&#10;&#9;&#9;c0.1-0.9,0.9-1.5,1.8-1.5h4.4c0.9,0,1.6,0.6,1.8,1.5l4.5,24.2c0.1,0.4,0,0.9-0.2,1.3l-6.9,11.1&#10;&#9;&#9;C249.8,207.2,249.2,207.5,248.6,207.5z M244.7,195.3l4,6.9l4.9-7.9l-4.1-22.1h-1.3L244.7,195.3z"/>
	<path class="st0_ranking-56" d="M180,108.5l-2.3-7c0,0,1.8-5.5,0-7.2c-1.4-1.2-2.9-2.2-4.6-2.9c0,0-3.8-14.8-4.6-15.7s-2.9-1.4-3.7,1.9&#10;&#9;&#9;s1.5,14.2,1.5,14.2c-2.9,1.2-5.4,3.3-7.1,5.9c-2.7,4.2,9.3,18.8,9.3,18.8L180,108.5z"/>
	<path class="st1_ranking-56" d="M168.5,118.3c-0.5,0-1.1-0.2-1.4-0.7c-3.9-4.7-12.5-16.1-9.5-20.9c1.7-2.5,3.9-4.6,6.6-5.9&#10;&#9;&#9;c-0.6-3.2-1.9-10.6-1.2-13.5s2.3-3.7,3.2-3.9c1.4-0.3,2.8,0.2,3.7,1.2c0.3,0.3,1,1.2,4.8,15.6c1.5,0.8,3,1.7,4.3,2.8&#10;&#9;&#9;c2.2,2,1.2,6.5,0.7,8.5l2.1,6.5c0.2,0.8,0,1.6-0.7,2.1l-11.5,8C169.2,118.2,168.9,118.3,168.5,118.3z M167.1,76.9&#10;&#9;&#9;c-0.1,0.1-0.4,0.4-0.5,1.1c-0.5,2.1,0.7,9.3,1.5,13.4c0.2,0.9-0.3,1.7-1.1,2.1c-2.5,1.1-4.7,2.9-6.3,5.2c-1,1.5,2.8,8.6,8.1,15.4&#10;&#9;&#9;l9-6.2l-1.9-5.7c-0.1-0.4-0.1-0.8,0-1.1c0.8-2.4,0.9-4.8,0.5-5.3c-1.3-1-2.6-1.9-4.1-2.6c-0.5-0.2-0.9-0.7-1-1.2&#10;&#9;&#9;C169.7,85.6,167.7,78.5,167.1,76.9z"/>
	<path class="st0_ranking-56" d="M166.3,91.8c0,0-5.9,9.7-2.3,9.7s6.3-4.3,6.3-4.3s-2.4,4.5,0,7.7"/>
	<path class="st1_ranking-56" d="M170.3,106.7c-0.6,0-1.1-0.3-1.4-0.7c-0.8-1-1.3-2.3-1.4-3.5c-1,0.6-2.2,0.9-3.4,0.9c-1,0-2-0.5-2.6-1.4&#10;&#9;&#9;c-1.4-2.4,1.1-7.3,3.3-11.1c0.6-0.8,1.7-1,2.5-0.5c0.8,0.5,1,1.5,0.6,2.4c-1.3,2.1-2.4,4.4-3.1,6.9c1.8-0.5,3.5-2.6,4-3.4&#10;&#9;&#9;c0.6-0.8,1.7-1,2.5-0.5c0.7,0.5,1,1.4,0.6,2.2c0,0-1.8,3.5-0.2,5.7c0.6,0.8,0.5,1.9-0.3,2.5C171.1,106.5,170.7,106.6,170.3,106.7&#10;&#9;&#9;L170.3,106.7z M164.7,100.3L164.7,100.3z"/>
</g>
</svg>