<svg width="250" height="266" viewBox="0 0 250 266" fill="none" xmlns="http://www.w3.org/2000/svg">
<path d="M154.065 154.18C154.191 153.621 154.354 153.071 154.554 152.534C154.746 151.954 154.964 151.334 155.197 150.781C156.237 148.451 157.586 146.274 159.209 144.309L159.959 143.356C162.184 140.844 164.76 138.669 167.607 136.898L168.104 136.573L169.594 135.741L169.865 135.68L170.171 135.613L172.366 134.588C176.649 133.068 181.127 132.168 185.665 131.916C186.174 132.061 186.704 132.113 187.231 132.069C188.931 132.258 190.571 132.809 192.044 133.684C193.516 134.559 194.786 135.739 195.769 137.145C196.397 139.582 196.525 142.121 196.147 144.607C195.102 151.888 191.544 158.565 186.093 163.475C183.094 166.055 179.426 167.727 175.515 168.295C173.329 168.584 171.121 168.68 168.917 168.582C166.693 168.523 164.481 168.236 162.314 167.725C160.553 167.453 158.885 166.748 157.459 165.674C156.034 164.6 154.893 163.189 154.141 161.567C153.372 159.168 153.346 156.592 154.065 154.18Z" fill="#B39470"/>
<path d="M147.215 148.013C146.094 147.752 144.94 147.54 143.761 147.379C145.737 146.751 147.478 146.148 149.481 145.46C148.964 146.006 148.435 146.501 147.924 147.073C147.664 147.38 147.427 147.693 147.215 148.013Z" fill="#FFFAEB"/>
<path d="M121.985 155.41C127.278 153.291 132.87 151.978 138.554 151.519C141.099 151.343 143.65 151.458 146.154 151.861C145.702 152.988 145.355 154.148 145.117 155.33C144.457 158.321 144.572 161.406 145.451 164.315C146.465 167.48 148.47 170.254 151.199 172.268C152.342 173.123 153.584 173.852 154.901 174.441L154.775 174.848C153.591 178.512 151.735 181.958 149.297 185.022C148.404 186.132 147.428 187.178 146.375 188.152C140.509 182.82 135.368 176.802 131.069 170.234C127.775 165.45 124.743 160.502 121.985 155.41Z" fill="#FFC957"/>
<path d="M203.534 121.7C204.498 120.894 205.584 120.239 206.753 119.756C207.516 119.411 208.155 119.164 208.697 118.973C210.672 118.87 212.636 119.214 214.433 119.977C216.916 121.886 218.878 124.348 220.156 127.157C222.249 131.343 223.473 135.895 223.757 140.561C223.913 143.083 223.639 145.621 222.945 148.072C222.79 148.656 222.587 149.229 222.34 149.784C222.089 150.296 221.681 151.088 221.74 150.865L220.859 150.184L218.974 148.604C217.752 147.543 216.523 146.448 215.363 145.338C213.017 143.16 210.747 140.999 208.903 138.779C205.459 135.428 202.966 131.277 201.655 126.712C201.844 124.924 202.49 123.202 203.534 121.7Z" fill="#B39470"/>
<path d="M185.07 128.627C183.301 128.576 181.533 128.739 179.804 129.112L179.465 129.187L179.092 129.27C178.602 127.066 178.287 124.21 177.468 120.85C174.78 109.842 170.992 99.1338 166.162 88.8922C159.514 74.4373 151.317 60.7608 141.719 48.1117C141.719 48.1117 150.943 67.3438 161.915 90.9206C167.419 102.705 172.263 113.444 175.313 121.402C176.55 124.56 177.46 127.212 178.179 129.328C176.552 128.109 174.863 126.977 173.119 125.937L171.151 124.929L170.58 123.322C167.566 115.149 163.623 107.355 158.832 100.098C154.087 92.7706 148.283 86.2038 141.617 80.6194C138.87 78.2628 135.78 76.3531 132.458 74.9596C135.213 77.1437 137.741 79.6087 140.001 82.3157C145.381 88.8254 150.37 95.6559 154.942 102.77C160.216 110.486 164.566 117.721 167.823 123.248C166.834 122.791 165.81 122.414 164.762 122.122C154.77 117.377 144.458 113.367 133.907 110.122C126.936 100.032 122.144 88.5729 119.846 76.4996C117.877 67.7228 116.55 58.8145 115.876 49.8476C115.518 45.1829 115.547 40.4984 115.965 35.8438C116.181 31.3421 117.692 27.0115 120.312 23.3862C121.589 21.9003 123.382 20.9712 125.323 20.7905C127.405 20.4515 129.537 20.5558 131.583 21.0966C135.79 22.3427 139.616 24.6654 142.692 27.8406C148.863 34.1946 154.073 41.4394 158.148 49.3362C165.097 62.9205 171.143 76.9555 176.246 91.3473C182.866 108.954 185.861 122.742 187.766 128.75C186.871 128.653 185.97 128.612 185.07 128.627Z" fill="#FFFAEB"/>
<path d="M123.032 174.837C127.714 182.182 134.06 188.289 141.534 192.644C139.897 194.042 138.187 195.349 136.41 196.559C133.936 198.191 131.236 199.765 128.4 201.369C122.447 195.158 116.836 188.618 111.594 181.779C107.674 176.808 104.073 171.587 100.812 166.15C105.241 162.771 109.955 159.792 114.899 157.248C116.748 163.478 119.488 169.405 123.032 174.837Z" fill="#FFC957"/>
<path d="M93.5257 225.519C90.903 228.525 88.7745 231.94 87.2207 235.635C86.5446 237.237 86.0055 238.896 85.6094 240.594C85.0939 236.699 84.3277 232.841 83.3158 229.044C82.9465 227.383 82.7736 225.679 82.4033 223.705C82.033 221.731 81.5761 219.985 81.435 217.96L82.0336 218.489C85.5512 221.324 89.4141 223.687 93.5257 225.519Z" fill="#FFC957"/>
<path d="M20.6571 101.214C22.7383 99.5825 25.1385 98.4082 27.7023 97.7677C33.2133 96.4432 38.8712 95.8288 44.5393 95.9394C55.501 96.0819 66.4254 97.2845 77.1611 99.5303C97.6949 103.966 116.245 107.577 131.61 111.752L132.067 111.867L135.888 112.861C145.272 115.425 154.499 118.539 163.522 122.188C165.189 123.372 167.237 124.327 168.874 125.373C170.51 126.419 172.761 128.123 174.589 129.38L172.942 129.746L171.982 129.959C170.756 130.161 169.542 130.431 168.346 130.768C167.248 131.012 166.177 131.54 165.023 132.013C162.714 130.529 160.332 129.164 157.886 127.925C153.321 125.579 148.61 123.536 143.781 121.806C142.21 121.216 140.604 120.633 138.93 120.065C133.992 118.416 128.641 116.858 123.021 115.542C106.022 111.467 88.6341 109.273 71.1666 108.997C71.1666 108.997 94.087 113.48 121.756 120.053C130.843 122.225 139.255 124.44 146.508 126.623L151.458 128.161C153.327 128.794 155.325 129.362 156.801 130.009C159.303 130.899 161.481 131.789 163.353 132.601L161.124 133.748L160.096 134.302C157.78 135.735 155.632 137.426 153.693 139.341C144.741 134.619 135.159 131.222 125.242 129.255C115.361 127.176 105.295 126.12 95.202 126.102C91.0234 126.091 86.8492 126.355 82.7061 126.893C82.7061 126.893 87.4795 127.314 95.0139 128.494C102.548 129.675 112.931 131.523 124.264 133.919C133.603 135.763 142.816 138.207 151.846 141.234C151.293 141.827 150.791 142.481 150.288 143.135C147.155 144.381 143.96 145.466 140.715 146.384C139.926 146.235 139.144 146.119 138.336 146.046C131.624 145.419 124.857 146.102 118.407 148.056C116.589 148.46 114.806 149.182 113.007 149.835L111.879 150.266L109.604 151.206C104.253 151.469 98.8906 151.455 93.5394 151.164L90.6532 150.974C82.8817 150.351 75.1729 149.091 67.604 147.206C57.0441 144.713 47.0348 140.27 38.0869 134.104C35.8077 132.487 33.6707 130.676 31.6995 128.692C30.6823 127.763 29.7274 126.768 28.8409 125.713L25.9744 122.373C24.1254 120.158 22.4567 117.797 20.9844 115.313C19.5471 113.015 18.6066 110.441 18.224 107.757C18.0064 106.546 18.1175 105.3 18.5456 104.149C18.9738 102.998 19.7032 101.984 20.6571 101.214Z" fill="#FFFAEB"/>
<path d="M98.8541 220.233C95.4351 217.393 91.607 214.32 87.4718 210.991L79.6905 204.765C79.6746 203.002 79.76 201.24 79.9464 199.488C80.3101 196.311 81.0167 193.184 82.0537 190.163C83.9566 193.11 86.0515 195.928 88.3248 198.597C93.5334 204.754 99.6347 210.085 106.422 214.41C103.784 216.194 101.257 218.139 98.8541 220.233Z" fill="#FFC957"/>
<path d="M118.221 207.637C116.224 208.772 114.254 209.924 112.312 211.094C107.635 206.207 102.203 199.702 96.1904 192.684C92.8538 188.82 89.6994 185.129 86.8526 181.692C87.1115 181.242 87.3362 180.799 87.6027 180.383C88.9749 178.402 90.5044 176.533 92.1763 174.795C93.1388 173.796 94.1431 172.822 95.1208 171.891C97.5315 177.739 100.745 183.224 104.67 188.192C109.797 194.72 115.908 200.418 122.788 205.086L118.221 207.637Z" fill="#FFC957"/>
<path d="M14.2759 108.12C14.098 106.243 14.3498 104.351 15.012 102.586C15.7105 100.84 16.81 99.2831 18.2212 98.0415C20.8352 95.9335 23.886 94.4356 27.1518 93.6568C33.0326 92.2558 39.0702 91.6232 45.1141 91.7746C56.2544 92.0312 67.3415 93.4037 78.2097 95.8716C97.0985 100.407 114.529 104.335 129.147 108.639C122.617 99.2827 118.008 88.7223 115.586 77.5706C113.358 68.7095 111.841 59.6844 111.051 50.5817C110.612 45.6992 110.609 40.7874 111.041 35.9048C111.277 33.3638 111.773 30.8539 112.522 28.4148C113.258 25.6938 114.591 23.1716 116.423 21.0314C117.439 19.883 118.658 18.9322 120.019 18.2267C121.34 17.5544 122.767 17.116 124.237 16.9307C126.97 16.4927 129.764 16.6272 132.442 17.3257C137.399 18.7735 141.902 21.4703 145.52 25.1582C151.915 31.8524 157.234 39.4982 161.289 47.8232C168.125 61.5972 173.905 75.871 178.58 90.5212C184.703 109.209 188.385 122.711 189.867 128.253C191.041 128.188 192.212 128.42 193.272 128.928C195.076 129.812 196.58 131.209 197.598 132.943C196.792 130.521 196.526 127.953 196.818 125.418C196.978 124.071 197.451 122.781 198.199 121.651C198.948 120.52 199.951 119.582 201.128 118.911C202.014 118.407 202.964 118.027 203.953 117.781C205.75 116.754 207.765 116.171 209.832 116.08C212.292 115.986 214.714 116.706 216.725 118.127C217.586 118.648 218.375 119.279 219.073 120.004C220.727 121.148 222.229 122.498 223.543 124.022C227.241 128.346 229.816 133.517 231.039 139.075C231.85 142.574 231.963 146.199 231.372 149.742C231.209 150.719 230.969 151.683 230.654 152.622C230.287 153.805 229.798 154.946 229.194 156.026C228.439 157.414 227.527 158.71 226.477 159.888L223.214 163.228C221.415 162.052 219.68 161.006 217.885 159.687C217.165 159.131 216.468 158.57 215.794 158.004L214.567 156.988L212.499 155.085C211.169 153.769 209.915 152.473 208.722 151.127C206.45 148.531 204.368 145.776 202.49 142.882C201.52 141.349 200.63 139.766 199.826 138.14C200.318 140.156 200.597 142.218 200.658 144.292C200.728 148.37 200.108 152.43 198.822 156.3C198.12 158.326 197.254 160.291 196.231 162.175C200.12 164.376 203.319 167.62 205.466 171.542C207.323 170.914 209.243 170.488 211.191 170.269C213.034 169.903 214.908 169.714 216.787 169.705C218.264 169.591 219.665 169.781 219.525 170.922C220.818 173.678 215.388 174.348 214.086 175.891L214.767 175.095L213.711 175.652C213.064 175.848 212.404 175.995 211.735 176.092C207.449 177.725 202.534 178.138 202.28 175.545C199.638 174.238 197.141 172.657 194.83 170.829C193.597 170.173 192.439 169.386 191.376 168.482C188.256 171.711 184.405 174.14 180.148 175.562L180.614 175.888C181.213 178.583 183.9 185.038 182.273 187.692C181.913 188.202 181.445 188.627 180.902 188.934C180.36 189.242 179.755 189.425 179.133 189.471C178.51 189.517 177.886 189.425 177.303 189.2C176.721 188.976 176.195 188.624 175.764 188.172C174.036 184.696 172.88 180.963 172.341 177.119L168.535 177.213C167.333 177.306 166.123 177.262 164.93 177.084L165.866 177.592C166.75 182.372 162.259 190.316 160.148 194.653C159.276 196.802 158.202 198.863 156.939 200.808C157.608 200.953 158.253 201.196 158.851 201.529L159.192 201.453L159.007 201.745L159.389 202.018C160.18 202.938 160.671 204.078 160.796 205.285C162.603 208.75 162.072 216.494 162.02 218.51C162.08 221.372 161.488 224.21 160.289 226.808C158.458 231.117 153.909 236.712 149.539 235.07C149.349 234.988 149.17 234.884 149.005 234.759C148.661 234.787 148.316 234.728 148.001 234.588C146.271 233.72 145.959 230.066 145.598 227.962C145.31 226.666 145.044 225.472 144.839 224.551C144.464 222.722 144.254 220.864 144.212 218.998C144.212 218.998 144.167 218.793 144.144 218.691C144.121 218.588 144.03 218.179 143.97 217.906C143.91 215.461 144.109 213.016 144.565 210.613C144.95 207.764 146.045 205.057 147.75 202.744C148.239 202.198 148.812 201.732 149.446 201.365C148.868 199.495 148.808 197.503 149.273 195.603L148.323 195.349C146.15 198.122 143.695 200.66 140.995 202.922L140.382 203.38L140.485 205.935C140.919 208.089 140.988 210.301 140.688 212.478L140.636 213.205C140.062 218.345 138.38 224.448 135.147 226.313L135.2 226.551C137.112 235.148 122.566 240.818 121.075 243.44C121.755 238.134 127.822 230.519 132.886 226.923C132.126 226.951 131.37 226.8 130.679 226.483C126.732 224.818 126.222 216.733 127.144 213.162C127.251 212.873 127.38 212.593 127.53 212.325C125.698 213.412 123.892 214.458 122.011 215.485L118.289 217.566L115.874 218.927C112.153 221.007 108.663 223.001 105.509 225.063C104.786 225.51 104.029 225.965 103.348 226.438C102.666 226.912 101.966 227.462 101.258 227.977C97.3241 230.759 93.8404 234.13 90.9289 237.972C88.6494 241.202 86.8724 244.76 85.6586 248.524C85.4846 249.028 85.3712 249.483 85.2502 249.904C84.971 252.471 84.4056 254.998 83.5645 257.439C82.604 251.351 82.3516 245.071 81.7773 238.79C80.9504 235.071 79.3354 230.382 77.296 224.749C75.4356 219.742 73.9464 214.604 72.8407 209.378C72.1687 205.909 71.8514 202.381 71.8936 198.848L71.9463 198.12C72.1479 192.874 73.2207 187.699 75.1208 182.807C75.5369 181.783 75.9947 180.787 76.4525 179.79C77.2028 178.141 78.0388 176.533 78.9572 174.972L79.9449 173.464C81.3426 171.461 82.8953 169.572 84.5886 167.812C86.7317 165.602 89.0205 163.538 91.4397 161.635C93.0143 160.354 94.6534 159.201 96.2736 158.125C98.4324 156.669 100.664 155.325 102.959 154.096C100.263 154.195 97.5102 154.198 94.7006 154.107C93.3715 154.08 92.0084 154.061 90.6301 153.974C82.6729 153.573 74.7641 152.493 66.9897 150.746C55.9037 148.384 45.3704 143.921 35.9579 137.597C33.5185 135.9 31.2114 134.019 29.0566 131.972C27.9523 130.926 26.9065 129.82 25.9239 128.658C24.9541 127.514 23.9729 126.479 22.988 125.266C20.9696 122.886 19.1488 120.345 17.5438 117.669C15.7852 114.756 14.6709 111.5 14.2759 108.12ZM208.762 138.122C210.694 140.377 212.838 142.621 215.16 144.862C216.308 146.003 217.524 147.129 218.732 148.22L220.596 149.847L221.467 150.548C221.513 150.753 221.804 149.972 222.046 149.453C222.284 148.889 222.478 148.307 222.625 147.713C223.284 145.222 223.531 142.639 223.356 140.068C223.036 135.312 221.795 130.663 219.704 126.38C218.425 123.506 216.478 120.981 214.025 119.014C212.255 118.221 210.324 117.853 208.387 117.941C207.842 118.062 207.232 118.377 206.486 118.721C205.343 119.203 204.283 119.861 203.344 120.673C202.327 122.162 201.689 123.877 201.487 125.669C202.815 130.371 205.319 134.657 208.762 138.122ZM176.422 91.1085C171.168 76.8567 164.962 62.9742 157.847 49.5551C153.778 41.7377 148.569 34.5703 142.39 28.2888C139.311 25.1499 135.476 22.8584 131.255 21.6354C129.202 21.1053 127.061 21.0083 124.969 21.3506C123.02 21.5355 121.217 22.462 119.931 23.939C117.288 27.5411 115.758 31.8393 115.528 36.3033C115.095 40.9194 115.051 45.564 115.397 50.1879C116.047 59.0762 117.353 67.9046 119.304 76.6006C121.576 88.5641 126.354 99.9112 133.324 109.894C143.91 113.08 154.252 117.026 164.272 121.701C165.324 121.987 166.351 122.357 167.343 122.808C164.088 117.338 159.606 110.207 154.469 102.542C149.899 95.5027 144.909 88.7454 139.526 82.3073C137.265 79.6301 134.734 77.1936 131.973 75.0363C135.305 76.4081 138.403 78.2923 141.154 80.6206C147.831 86.1376 153.64 92.631 158.383 99.8818C163.173 107.063 167.109 114.779 170.111 122.873L170.68 124.465L172.653 125.458C174.401 126.483 176.094 127.601 177.724 128.805C177.008 126.709 176.102 124.082 174.87 120.955C171.83 113.074 167.168 102.403 161.507 90.7736C150.558 67.4305 141.345 48.3558 141.353 48.3899C151.134 60.8631 159.502 74.3841 166.303 88.7044C171.142 98.8012 174.941 109.365 177.641 120.231C178.4 123.643 178.999 126.338 179.246 128.574L179.621 128.491L179.962 128.415C181.699 128.04 183.475 127.874 185.252 127.919C186.165 127.935 187.077 128.007 187.982 128.135C186.007 122.309 183.04 108.648 176.422 91.1085ZM161.912 167.05C164.086 167.56 166.307 167.846 168.539 167.904C170.751 168 172.967 167.903 175.161 167.613C179.087 167.041 182.77 165.366 185.781 162.781C191.255 157.862 194.83 151.175 195.883 143.886C196.264 141.396 196.137 138.854 195.509 136.415C194.523 135.008 193.249 133.828 191.771 132.952C190.294 132.077 188.648 131.527 186.942 131.338C186.413 131.382 185.881 131.331 185.37 131.187C180.815 131.441 176.32 132.345 172.02 133.869L169.817 134.896L169.51 134.964L169.238 135.025L167.742 135.859L167.243 136.185C164.384 137.959 161.797 140.138 159.562 142.654L158.809 143.609C157.179 145.577 155.824 147.758 154.779 150.091C154.545 150.644 154.325 151.266 154.132 151.846C153.931 152.383 153.767 152.934 153.641 153.495C152.999 155.834 153.053 158.311 153.795 160.621C154.496 162.306 155.608 163.787 157.031 164.929C158.453 166.07 160.14 166.835 161.935 167.153L161.912 167.05ZM148.866 144.89C147.265 145.568 145.588 146.227 143.801 146.875C144.896 147.194 145.973 147.576 147.024 148.02C147.189 147.622 147.378 147.234 147.587 146.857C147.988 146.087 148.427 145.489 148.851 144.821L148.866 144.89ZM149.197 185.452C151.581 182.301 153.383 178.747 154.517 174.96L154.638 174.54C153.326 173.914 152.087 173.145 150.945 172.246C148.219 170.129 146.202 167.23 145.163 163.937C144.261 160.911 144.114 157.711 144.735 154.616C144.959 153.393 145.29 152.193 145.726 151.03C143.24 150.585 140.711 150.439 138.191 150.593C132.562 151.009 127.035 152.31 121.812 154.451C124.645 159.753 127.749 164.907 131.11 169.89C135.441 176.747 140.601 183.044 146.472 188.636C147.454 187.62 148.359 186.533 149.182 185.384L149.197 185.452ZM81.0608 217.718C81.5084 219.731 81.7439 221.755 82.0514 223.62C82.3589 225.485 82.8784 227.339 82.9851 229.105C84.0267 233.004 84.8125 236.968 85.3375 240.97C85.7545 239.224 86.32 237.517 87.028 235.868C88.655 232.066 90.8792 228.55 93.6161 225.452C89.3444 223.581 85.3328 221.164 81.682 218.26L81.0608 217.718ZM82.0872 190.172C81.0458 193.179 80.3348 196.29 79.9667 199.451C79.7779 201.195 79.6901 202.948 79.7038 204.701L87.4799 210.884C91.7827 214.152 95.4606 217.344 98.8544 220.062C101.261 217.977 103.792 216.039 106.433 214.26C99.6487 209.967 93.5521 204.672 88.3496 198.554C86.1056 195.87 84.0426 193.04 82.1742 190.082L82.0872 190.172ZM94.4691 171.558C93.4622 172.498 92.463 173.472 91.5395 174.465C89.8761 176.205 88.3548 178.076 86.9904 180.06C86.7255 180.477 86.5023 180.92 86.245 181.371C89.0862 184.821 92.2343 188.524 95.5642 192.403C101.565 199.446 107.088 205.951 111.653 210.879C113.581 209.686 115.542 208.534 117.536 207.423L122.253 204.834C115.392 200.145 109.294 194.424 104.177 187.874C100.226 182.878 96.9878 177.356 94.5561 171.467L94.4691 171.558ZM100.488 166.461C103.756 171.853 107.367 177.029 111.3 181.957C116.56 188.736 122.192 195.217 128.169 201.37C131.031 199.767 133.757 198.194 136.255 196.565C138.1 195.373 139.878 194.081 141.582 192.695C134.065 188.392 127.692 182.343 122.998 175.06C119.366 169.63 116.563 163.689 114.679 157.433C109.776 159.995 105.103 162.975 100.711 166.339L100.488 166.461ZM21.5261 115.315C22.9868 117.775 24.6428 120.112 26.4779 122.305L29.3229 125.611C30.2027 126.656 31.1505 127.641 32.1602 128.56C34.1168 130.524 36.2382 132.316 38.5009 133.917C47.3843 140.018 57.3229 144.412 67.8098 146.876C75.3263 148.738 82.9821 149.981 90.7006 150.593L93.5671 150.779C98.8819 151.064 104.208 151.074 109.523 150.81L111.784 149.878L112.904 149.45C114.691 148.802 116.486 148.188 118.269 147.684C124.676 145.745 131.398 145.065 138.064 145.681C138.867 145.753 139.643 145.867 140.427 146.015C143.65 145.103 146.824 144.026 149.937 142.79C150.437 142.142 150.936 141.493 151.485 140.906C142.518 137.913 133.369 135.499 124.094 133.679C112.84 131.312 102.563 129.481 95.0461 128.324C87.5295 127.167 82.8303 126.78 82.8227 126.746C86.9381 126.211 91.0843 125.946 95.2345 125.955C105.259 125.966 115.256 127.005 125.07 129.058C134.917 131 144.433 134.359 153.321 139.03C155.248 137.132 157.383 135.456 159.684 134.035L160.706 133.485L162.921 132.348C161.061 131.544 158.967 130.65 156.414 129.785C154.778 129.182 152.964 128.583 151.109 127.958L146.193 126.437C138.991 124.28 130.637 122.092 121.613 119.945C94.1352 113.453 71.3463 109.069 71.3728 109.028C88.7219 109.289 105.991 111.452 122.872 115.477C128.454 116.777 133.767 118.317 138.671 119.947C140.333 120.508 141.928 121.084 143.488 121.668C148.283 123.378 152.961 125.399 157.493 127.719C159.922 128.946 162.287 130.296 164.579 131.765C165.658 131.31 166.744 130.889 167.88 130.529C169.068 130.194 170.274 129.926 171.492 129.726L172.446 129.514L174.082 129.15C172.245 127.804 170.359 126.398 168.408 125.185C166.458 123.971 164.75 123.206 163.094 122.034C154.136 118.425 144.973 115.346 135.654 112.813L131.859 111.831L131.405 111.717C116.182 107.584 97.7248 104.027 77.3328 99.6468C66.6712 97.4292 55.8215 96.2451 44.9341 96.111C39.3044 96.0051 33.6845 96.6172 28.2099 97.9327C25.663 98.5688 23.2783 99.7333 21.2101 101.351C20.3582 102.102 19.7086 103.056 19.3213 104.124C18.934 105.192 18.8214 106.341 18.9937 107.465C19.3438 110.21 20.2839 112.847 21.7495 115.194L21.5261 115.315Z" fill="#403612"/>
<path d="M151.366 236.854L151.445 237.211C151.497 240.529 147.132 242.472 145.227 244.692C141.993 248.251 138.964 252.023 136.156 255.988C136.213 250.849 140.711 243.339 142.974 238.72C144.427 235.703 149.001 233.002 151.366 236.854Z" fill="#403612"/>
<path d="M185.58 191.226C187.606 191.929 193.826 194.007 194.567 196.186C194.487 197.563 194.053 198.901 193.305 200.072C191.683 201.19 190.567 199.636 189.095 198.953C185.338 197.229 181.945 194.342 178.397 192.571C179.218 191.51 180.407 190.785 181.735 190.536C183.062 190.288 184.433 190.533 185.58 191.226Z" fill="#403612"/>
<path d="M197.181 197.37C197.592 197.931 197.122 198.072 197.115 198.364L198.14 198.462C198.925 201.643 199.066 204.948 198.553 208.178C198.04 211.409 196.884 214.497 195.156 217.257C194.687 212.563 194.499 207.845 194.593 203.131C194.322 200.943 193.93 197.73 197.181 197.37Z" fill="#403612"/>
<path d="M217.994 175.846L218.129 176.453C219.436 178.734 220.149 181.272 220.217 183.885C220.286 186.497 219.708 189.122 218.525 191.571C217.421 186.606 214.591 181.812 213.944 177.1C215.421 176.17 216.875 174.96 217.994 175.846Z" fill="#403612"/>
<path d="M140.141 154.744C139.682 158.082 139.838 161.518 140.6 164.85C139.433 165.085 138.222 165.038 137.05 164.711C135.878 164.384 134.772 163.785 133.809 162.955C132.846 162.125 132.047 161.084 131.469 159.902C130.89 158.721 130.544 157.427 130.456 156.11C133.568 154.876 136.914 154.4 140.27 154.715L140.141 154.744Z" fill="#FFFFAD"/>
<path d="M114.149 165.743C117.543 169.825 116.061 179.107 110.383 172.645C106.629 168.426 109.595 164.662 114.829 164.689L114.149 165.743Z" fill="#FFFFAD"/>
<path d="M93.9305 179.326C96.3779 181.394 97.9577 184.349 98.3346 187.567C92.0189 188.971 87.6097 178.753 94.9911 180.023L93.9305 179.326Z" fill="#FFFFAD"/>
<path d="M83.9403 197.939C86.8112 200.856 89.3613 204.038 91.5541 207.439C86.0182 209.47 83.369 204.288 81.778 200.331C82.4617 199.958 83.2242 199.735 84.005 199.682C84.7857 199.629 85.5632 199.747 86.2757 200.027L83.9403 197.939Z" fill="#FFFFAD"/>
<path d="M86.2387 224.83C87.127 226.871 88.5008 227.721 86.4756 230.157C85.729 229.833 85.0778 229.354 84.5707 228.758C84.0635 228.161 83.7134 227.461 83.5465 226.71C83.3795 225.96 83.4001 225.178 83.6066 224.422C83.813 223.667 84.2001 222.958 84.7389 222.348C85.9673 222.544 85.9168 223.205 86.9882 223.761L86.2387 224.83Z" fill="#FFFFAD"/>
<path d="M206.405 127.96C208.244 131.434 211.624 133.246 213.999 132.022C216.373 130.798 216.737 126.981 214.891 123.472C213.045 119.963 209.664 118.15 207.333 119.402C205.001 120.653 204.52 124.276 206.405 127.96Z" fill="#FFF3D2"/>
<path d="M160.268 152.026C162.099 155.804 169.682 155.513 177.202 151.438C184.722 147.363 189.324 140.992 187.501 137.25C185.678 133.509 178.087 133.763 170.566 137.838C163.046 141.914 158.444 148.285 160.268 152.026Z" fill="#FFF3D2"/>
</svg>
