<svg width="243" height="228" viewBox="0 0 243 228" fill="none" xmlns="http://www.w3.org/2000/svg">
<path id="missonArrow1" d="M100.728 19.2579L99.3839 19.924L100.728 19.2579ZM6.81738 156.141L8.31585 156.074L8.30896 155.921L8.27158 155.773L6.81738 156.141ZM239.405 175.405C239.233 174.595 238.436 174.078 237.626 174.25L224.422 177.063C223.612 177.236 223.095 178.033 223.267 178.843C223.44 179.653 224.237 180.17 225.047 179.998L236.784 177.497L239.284 189.234C239.457 190.044 240.253 190.561 241.064 190.388C241.874 190.216 242.391 189.419 242.218 188.609L239.405 175.405ZM1.5767 25.0776C2.42684 24.5897 3.30922 24.0942 4.22144 23.5933L2.77753 20.9637C1.84916 21.4734 0.950282 21.9782 0.0833344 22.4757L1.5767 25.0776ZM9.59797 20.7598C11.3479 19.8739 13.1724 18.984 15.0591 18.1009L13.7874 15.3838C11.8725 16.2801 10.0202 17.1835 8.24299 18.0832L9.59797 20.7598ZM20.6066 15.6064C22.443 14.814 24.3216 14.0363 26.2329 13.2817L25.1312 10.4913C23.1897 11.2579 21.2821 12.0475 19.418 12.8519L20.6066 15.6064ZM31.921 11.1432C33.8221 10.4648 35.7443 9.81583 37.6788 9.20389L36.774 6.34359C34.8029 6.96709 32.8462 7.62772 30.9127 8.3177L31.921 11.1432ZM43.4988 7.48981C45.46 6.95628 47.4241 6.46801 49.3822 6.03252L48.7309 3.10407C46.7241 3.55039 44.7145 4.05006 42.7113 4.59501L43.4988 7.48981ZM55.3144 4.8779C57.328 4.5446 59.3239 4.27689 61.2924 4.08296L60.9983 1.09741C58.9589 1.29832 56.8975 1.57503 54.8245 1.91817L55.3144 4.8779ZM67.2915 3.72729C69.331 3.69211 71.3247 3.75163 73.261 3.91526L73.5136 0.925912C71.4665 0.752919 69.3707 0.690978 67.2397 0.727739L67.2915 3.72729ZM79.1252 4.77899C81.0901 5.20523 82.9694 5.76599 84.7499 6.47233L85.8562 3.68375C83.9091 2.91133 81.8711 2.30488 79.7611 1.84718L79.1252 4.77899ZM89.9246 9.13169C91.5343 10.1803 93.0291 11.398 94.3945 12.7999L96.5437 10.7068C95.019 9.14139 93.3516 7.78371 91.5621 6.618L89.9246 9.13169ZM97.9614 17.3686C98.465 18.1767 98.9398 19.0279 99.3839 19.924L102.072 18.5919C101.586 17.6107 101.064 16.6745 100.508 15.7819L97.9614 17.3686ZM99.3839 19.924C99.7861 20.7356 100.091 21.5525 100.306 22.3756L103.208 21.6176C102.94 20.5916 102.563 19.5826 102.072 18.5919L99.3839 19.924ZM100.558 27.552C100.32 29.2056 99.7968 30.926 99.0022 32.7169L101.744 33.9336C102.628 31.9414 103.243 29.9546 103.527 27.9794L100.558 27.552ZM96.2924 37.5963C95.3069 39.0948 94.1717 40.625 92.9015 42.1866L95.2288 44.0796C96.5511 42.454 97.7486 40.842 98.799 39.2446L96.2924 37.5963ZM89.1451 46.4897C87.8849 47.8479 86.5428 49.2243 85.1289 50.6188L87.2356 52.7547C88.6759 51.334 90.0495 49.9257 91.3442 48.5303L89.1451 46.4897ZM80.9433 54.6151C79.5565 55.9015 78.1209 57.2013 76.6441 58.5143L78.6375 60.7562C80.1273 59.4317 81.5788 58.1176 82.9835 56.8145L80.9433 54.6151ZM72.2686 62.3457C70.82 63.5975 69.3428 64.8601 67.8433 66.1337L69.7853 68.4203C71.2894 67.1429 72.7734 65.8744 74.2301 64.6156L72.2686 62.3457ZM63.3892 69.8983C61.9089 71.1453 60.4293 72.3891 58.9262 73.6551L60.8588 75.9497C62.3504 74.6933 63.8502 73.4325 65.3219 72.1928L63.3892 69.8983ZM54.4699 77.4198C52.9894 78.6757 51.5063 79.9406 50.0264 81.2142L51.9832 83.4881C53.4565 82.2203 54.9341 80.96 56.4106 79.7074L54.4699 77.4198ZM45.6106 85.0527C44.1428 86.3431 42.6835 87.6422 41.2384 88.9496L43.2511 91.1742C44.6843 89.8776 46.1329 88.5881 47.5914 87.3058L45.6106 85.0527ZM36.9267 92.9202C35.4938 94.2651 34.0811 95.6188 32.6945 96.9811L34.797 99.1211C36.1657 97.7764 37.5618 96.4385 38.9798 95.1076L36.9267 92.9202ZM28.5634 101.151C27.1925 102.576 25.8556 104.01 24.5592 105.453L26.7909 107.458C28.0623 106.042 29.3758 104.634 30.7251 103.231L28.5634 101.151ZM20.7064 109.92C19.4354 111.46 18.2165 113.011 17.0575 114.571L19.4661 116.36C20.5919 114.844 21.7789 113.334 23.0201 111.83L20.7064 109.92ZM13.6705 119.435C12.5742 121.124 11.5547 122.826 10.6222 124.539L13.2574 125.973C14.1498 124.333 15.1289 122.698 16.1868 121.068L13.6705 119.435ZM8.01419 129.908C7.21804 131.775 6.53347 133.657 5.97345 135.554L8.85068 136.403C9.37534 134.626 10.0195 132.853 10.7738 131.084L8.01419 129.908ZM4.65613 141.444C4.35478 143.443 4.20212 145.455 4.21228 147.48L7.21224 147.465C7.20289 145.601 7.34331 143.744 7.62259 141.892L4.65613 141.444ZM4.73247 153.515C4.90057 154.511 5.11034 155.51 5.36318 156.509L8.27158 155.773C8.03845 154.852 7.84531 153.933 7.69067 153.016L4.73247 153.515ZM5.31892 156.209C5.36639 157.259 5.45361 158.302 5.57955 159.338L8.55765 158.976C8.44078 158.015 8.35988 157.047 8.31585 156.074L5.31892 156.209ZM6.78885 165.463C7.33534 167.456 8.02456 169.418 8.84772 171.344L11.6065 170.166C10.8347 168.359 10.1911 166.526 9.68203 164.67L6.78885 165.463ZM11.639 176.897C12.6609 178.659 13.7958 180.388 15.0362 182.081L17.4562 180.308C16.2756 178.696 15.1998 177.057 14.2342 175.392L11.639 176.897ZM18.9252 186.892C20.2683 188.407 21.6977 189.889 23.2075 191.337L25.2841 189.172C23.8297 187.777 22.4568 186.353 21.1702 184.902L18.9252 186.892ZM27.7753 195.413C29.3203 196.698 30.9307 197.953 32.6022 199.175L34.3731 196.754C32.7499 195.567 31.189 194.351 29.6941 193.107L27.7753 195.413ZM37.6477 202.649C39.3416 203.747 41.0868 204.816 42.8796 205.853L44.3819 203.256C42.6316 202.244 40.9299 201.202 39.2801 200.132L37.6477 202.649ZM48.2298 208.783C50.0132 209.707 51.8364 210.603 53.6962 211.468L54.9616 208.748C53.1396 207.9 51.3548 207.024 49.6104 206.12L48.2298 208.783ZM59.286 213.932C61.1486 214.709 63.0426 215.458 64.9653 216.176L66.0152 213.366C64.1272 212.66 62.2684 211.926 60.4414 211.163L59.286 213.932ZM70.6946 218.199C72.61 218.838 74.5498 219.447 76.5117 220.026L77.3613 217.149C75.4323 216.579 73.5253 215.98 71.6431 215.353L70.6946 218.199ZM82.3873 221.655C84.3382 222.16 86.3076 222.637 88.2933 223.084L88.9516 220.157C86.9974 219.717 85.0595 219.248 83.1403 218.751L82.3873 221.655ZM94.2593 224.325C96.2449 224.705 98.2442 225.056 100.255 225.375L100.726 222.412C98.7461 222.098 96.7781 221.753 94.8235 221.379L94.2593 224.325ZM106.276 226.235C108.286 226.49 110.305 226.714 112.331 226.906L112.615 223.919C110.62 223.73 108.632 223.51 106.654 223.259L106.276 226.235ZM118.396 227.384C120.419 227.511 122.447 227.606 124.477 227.669L124.569 224.67C122.571 224.609 120.575 224.515 118.584 224.39L118.396 227.384ZM130.565 227.756C132.595 227.752 134.625 227.714 136.653 227.642L136.547 224.644C134.552 224.715 132.555 224.752 130.559 224.756L130.565 227.756ZM142.735 227.323C144.762 227.181 146.785 227.004 148.802 226.791L148.488 223.808C146.506 224.017 144.518 224.191 142.526 224.33L142.735 227.323ZM154.853 226.042C156.866 225.754 158.871 225.43 160.866 225.068L160.33 222.116C158.373 222.471 156.405 222.79 154.429 223.072L154.853 226.042ZM166.845 223.86C168.834 223.417 170.811 222.934 172.772 222.412L172 219.513C170.079 220.025 168.142 220.497 166.193 220.932L166.845 223.86ZM178.628 220.717C180.576 220.107 182.507 219.455 184.418 218.761L183.394 215.941C181.526 216.62 179.637 217.257 177.731 217.854L178.628 220.717ZM190.108 216.542C191.99 215.756 193.85 214.926 195.686 214.051L194.395 211.343C192.604 212.196 190.789 213.006 188.952 213.774L190.108 216.542ZM201.139 211.279C202.933 210.308 204.699 209.29 206.437 208.225L204.87 205.667C203.179 206.704 201.458 207.695 199.711 208.641L201.139 211.279ZM211.566 204.884C213.242 203.724 214.886 202.516 216.497 201.26L214.651 198.895C213.087 200.116 211.488 201.29 209.859 202.417L211.566 204.884ZM221.213 197.35C222.742 196.005 224.235 194.61 225.689 193.166L223.575 191.037C222.164 192.439 220.715 193.792 219.231 195.098L221.213 197.35ZM229.898 188.725C231.253 187.205 232.569 185.636 233.843 184.017L231.486 182.161C230.25 183.732 228.973 185.254 227.659 186.729L229.898 188.725ZM237.475 179.101C238.06 178.257 238.633 177.402 239.196 176.534L236.68 174.901C236.133 175.743 235.576 176.574 235.009 177.392L237.475 179.101Z" fill="black"/>
</svg>
