<svg width="254" height="109" viewBox="0 0 254 109" fill="none" xmlns="http://www.w3.org/2000/svg">
<path d="M0.571747 52.5349C0.48338 51.9089 1.71155 51.0544 1.97607 51.8259C5.53754 62.6829 12.0517 72.6037 21.0372 80.8552C30.0226 89.1068 41.2497 95.4781 53.8886 99.4983C71.5971 105.513 94.2 106.877 113.048 100.386C108.03 98.2958 103.729 95.2459 100.482 91.4745C96.561 86.9954 94.7239 81.4403 95.2853 75.7614C95.8466 70.0824 98.7714 64.6332 103.558 60.3477C112.765 52.0669 127.387 49.4496 136.917 57.4272C140.825 60.9633 143.358 65.4112 144.214 70.2412C145.071 75.0713 144.215 80.08 141.748 84.6708C139.128 89.3702 135.217 93.5427 130.341 96.838C144.572 97.4921 158.932 94.3157 171.289 87.7805C182.417 82.2575 192.145 74.9238 199.843 66.2542C206.555 57.9787 211.824 49.0036 215.484 39.6118L196.938 39.42C194.025 39.3629 195.688 36.4462 197.12 35.5631C198.551 34.6799 199.288 34.0224 200.432 33.3076C197.882 31.4113 202.334 26.5686 204.93 28.4159C205.493 28.6754 206.096 28.8761 206.726 29.0137C217.717 21.0383 227.357 11.8651 235.355 1.77254C236.282 0.620068 239.398 -0.45826 239.833 1.52362C241.183 7.46827 243.013 13.3107 245.31 19.0128C247.571 24.7385 250.763 30.0774 253.323 35.7184C254.284 37.7537 249.487 41.6235 247.8 39.2224C246.269 36.9007 244.94 34.4853 243.823 31.9936L244.559 37.2108C244.594 37.4612 244.268 37.7202 244.043 37.9647C244.857 37.8499 244.214 39.1751 243.445 39.2411C237.112 39.5815 230.744 39.6715 224.415 39.6709C218.302 69.864 180.74 97.77 145.231 103.463C136.476 104.952 127.531 104.665 119.175 102.628C100.669 109.106 80.3732 110.211 61.7233 105.757C46.598 102.185 33.0414 95.421 22.3392 86.1067C11.6371 76.7923 4.14435 65.2363 0.571747 52.5349ZM242.781 37.8449C241.338 32.7699 239.998 27.6806 238.651 22.5495L236.755 30.4369C236.447 31.9278 232.129 34.4104 231.775 31.9061L231.439 29.527L230.29 35.351C230.088 35.9176 229.715 36.4394 229.207 36.8661C233.857 37.1036 238.304 37.3699 242.781 37.8449ZM123.192 95.8038C123.869 95.4529 124.557 95.1854 125.177 94.7999C136.522 87.7071 142.047 75.3911 134.282 65.5892C132.489 63.1697 129.808 61.3067 126.603 60.2528C123.397 59.1989 119.822 59.0051 116.363 59.6979C112.904 60.3906 109.728 61.9363 107.266 64.1253C104.804 66.3142 103.175 69.0404 102.6 71.9341C99.7965 83.3127 111.121 92.6121 123.192 95.8038Z" fill="#5A4522"/>
</svg>
