<svg width="205" height="215" viewBox="0 0 205 215" fill="none" xmlns="http://www.w3.org/2000/svg">
<g clip-path="url(#clip0_28_131)">
<path d="M151.494 12.1989C151.021 11.7792 149.788 12.1523 150.303 12.7786C157.62 21.4795 162.887 31.7162 165.714 42.7322C168.541 53.7481 168.855 65.2618 166.635 76.4222C163.836 92.2773 155.107 108.908 141.596 118.417C142.074 113.704 141.456 108.945 139.79 104.513C137.838 99.204 134.101 94.7417 129.218 91.8906C124.335 89.0395 118.61 87.9771 113.025 88.8856C102.251 90.6105 93.7453 99.3697 96.1113 110.611C97.2979 115.372 99.8279 119.689 103.4 123.05C106.973 126.41 111.436 128.671 116.261 129.565C121.24 130.413 126.352 130.053 131.167 128.517C125.503 138.871 116.655 147.126 105.935 152.058C96.5779 156.707 86.351 159.338 75.917 159.783C66.2346 159.761 56.6089 158.329 47.3432 155.53L55.2637 142.414C56.4857 140.338 53.3789 139.838 52.034 140.337C50.6892 140.837 49.8311 140.978 48.7489 141.372C48.3106 138.5 42.416 138.855 42.7947 141.731C42.7613 142.274 42.6626 142.812 42.5008 143.332C31.1997 146.483 19.5084 148.002 7.78156 147.845C6.43661 147.836 4.1988 149.405 5.62804 150.843C9.89581 155.186 13.8712 159.807 17.5282 164.677C21.2206 169.533 24.1915 174.822 27.6843 179.841C28.928 181.678 34.178 180.525 32.9517 177.969C31.7219 175.569 30.3278 173.257 28.7791 171.05L32.72 174.547C32.9091 174.715 33.2629 174.634 33.5606 174.616C33.1123 175.121 34.4748 175.428 34.8635 174.926C37.8995 170.68 40.7463 166.265 43.502 161.826C70.8269 174.79 109.979 164.394 130.094 142.744C135.122 137.455 138.784 131.019 140.759 123.995C154.11 114.718 163.851 101.116 168.335 85.4925C172.005 72.8446 172.384 59.4729 169.436 46.6458C166.489 33.8186 160.313 21.9614 151.494 12.1989ZM34.0122 173.663C30.4951 169.751 26.922 165.903 23.3173 162.027L30.5854 165.204C31.9375 165.84 35.846 164.23 33.9544 162.551L32.1574 160.956L37.415 163.478C37.9659 163.66 38.5546 163.696 39.1242 163.584C37.293 166.981 35.5738 170.252 34.0122 173.663ZM133.436 122.913C132.854 123.187 132.336 123.517 131.751 123.731C121.017 127.635 108.551 124.472 103.926 113.427C102.73 110.787 102.376 107.842 102.911 104.992C103.447 102.142 104.845 99.5239 106.917 97.4939C108.99 95.4638 111.636 94.1197 114.496 93.6438C117.356 93.1679 120.292 93.5832 122.906 94.8335C133.421 99.3689 136.085 112.624 133.436 122.913Z" fill="#5A4522"/>
</g>
<defs>
<clipPath id="clip0_28_131">
<rect width="89.0662" height="207.524" fill="white" transform="translate(137.748) rotate(41.5879)"/>
</clipPath>
</defs>
</svg>
