<svg width="69" height="69" viewBox="0 0 69 69" fill="none" xmlns="http://www.w3.org/2000/svg">
<g clip-path="url(#clip0_82_805)">
<path d="M18.8262 29.4375C19.4039 27.6657 25.7211 25.4003 28.0822 24.8434C28.0325 24.3173 28.0325 23.7876 28.0822 23.2614L27.6929 23.0083L27.2282 23.1981L26.4998 23.5525L25.7839 23.9195L24.7666 24.4637L23.7493 25.0333C20.6482 26.7911 17.6841 28.7838 14.8826 30.9942L13.9406 31.6523C11.7041 33.2166 9.60337 34.9694 7.66105 36.8918L6.84467 37.7018C4.93815 39.4177 3.34422 41.4565 2.13499 43.726C1.71447 44.4465 1.39341 45.2215 1.18056 46.0294C1.10373 46.3705 1.05744 46.7178 1.04235 47.0672C0.996936 47.4815 1.04574 47.9008 1.185 48.2933C1.32427 48.6858 1.55035 49.0412 1.84615 49.3326C2.53047 49.9242 3.366 50.3101 4.25749 50.4463C6.13495 50.7676 8.06496 50.5119 9.79612 49.7123C10.1603 49.5857 10.5245 49.4338 10.8888 49.282C11.4916 49.0162 12.1447 48.7251 12.6721 48.4213L13.5387 47.9405C14.0536 47.6494 14.5434 47.333 15.0207 47.0166C14.7704 45.6508 14.6318 44.2667 14.6063 42.8781C14.379 43.0474 14.1398 43.1996 13.8904 43.3337L13.6015 43.5362C13.5103 43.6108 13.4138 43.6785 13.3127 43.7387L13.1243 43.8779L12.9233 44.0298C12.4317 44.4666 11.8335 44.7636 11.1902 44.8904C11.68 44.536 12.0191 43.8146 12.5466 43.5109L12.7099 43.3463L12.8856 43.1818L13.1243 42.954L13.3754 42.7262C13.942 42.2997 14.4753 41.8301 14.9705 41.3214C15.3061 40.443 15.86 39.6663 16.5792 39.0657C17.2983 38.4651 18.1586 38.0609 19.0774 37.8917C19.4541 37.5373 19.8183 37.1576 20.1826 36.7779L20.4086 36.5501C21.0317 36.0008 21.6035 35.395 22.1166 34.7403C22.6059 34.0033 23.1608 33.3128 23.7745 32.6774C24.3028 31.9499 24.8955 31.2722 25.5453 30.6525L25.7588 30.4373C26.2909 29.7857 26.8933 29.1957 27.5548 28.6782L27.8562 28.4883H27.9315H27.7808C26.9054 28.8788 26.0651 29.3446 25.269 29.8804L24.9676 30.0576C24.3349 30.2917 23.7386 30.6156 23.1967 31.0195L21.564 32.1965L21.3128 32.3737L21.0742 32.5509L20.7854 32.7787L20.4588 33.0065C19.5151 33.6443 18.6093 34.3373 17.7461 35.082L17.3944 35.3731L17.1181 35.6515C16.2641 36.4995 15.3975 37.2715 14.6063 38.0309L14.33 38.2966C13.7522 38.8408 13.1996 39.3724 12.6721 39.9039L12.308 40.1064C11.3158 40.8531 10.6627 41.9036 9.69563 42.6376L9.41936 42.9287L9.14302 43.2198L8.95468 43.4223L8.76626 43.6374C8.26389 44.131 7.862 44.8271 7.12101 45.1308C7.54803 44.574 7.77409 43.7007 8.30158 43.2198L8.45228 42.992L8.60298 42.7642L8.82904 42.4478L9.08024 42.144C9.90914 41.3214 10.5748 40.2077 11.4665 39.4483C11.5608 39.3644 11.6616 39.2882 11.7679 39.2205C12.4603 38.6245 13.099 37.9681 13.6769 37.2589L13.9532 36.9804C14.8741 36.2678 15.7468 35.494 16.5655 34.6644L16.8544 34.3986C17.9939 33.7266 19.0554 32.9286 20.0193 32.0193L20.3458 31.7788C20.5342 31.6396 20.7226 31.5257 20.9109 31.3992L21.1999 31.222C21.7776 30.8803 22.305 30.5512 22.8325 30.2095C23.3757 29.8584 23.947 29.5536 24.5406 29.2983L24.8545 29.1464C25.6568 28.6575 26.4968 28.2342 27.3664 27.8808C27.4939 27.8354 27.6239 27.7973 27.7557 27.7669C28.0641 27.6086 28.3943 27.4977 28.7353 27.4379C28.5713 27.0251 28.4329 26.6024 28.3209 26.1723C26.9017 27.3493 20.3835 29.4881 18.8262 29.4375Z" fill="#FFFAEB"/>
<path d="M32.5156 29.4121C33.4178 29.929 34.4648 30.1293 35.4922 29.9817C36.5744 29.8821 37.6191 29.5313 38.5441 28.9565C38.8164 28.7679 39.0651 28.5469 39.2851 28.2984L39.4232 28.1465L39.5739 27.9567C39.6492 27.8555 39.7121 27.7416 39.7749 27.6403C39.9513 27.3566 40.0985 27.0555 40.2144 26.7418C40.3474 26.3682 40.4441 25.9825 40.5033 25.5901C40.5033 25.2863 40.5912 24.9826 40.6163 24.6915C40.6414 24.4004 40.6163 24.1726 40.6163 23.9068C40.6016 23.2922 40.547 22.6792 40.453 22.0717L39.1971 21.6161C38.7812 21.8805 38.3393 22.1011 37.8784 22.2742C37.8784 22.2742 40.8801 17.2119 40.9052 17.2119C43.6682 12.5925 41.9476 5.56843 38.1924 10.365C34.7135 6.18857 31.0463 9.35254 29.401 10.365C29.087 10.2258 25.5202 8.13756 26.0854 16.2753C27.3413 19.2748 29.7904 22.2109 29.2001 22.4514C29.2001 22.7172 29.2001 22.983 29.2001 23.2614V23.6411C29.3296 24.8923 29.7143 26.1031 30.3304 27.1974L30.4183 27.3619C30.94 28.2083 31.6602 28.9124 32.5156 29.4121Z" fill="#B39470"/>
<path d="M25.5453 35.0697C24.4882 36.3051 23.0267 37.1178 21.426 37.3604C21.4201 37.2846 21.4201 37.2085 21.426 37.1326L21.1246 37.4111L20.8984 37.6768L20.6724 37.9046C20.9234 37.956 21.171 38.0236 21.4134 38.1071L22.305 38.4868C22.4794 38.5524 22.6391 38.6521 22.7749 38.7803C22.9108 38.9085 23.02 39.0625 23.0963 39.2335C23.7745 38.297 24.4276 37.3351 25.043 36.348L25.7212 35.2342L25.9598 34.8672L26.1607 34.5255V34.4116L25.7588 34.8419L25.5453 35.0697Z" fill="#FFFAEB"/>
<path d="M40.8675 31.8294C41.2168 33.1825 41.6789 34.5034 42.249 35.7781C42.4374 36.2084 42.6384 36.6513 42.8644 37.0437C43.2412 37.7904 43.6557 38.4991 44.1204 39.1952C44.0199 38.6257 43.9194 38.0814 43.7812 37.5499C43.7059 37.2208 43.6054 36.9045 43.5049 36.5881C43.4044 36.2717 43.3165 36.0185 43.2161 35.7401C42.8976 34.877 42.5329 34.0321 42.1234 33.2089C41.7718 32.5002 41.4327 31.8674 41.1061 31.2852L40.6917 30.9941C40.7168 31.2979 40.7796 31.5763 40.8675 31.8294Z" fill="#FFFAEB"/>
<path d="M34.8266 35.5127C37.3384 35.6266 39.599 35.7531 41.3824 35.7911C40.9498 34.747 40.5931 33.6726 40.3149 32.5765C40.2144 32.1715 40.1265 31.7792 40.0512 31.3742C39.9758 30.9692 39.913 30.83 39.8502 30.5642L39.6493 30.4756C38.4954 31.2843 37.1548 31.7811 35.7559 31.9184C34.3031 32.1143 32.828 31.792 31.5863 31.0072C31.4453 30.9204 31.3109 30.8231 31.1844 30.7161L31.0714 30.8047C29.7841 32.1112 28.635 33.5491 27.6427 35.095L28.2832 35.171C30.0164 35.3481 32.3147 35.4114 34.8266 35.5127Z" fill="#FFC936"/>
<path d="M30.5689 21.3631C30.23 21.1099 29.9185 20.8214 29.6396 20.5024H29.5265C29.3818 20.8898 29.2848 21.2936 29.2377 21.7048L30.1168 21.439L30.5689 21.3631Z" fill="#FFFAEB"/>
<path d="M42.2867 37.7781L42.1736 37.5503C42.1736 37.5503 42.2113 37.6769 42.2867 37.7781Z" fill="#FFFAEB"/>
<path d="M40.3777 21.2368C40.3777 21.0723 40.315 20.9077 40.2773 20.7559L39.7498 21.1988L40.4029 21.376C40.4017 21.3285 40.3932 21.2816 40.3777 21.2368Z" fill="#FFFAEB"/>
<path d="M43.8566 40.5114C43.3291 39.7014 42.8393 38.8408 42.3872 37.9802C39.9689 39.091 37.3155 39.5823 34.6633 39.4103C32.111 39.3071 29.6427 38.4633 27.5548 36.9804C27.3362 36.8283 27.1265 36.6635 26.9269 36.4868C26.4236 37.7739 26.0533 39.1098 25.8217 40.4734C25.6711 41.3107 25.5663 42.1557 25.5077 43.0046C25.9849 43.0679 26.5375 43.1312 27.1529 43.1818C29.3257 43.3716 32.2645 43.4476 35.5047 43.688C38.745 43.9285 41.6839 44.2829 43.8817 44.5233H44.2836C44.2836 44.0677 44.2836 43.6121 44.2836 43.1818C44.2836 42.4478 44.2836 41.739 44.2836 41.043L43.8566 40.5114Z" fill="#FFC936"/>
<path d="M56.1143 42.916C56.1081 42.9707 56.1081 43.0259 56.1143 43.0805C56.1959 43.1872 56.2839 43.2886 56.378 43.3843L56.1143 42.916Z" fill="#FFFAEB"/>
<path d="M65.8225 40.2333C64.8102 38.8731 63.6842 37.6029 62.4566 36.4365L61.6026 35.6265C59.9005 34.0598 58.1099 32.5934 56.2398 31.2349C55.9468 30.9565 55.6454 30.6907 55.3356 30.4376C54.1744 29.5252 52.9625 28.6801 51.706 27.9064C51.4456 27.9291 51.1846 27.8694 50.9595 27.7355C50.7343 27.6017 50.5563 27.4004 50.4501 27.1597C48.9807 26.2865 47.4861 25.4385 46.0042 24.5653L44.924 24.0084L43.844 23.4642L43.0653 23.1098L42.6885 22.9453L41.9224 23.4515C41.9224 23.5528 41.9224 23.654 41.9224 23.7679C41.9709 24.1247 42.0002 24.4838 42.0103 24.8437C44.3337 25.3879 50.8018 27.5647 51.4172 29.3365C49.022 28.9965 46.6744 28.3764 44.4217 27.4888C45.0999 27.9317 45.8157 28.3494 46.5065 28.843L46.7953 29.0708L47.0842 29.2859L47.4359 29.539L47.7875 29.8554C48.3117 30.2813 48.8107 30.7377 49.2821 31.2222C49.7517 31.6923 50.2647 32.1161 50.8143 32.4878L51.2162 32.8296L51.5929 33.0953C52.7358 33.8927 53.8034 34.728 54.8332 35.5633L55.1849 35.8543L57.2948 37.5502L57.5837 37.9425C58.5884 38.993 59.8192 39.727 60.7235 40.8661L61.0626 41.2078L61.3891 41.5495L61.6278 41.7899L61.8663 42.0304C62.5185 42.62 63.0222 43.3575 63.3358 44.1819C62.8209 43.5365 61.9166 43.1062 61.4016 42.4734L61.163 42.2709L60.9244 42.0684L60.5853 41.7899L60.2336 41.4989C59.3168 40.5244 58.0233 39.7903 57.0562 38.8664L56.7548 38.5374C55.9844 37.8157 55.1427 37.1754 54.243 36.6263L53.8913 36.3479C52.8989 35.4328 51.8457 34.5871 50.7389 33.8167L50.3747 33.5383C49.8347 32.9814 49.2946 32.4372 48.7295 31.9183C48.189 31.3859 47.5955 30.911 46.9586 30.5009L46.607 30.2225L46.0042 29.7415L45.7027 29.4884C44.5472 28.5392 43.3165 27.8558 42.2113 26.8433L41.8973 26.5902C41.8632 26.7911 41.8171 26.9897 41.7592 27.185C41.6784 27.5023 41.5691 27.8116 41.4326 28.1089C43.5967 29.8844 45.6206 31.8266 47.4861 33.918L48.4783 34.8545C49.4328 35.8164 50.3245 36.7529 51.166 37.6388C51.3238 37.6499 51.4797 37.6797 51.6306 37.7274L51.9823 37.7907L52.3465 37.8919L52.8238 38.0818C52.9892 38.1535 53.1487 38.2381 53.301 38.3349C53.957 38.8123 54.5444 39.3787 55.0467 40.0181C55.5742 40.6692 55.9171 41.452 56.0389 42.2835C56.0641 42.4683 56.0641 42.6556 56.0389 42.8404L56.5036 43.4732C56.5672 43.5533 56.6181 43.643 56.6543 43.739C56.6585 43.7641 56.6585 43.7898 56.6543 43.8149C56.6352 43.826 56.6136 43.8318 56.5915 43.8318C56.5695 43.8318 56.5478 43.826 56.5287 43.8149H56.4659L56.3403 43.7137C56.2466 43.6402 56.1584 43.5598 56.0766 43.4732C56.0012 44.4857 56.0138 45.4348 55.9133 46.422C55.9133 46.5865 55.9133 46.751 55.8379 46.9282C55.6872 47.4682 55.5365 48.0251 55.3858 48.5988C55.5616 48.5988 55.7375 48.738 55.9259 48.7887C56.2673 48.9132 56.6154 49.0188 56.9683 49.105C57.3325 49.2063 57.7093 49.2949 58.0735 49.3708C59.718 49.6684 61.4051 49.6297 63.0344 49.2569C63.8558 49.0706 64.6495 48.7771 65.3955 48.3837C66.1177 48.0603 66.748 47.56 67.2291 46.9282C67.4724 46.6103 67.6555 46.2499 67.7691 45.8651C67.8486 45.5211 67.8782 45.1673 67.8571 44.8147C67.7758 43.9836 67.537 43.1759 67.1537 42.4354C66.7763 41.6627 66.3307 40.9257 65.8225 40.2333Z" fill="#FFFAEB"/>
<path d="M48.9054 38.1577C49.3614 38.183 49.8183 38.183 50.2743 38.1577C50.0106 38.1577 49.4705 38.1577 49.0184 38.1577H48.9054Z" fill="#FFFAEB"/>
<path d="M34.4247 60.0398C33.3406 59.9521 32.2833 59.6557 31.3101 59.1665C30.53 58.7645 29.8076 58.2578 29.1624 57.6605C28.6933 57.2174 28.2723 56.7252 27.9065 56.1924C28.3402 57.2309 28.8612 58.2301 29.4638 59.1792C30.0785 60.2208 30.942 61.091 31.9756 61.7103C32.4951 61.9649 33.0688 62.0867 33.646 62.0647C33.939 62.0494 34.2295 62.0027 34.5126 61.9255C34.8161 61.839 35.114 61.7333 35.4044 61.6091C36.6017 61.0917 37.6761 60.3239 38.5566 59.3564C38.245 59.4917 37.9265 59.61 37.6022 59.7107C36.5732 60.022 35.495 60.1337 34.4247 60.0398Z" fill="#FFC936"/>
<path d="M49.797 37.4359L48.8802 36.5374C48.9372 36.8086 48.9372 37.0888 48.8802 37.36C45.7781 37.1069 43.7937 33.7531 41.6461 31.7661C41.8973 32.1711 42.1485 32.6014 42.3996 33.0317C42.8721 33.9125 43.2915 34.8211 43.6556 35.7527C43.6556 35.9426 43.7938 36.1197 43.8691 36.3096C43.9445 36.4994 44.1203 37.0563 44.2333 37.4486C44.5115 38.3881 44.7131 39.3489 44.8361 40.3215L45.012 40.5873C45.3134 41.0556 45.6399 41.5111 45.979 41.9541C46.0248 41.5909 46.0961 41.2314 46.1925 40.8783C46.1925 40.7012 46.3056 40.5366 46.3684 40.3721C46.4784 39.8765 46.6926 39.4105 46.9963 39.0053C47.2658 38.718 47.5745 38.4708 47.9131 38.2712L48.202 38.0561L48.4155 37.9675L48.9053 37.7144L48.7923 37.8156L49.797 37.4359Z" fill="#FFFAEB"/>
<path d="M35.2159 47.6243C32.1878 47.4208 29.2396 46.5572 26.5752 45.0931C26.1482 44.8526 25.7839 44.6248 25.4574 44.397C25.4574 44.9791 25.4574 45.574 25.4574 46.1815C25.5324 47.5876 25.7257 48.9848 26.0351 50.3579L26.9017 50.5351C29.4957 50.9469 32.1135 51.1879 34.7386 51.2565C37.3695 51.4167 40.0075 51.4167 42.6383 51.2565H42.9147C43.0654 50.7629 43.2035 50.2693 43.3416 49.7884C43.6179 48.7 43.844 47.6369 44.0199 46.5865C41.1778 47.4951 38.1894 47.8474 35.2159 47.6243Z" fill="#FFC936"/>
<path d="M34.5879 55.142C31.7583 55.0227 29.0107 54.1493 26.6254 52.6108C26.9393 53.6613 27.2785 54.7244 27.7055 55.7748C27.9693 55.7748 28.8107 55.7748 29.9284 55.8507C31.3099 55.9267 32.9929 56.0026 34.726 56.1292C36.4592 56.2557 38.1547 56.4835 39.5236 56.6607L40.453 56.7873C40.544 56.657 40.6279 56.5218 40.7042 56.3823C41.1799 55.5118 41.5994 54.6114 41.9601 53.6866C39.6456 54.7338 37.1235 55.2317 34.5879 55.142Z" fill="#FFC936"/>
<path d="M68.4976 42.4987C68.1345 41.6504 67.6886 40.8406 67.1663 40.0814C66.1473 38.6355 65.0267 37.2652 63.8131 35.9809C63.5368 35.6898 63.2479 35.424 62.959 35.1582C60.9245 33.3105 58.7768 31.7538 56.5413 29.9693L55.6245 29.2479C54.8081 28.6404 53.9416 28.0709 53.0499 27.5141C54.1207 26.9215 55.0879 26.1562 55.9133 25.2486C54.6574 23.8185 52.5098 25.2486 50.9776 26.2738C49.4202 25.4005 47.8253 24.5652 46.3182 23.7426L45.238 23.2364L44.1831 22.7681L43.4672 22.477C45.3008 21.2114 47.4359 19.5535 47.3857 18.8827C47.2601 17.2121 42.9523 20.0471 41.6085 21.5658L41.3949 20.9583C41.2693 20.6293 41.1437 20.3129 41.0056 20.0218C41.1016 19.9056 41.1898 19.783 41.2694 19.6548L41.4828 19.5409L41.9475 19.2245L42.1611 19.0346C42.1611 19.0346 42.2741 18.9587 42.3494 18.8954C43.0138 18.3238 43.4947 17.5661 43.731 16.7186C43.9562 15.8947 44.0577 15.0416 44.0324 14.1874C44.0773 13.3369 43.9514 12.486 43.6622 11.6858C43.373 10.8855 42.9265 10.1523 42.3494 9.53003C42.012 9.23084 41.6132 9.01043 41.1814 8.88457C40.7696 8.7774 40.3374 8.7774 39.9255 8.88457C39.5 9.02171 39.1185 9.27074 38.8203 9.60597C38.4244 9.33803 38.0038 9.10916 37.5644 8.92254C37.87 7.64215 38.3609 6.41403 39.0213 5.27763C39.6618 4.22719 43.4044 1.3037 43.0653 0.493718C42.1485 -1.65779 39.373 3.65768 39.0213 4.37907C38.309 5.80142 37.745 7.29435 37.3383 8.83394C36.8226 8.64442 36.2877 8.51285 35.7433 8.44161C35.2089 8.38608 34.6702 8.38608 34.1358 8.44161C34.6591 8.50626 35.176 8.61637 35.6805 8.77067C36.2174 8.93353 36.7322 9.16311 37.2128 9.4541C37.1071 10.0087 37.0566 10.5726 37.062 11.1373L37.4011 9.568C37.7433 9.78497 38.0668 10.0305 38.3682 10.302C38.0078 11.0942 37.9194 11.9848 38.117 12.8332C38.1745 13.1328 38.2629 13.4254 38.3808 13.7065C38.3556 13.4117 38.3556 13.1153 38.3808 12.8206C38.4317 12.1571 38.6477 11.5173 39.0087 10.9602L39.1594 10.7577C39.2796 10.5814 39.4333 10.4308 39.6115 10.3147C39.756 10.2383 39.9138 10.1911 40.0762 10.1755C40.2754 10.1715 40.4727 10.2153 40.6518 10.3033C40.8308 10.3914 40.9866 10.5211 41.1061 10.6817C41.4449 11.124 41.677 11.6396 41.7843 12.1878C41.7843 12.3397 41.8471 12.5042 41.8722 12.656C41.8852 12.8161 41.8852 12.9769 41.8722 13.137C41.8722 13.3774 41.8722 13.6305 41.8722 13.871C41.7047 14.9627 41.37 16.0215 40.88 17.0097C40.8762 17.0433 40.8762 17.0773 40.88 17.1109C40.5033 17.44 40.139 17.807 39.7748 18.1867C39.1748 17.4907 38.7447 16.6628 38.5189 15.7694C38.333 16.9155 38.4544 18.0909 38.8705 19.1738C38.6947 19.3763 38.5189 19.5788 38.3556 19.794L38.0794 19.9458H37.9663L37.8407 20.0091C37.3586 20.2565 36.8482 20.4435 36.321 20.566H36.2457L35.9443 20.6419C34.8033 20.8916 33.6145 20.7947 32.5282 20.3635C31.9289 20.1105 31.3801 19.7503 30.9081 19.3004C30.8767 19.2597 30.8473 19.2175 30.8201 19.1738V19.0093C30.9184 18.5607 30.9606 18.1016 30.9457 17.6425C30.5782 18.1839 30.114 18.6516 29.5768 19.022C29.3788 19.1581 29.1538 19.249 28.9173 19.2884C28.6809 19.3277 28.4387 19.3146 28.2078 19.2498C27.53 18.7022 27.0563 17.9393 26.864 17.0856C26.5546 15.6047 26.615 14.0696 27.0398 12.6181C27.1428 12.267 27.2817 11.9277 27.4543 11.6056C27.6345 11.2815 27.8403 10.9725 28.0697 10.6817C28.2377 10.4478 28.4462 10.2463 28.6851 10.0869C28.8609 9.99831 28.8861 9.97299 29.0493 10.0869C29.1736 10.1375 29.2851 10.2153 29.3758 10.3147L29.6019 10.5805C29.6676 10.6596 29.7264 10.7443 29.7777 10.8336C29.8944 11.0077 29.9993 11.1895 30.0917 11.3778C30.3694 11.9238 30.6046 12.4908 30.795 13.0737C31.2166 14.2562 31.5031 15.4833 31.649 16.7312C31.8904 15.4498 31.9201 14.137 31.7369 12.8459C31.66 12.1762 31.5213 11.5153 31.3225 10.8716C31.2015 10.489 31.0415 10.12 30.8453 9.7705C30.8193 9.70741 30.7856 9.64785 30.7448 9.5933L31.0336 9.31487C31.4165 8.96034 31.8378 8.65044 32.2895 8.39101C31.7823 8.55315 31.2971 8.77847 30.8453 9.06177L30.5187 9.2769C30.3263 9.03209 30.0975 8.81865 29.8405 8.6441C29.5544 8.47301 29.2319 8.3734 28.8998 8.35358C28.5677 8.33377 28.2357 8.39433 27.9315 8.53021C27.4491 8.76162 27.021 9.09379 26.6756 9.5047C26.3521 9.86984 26.062 10.2638 25.809 10.6817C25.5471 11.1271 25.3405 11.6031 25.1937 12.0992C24.9249 13.0317 24.8061 14.0016 24.842 14.9721C24.8574 15.874 25.0186 16.7674 25.3192 17.6171C25.6038 18.4295 26.0928 19.1534 26.7384 19.718C27.2822 20.2113 27.9603 20.5287 28.6851 20.6292C28.5799 20.8412 28.4918 21.0613 28.4214 21.2874C26.8138 19.718 23.0711 17.364 22.9455 18.9207C22.9455 19.6041 25.1559 21.338 27.0147 22.6162H26.9393L26.1482 22.9706L25.3569 23.3376L24.2643 23.8692C23.8875 24.0463 23.5359 24.2488 23.1591 24.4387C21.9327 25.0397 20.7418 25.7116 19.5922 26.451C18.0349 25.4258 15.8245 23.7679 14.4305 25.2613C15.3411 26.2959 16.4524 27.1315 17.6958 27.7166C16.4399 28.6151 15.1212 29.539 13.8151 30.4629L12.7978 31.121C10.9767 32.5258 9.13047 33.9813 7.34707 35.6012L6.46791 36.4238C3.77598 38.8512 1.65994 41.8572 0.276257 45.2197C0.144814 45.6311 0.0563919 46.0553 0.0124874 46.4853C-0.0811481 46.9999 -0.0811481 47.5273 0.0124874 48.0419C0.245638 48.9945 0.823481 49.825 1.63267 50.3706C2.42411 50.885 3.31422 51.2257 4.24499 51.3705C5.15286 51.5312 6.07837 51.5652 6.99545 51.4717C7.89475 51.3786 8.77998 51.179 9.63284 50.8769C10.0096 50.763 10.3989 50.6238 10.7883 50.4719C11.1776 50.32 11.4916 50.1681 11.8307 49.991C12.1698 49.8138 12.4084 49.7125 12.6847 49.5733L13.5262 49.105C14.1164 48.7633 14.6691 48.409 15.2217 48.0293C15.6487 49.7378 16.3646 51.2692 17.4949 51.6489C22.305 53.2435 24.1261 47.6749 23.9 43.1441C23.9 43.0429 23.9 42.929 23.9 42.815C23.8394 41.9172 23.675 41.0295 23.4102 40.17L23.4731 40.094C24.3145 38.9044 25.1057 37.6514 25.8718 36.3732L26.1858 35.8417L26.6882 34.981L26.9896 34.4495C27.3413 33.7914 27.6552 33.1206 27.9818 32.4625V32.3486C28.773 31.526 29.7149 30.4376 30.6443 30.349L30.795 30.4882C30.0096 31.1639 29.2905 31.914 28.6474 32.7283C28.0828 33.4565 27.5867 34.2361 27.1655 35.057C26.9645 35.424 26.7761 35.829 26.5877 36.2593C26.0029 37.5831 25.5608 38.9663 25.269 40.3851C25.0857 41.2415 24.9515 42.1077 24.8671 42.9796C24.8671 43.296 24.8671 43.625 24.7918 43.9541C24.7918 44.6755 24.7918 45.4222 24.7918 46.1942C24.8262 47.52 24.969 48.8407 25.2187 50.1428C25.3192 50.725 25.4448 51.3072 25.583 51.8894L25.809 52.8132C26.401 55.2367 27.3583 57.5543 28.6474 59.6854C29.3539 60.8714 30.3535 61.8525 31.5486 62.533C31.8198 62.6721 32.1065 62.7784 32.4026 62.8494C32.478 64.8996 32.7794 66.9625 33.0431 69.0001C33.9725 67.2789 34.3744 64.7224 35.0903 62.6722C35.3217 62.6032 35.5482 62.5186 35.7684 62.4191C37.0486 61.8684 38.2028 61.0585 39.1594 60.0398C39.7762 59.3765 40.335 58.6609 40.8297 57.9009C41.0433 57.5845 41.2442 57.2554 41.4326 56.9264C41.4288 56.8927 41.4288 56.8588 41.4326 56.8251C42.0984 55.6094 42.6613 54.3393 43.1155 53.0284C43.3541 52.3576 43.5677 51.6869 43.7561 51.0288C43.8691 50.6364 43.9696 50.2441 44.07 49.8517C44.3724 48.6403 44.5948 47.4099 44.7357 46.1689C44.7985 45.6373 44.8362 45.1184 44.8738 44.6122C44.8738 43.7263 44.8738 42.853 44.8738 42.0177C45.1627 42.4101 45.4641 42.7771 45.7781 43.1314C45.7781 43.6124 45.7781 44.0933 45.7781 44.5616V45.0172C45.7654 45.2491 45.7654 45.4814 45.7781 45.7133C45.9071 47.1656 46.3348 48.575 47.034 49.8517C47.0998 49.9878 47.1755 50.1189 47.2601 50.2441C47.4315 50.5089 47.6247 50.7587 47.8378 50.9908L48.2648 51.3831C49.0387 51.9044 49.9356 52.21 50.8646 52.269C51.3227 52.2899 51.7817 52.2602 52.2335 52.1804H52.56L52.9242 52.0792C53.1743 51.9901 53.411 51.8666 53.6275 51.7122C53.7785 51.5773 53.9173 51.429 54.042 51.2692C54.418 50.7425 54.7142 50.1624 54.9212 49.548C55.2728 49.6914 55.637 49.818 56.0138 49.9277C56.4157 50.0542 56.8176 50.1555 57.2697 50.2441C59.2787 50.6139 61.343 50.5449 63.3232 50.0416C64.3122 49.78 65.2687 49.4064 66.1742 48.9279C67.1833 48.4479 68.0083 47.6476 68.5227 46.6498C68.7047 46.2284 68.8151 45.7792 68.8493 45.3209C68.9461 44.3655 68.8258 43.4003 68.4976 42.4987ZM41.1187 31.2982C41.4452 31.8803 41.7843 32.5638 42.1359 33.2219C42.5454 34.045 42.9102 34.89 43.2286 35.7531C43.3291 36.0315 43.4295 36.3099 43.5174 36.601C43.6053 36.8921 43.7184 37.2338 43.7938 37.5629C43.9319 38.0944 44.0323 38.6386 44.1328 39.2081C43.6932 38.512 43.2788 37.8033 42.8769 37.0566C42.6508 36.6263 42.4499 36.1834 42.2615 35.791C41.6865 34.5127 41.2202 33.1875 40.8675 31.8297C40.7921 31.5386 40.7293 31.2602 40.6665 30.9691L41.1187 31.2982ZM42.3746 37.778C42.2992 37.6768 42.2113 37.5755 42.2615 37.5502L42.3746 37.778ZM40.3651 20.7558C40.3651 20.9077 40.4404 21.0722 40.4656 21.2367C40.4726 21.2829 40.4726 21.3298 40.4656 21.3759L39.8125 21.1988L40.3651 20.7558ZM29.6144 20.5406H29.7275C30.0038 20.857 26.6254 16.8705 26.9645 17.1362C26.8138 17.1362 30.3555 21.4772 30.2047 21.5152L29.3256 21.7809C29.3534 21.3591 29.4336 20.9424 29.5642 20.5406H29.6144ZM26.1984 34.5254L25.9974 34.8671L25.7588 35.2342L25.0806 36.3479C24.4652 37.3351 23.8247 38.2969 23.1339 39.2334C23.0576 39.0624 22.9484 38.9084 22.8126 38.7802C22.6768 38.652 22.517 38.5523 22.3427 38.4868L21.451 38.1071C21.2086 38.0235 20.9611 37.9559 20.71 37.9046L20.9361 37.6768L21.1621 37.411L21.4635 37.1326C21.4577 37.2084 21.4577 37.2845 21.4635 37.3604C23.0643 37.1177 24.5258 36.305 25.583 35.0696L25.809 34.8418L26.2109 34.4115L26.1984 34.5254ZM27.8436 27.7545C27.7118 27.7849 27.5818 27.8229 27.4543 27.8684C26.5847 28.2218 25.7448 28.6451 24.9425 29.134L24.5406 29.2986C23.9647 29.5523 23.4103 29.8528 22.8827 30.1971C22.3553 30.5388 21.8278 30.8679 21.2501 31.2096L20.9612 31.3868C20.7728 31.5133 20.5844 31.6273 20.396 31.7665L20.0695 32.0069C19.1056 32.9162 18.0441 33.7142 16.9046 34.3862L16.6157 34.652C15.797 35.4817 14.9243 36.2554 14.0034 36.968L13.7271 37.2465C13.1493 37.9557 12.5105 38.6121 11.8181 39.2081C11.7118 39.2758 11.611 39.352 11.5167 39.4359C10.625 40.1953 9.95935 41.309 9.13045 42.1317L8.87933 42.4354L8.65319 42.7518L8.50249 42.9796L8.35179 43.2074C7.8243 43.6883 7.59823 44.5616 7.17122 45.1184C7.91221 44.8147 8.3141 44.1186 8.81647 43.625L9.00489 43.4099L9.1933 43.2074L9.46957 42.9163L9.74583 42.6252C10.7129 41.8659 11.366 40.8154 12.3582 40.094L12.7224 39.8915C13.2499 39.36 13.8024 38.8285 14.3802 38.2843L14.6565 38.0185C15.4854 37.2591 16.352 36.4871 17.1683 35.6392L17.4446 35.3607L17.7963 35.0696C18.6595 34.3249 19.5653 33.6319 20.509 32.9941L20.8356 32.7663L21.1245 32.5385L21.3631 32.3613L21.6143 32.1841L23.2469 31.0071C23.7888 30.6032 24.3851 30.2793 25.0178 30.0452L25.3192 29.8681C26.1153 29.3322 26.9556 28.8664 27.831 28.4759H27.9818H27.9064L27.605 28.6658C26.9435 29.1833 26.3412 29.7733 25.809 30.4249L25.5956 30.6401C24.9458 31.2598 24.353 31.9375 23.8247 32.665C23.211 33.3004 22.6561 33.9909 22.1669 34.7279C21.6537 35.3826 21.0819 35.9884 20.4588 36.5377L20.2328 36.7655C19.8686 37.1452 19.5043 37.5249 19.1276 37.8793C18.2088 38.0485 17.3485 38.4528 16.6294 39.0533C15.9102 39.6539 15.3563 40.4306 15.0207 41.309C14.5255 41.8177 13.9923 42.2874 13.4257 42.7138L13.1745 42.9416L12.9359 43.1694L12.7601 43.3339L12.5968 43.4985C12.0693 43.8022 11.7302 44.5236 11.2404 44.878C11.8837 44.7512 12.4819 44.4542 12.9735 44.0174L13.1745 43.8655L13.3629 43.7263C13.464 43.6661 13.5606 43.5984 13.6518 43.5238L13.9406 43.3213C14.19 43.1872 14.4292 43.035 14.6565 42.8657C14.682 44.2543 14.8207 45.6384 15.071 47.0042C14.5937 47.3205 14.1039 47.637 13.589 47.928L12.7224 48.409C12.1447 48.7127 11.5418 49.0038 10.939 49.2696C10.5748 49.4214 10.2105 49.5733 9.84633 49.6999C8.11517 50.4994 6.18523 50.7553 4.30777 50.4339C3.41629 50.2978 2.58067 49.9118 1.89636 49.3202C1.60056 49.0288 1.37447 48.6734 1.23521 48.2809C1.09595 47.8884 1.04722 47.4691 1.09263 47.0548C1.10772 46.7054 1.15394 46.358 1.23077 46.017C1.44362 45.2091 1.76475 44.4342 2.18527 43.7136C3.39451 41.4442 4.98843 39.4053 6.89496 37.6894L7.71126 36.8794C9.65358 34.957 11.7543 33.2042 13.9908 31.6399L14.9328 30.9818C17.7343 28.7714 20.6984 26.7787 23.7995 25.0208L24.8168 24.4514L25.8342 23.9071L26.55 23.5401L27.2784 23.1858L27.7431 22.9959L28.1325 23.249C28.0827 23.7752 28.0827 24.3049 28.1325 24.831C25.7713 25.3879 19.4541 27.6533 18.8764 29.4251C20.4337 29.4251 26.9519 27.3369 28.3711 26.1346C28.4831 26.5647 28.6215 26.9874 28.7856 27.4002C28.4259 27.4629 28.0783 27.5825 27.7557 27.7545H27.8436ZM30.5439 27.2863L30.4559 27.1217C29.8399 26.0275 29.4551 24.8167 29.3256 23.5654V23.1858C29.3256 22.9073 29.3256 22.6415 29.3256 22.3758C29.9159 22.1353 30.5187 21.8822 31.1215 21.6797C31.4045 21.8618 31.6981 22.0266 32.0007 22.1733C33.4192 22.8113 35.0008 22.984 36.522 22.6669C37.0102 22.5748 37.4893 22.4393 37.9537 22.2619H38.0542C38.5151 22.0887 38.9569 21.8682 39.3729 21.6038L40.6288 22.0594C40.7228 22.6668 40.7774 23.2799 40.7921 23.8945C40.7921 24.1603 40.7921 24.4134 40.7921 24.6792C40.7921 24.9449 40.7293 25.274 40.679 25.5777C40.6199 25.9701 40.5231 26.3558 40.3902 26.7294C40.2743 27.0432 40.1271 27.3442 39.9507 27.628C39.9507 27.7292 39.825 27.8431 39.7497 27.9444L39.599 28.1342L39.4608 28.2861C39.2409 28.5346 38.9921 28.7556 38.7198 28.9442C37.7948 29.5189 36.7502 29.8698 35.6679 29.9693C34.6406 30.117 33.5936 29.9166 32.6914 29.3998C31.778 28.9011 31.008 28.1731 30.4559 27.2863H30.5439ZM31.1341 30.8046L31.2472 30.716C31.3737 30.8231 31.508 30.9204 31.649 31.0071C32.8908 31.7919 34.3658 32.1143 35.8187 31.9183C37.2176 31.781 38.5581 31.2842 39.712 30.4755L39.913 30.5641C39.913 30.8299 40.0386 31.0957 40.1139 31.3741C40.1893 31.6526 40.2772 32.1714 40.3776 32.5764C40.6558 33.6726 41.0126 34.747 41.4452 35.791C39.6618 35.791 37.3634 35.6265 34.8893 35.5126C32.4151 35.3987 30.0792 35.3481 28.3209 35.1709L27.6803 35.0949C28.6529 33.552 29.7808 32.1143 31.0462 30.8046H31.1341ZM35.5172 61.5711C35.2269 61.6953 34.9291 61.801 34.6256 61.8875C34.3424 61.9647 34.0519 62.0113 33.759 62.0267C33.1818 62.0486 32.6081 61.9269 32.0886 61.6723C31.0549 61.053 30.1914 60.1828 29.5768 59.1412C28.9742 58.1921 28.4532 57.1929 28.0195 56.1544C28.3853 56.6872 28.8063 57.1794 29.2754 57.6225C29.9205 58.2198 30.6429 58.7265 31.4229 59.1285C33.3728 60.1077 35.623 60.2891 37.7025 59.6348C38.0268 59.534 38.3454 59.4157 38.657 59.2804C37.7584 60.2705 36.6571 61.0521 35.4293 61.5711H35.5172ZM40.8047 56.4075C40.7283 56.547 40.6445 56.6822 40.5535 56.8125L39.6241 56.686C38.2552 56.5088 36.5471 56.2936 34.8265 56.1544C33.1059 56.0152 31.4104 55.9519 30.0289 55.876C28.9111 55.8127 28.0696 55.8 27.8059 55.8C27.3789 54.7496 27.0398 53.6865 26.7258 52.636C29.1112 54.1745 31.8588 55.0479 34.6884 55.1672C37.243 55.2747 39.7876 54.7852 42.1234 53.7371C41.7128 54.6572 41.2429 55.5492 40.7168 56.4075H40.8047ZM43.4546 49.7378C43.3165 50.2188 43.1783 50.7123 43.0276 51.2059H42.7513C40.1205 51.3661 37.4825 51.3661 34.8517 51.2059C32.2266 51.1374 29.6086 50.8964 27.0147 50.4845L26.1482 50.3074C25.8387 48.9342 25.6454 47.537 25.5704 46.1309C25.5704 45.5234 25.5704 44.9286 25.5704 44.3464C25.897 44.5742 26.2612 44.802 26.6882 45.0425C29.3526 46.5066 32.3008 47.3702 35.3289 47.5737C38.3014 47.7789 41.2855 47.4094 44.1203 46.4853C43.8691 47.5863 43.643 48.6494 43.3793 49.7378H43.4546ZM44.3714 44.6755H43.9695C41.7717 44.435 38.8203 44.068 35.5926 43.8402C32.3649 43.6124 29.4135 43.5238 27.2408 43.3339C26.6254 43.3339 26.0728 43.2201 25.5956 43.1568C25.6541 42.3079 25.7589 41.4629 25.9095 40.6256C26.1411 39.262 26.5114 37.9261 27.0147 36.639C27.2143 36.8156 27.424 36.9805 27.6426 37.1326C29.7305 38.6154 32.1989 39.4592 34.7512 39.5625C37.4034 39.7344 40.0567 39.2432 42.4751 38.1324C42.9272 39.0056 43.417 39.8662 43.9445 40.6636L44.3714 41.2964C44.3714 41.9924 44.4468 42.7012 44.3714 43.4352C44.3338 43.7136 44.3086 44.1692 44.2835 44.6248L44.3714 44.6755ZM48.4783 38.0691L48.2648 38.1577L47.9759 38.3729C47.6373 38.5724 47.3286 38.8196 47.0591 39.1069C46.7554 39.5121 46.5412 39.9781 46.4312 40.4737C46.3684 40.6382 46.3055 40.8028 46.2553 40.98C46.1589 41.333 46.0875 41.6924 46.0418 42.0557C45.7027 41.6127 45.3762 41.1571 45.0747 40.6889L44.899 40.4231C44.776 39.4505 44.5743 38.4897 44.2961 37.5502C44.1831 37.1579 44.0575 36.7782 43.9319 36.4112C43.8063 36.0441 43.7812 36.0441 43.7184 35.8543C43.3543 34.9227 42.9349 34.0141 42.4625 33.1333C42.2113 32.6524 41.9601 32.2221 41.7089 31.8677C43.8565 33.8547 45.8409 37.2085 48.943 37.4616C48.9999 37.1904 48.9999 36.9102 48.943 36.639L49.8598 37.5376L48.83 37.9679L48.943 37.8666L48.4783 38.0691ZM48.9932 38.2336H49.0686C49.5584 38.2336 50.0985 38.2336 50.3245 38.2336C49.8504 38.2356 49.3766 38.2102 48.9053 38.1577L48.9932 38.2336ZM67.8319 45.8904C67.7183 46.2752 67.5352 46.6357 67.2919 46.9536C66.8108 47.5853 66.1805 48.0856 65.4583 48.409C64.7123 48.8024 63.9186 49.096 63.0972 49.2822C61.4679 49.655 59.7808 49.6938 58.1363 49.3961C57.7721 49.3202 57.3953 49.2316 57.0311 49.1304C56.6782 49.0441 56.3301 48.9385 55.9887 48.814C55.8003 48.814 55.6245 48.6874 55.4486 48.6241C55.5993 48.0504 55.75 47.4935 55.9007 46.9536C55.9007 46.7764 55.9008 46.6118 55.9762 46.4473C56.0766 45.4601 56.064 44.511 56.1394 43.4985C56.2212 43.5851 56.3094 43.6655 56.4031 43.7389L56.5287 43.8402H56.5915C56.6106 43.8513 56.6323 43.8571 56.6543 43.8571C56.6764 43.8571 56.698 43.8513 56.7171 43.8402C56.7213 43.815 56.7213 43.7894 56.7171 43.7642C56.6809 43.6683 56.6301 43.5786 56.5664 43.4985L56.1017 42.8657C56.1269 42.6809 56.1269 42.4936 56.1017 42.3088C55.9799 41.4773 55.6371 40.6945 55.1096 40.0434C54.6073 39.404 54.0198 38.8376 53.3638 38.3602C53.2115 38.2634 53.052 38.1788 52.8866 38.1071L52.4093 37.9172L52.0451 37.816L51.6934 37.7527C51.5425 37.7049 51.3866 37.6752 51.2288 37.6641C50.3873 36.7782 49.4956 35.8417 48.5411 34.8798L47.5489 33.9433C45.6834 31.8519 43.6595 29.9096 41.4954 28.1342C41.6319 27.8369 41.7412 27.5277 41.822 27.2103C41.8799 27.015 41.926 26.8164 41.9601 26.6155L42.2741 26.8686C43.3793 27.8811 44.6101 28.5645 45.7656 29.5137L46.067 29.7668L46.6698 30.2477L47.0215 30.5262C47.6584 30.9363 48.2518 31.4112 48.7923 31.9436C49.3574 32.4625 49.8975 33.0067 50.4375 33.5636L50.8017 33.842C51.9085 34.6124 52.9617 35.4581 53.9541 36.3732L54.3058 36.6516C55.2055 37.2007 56.0472 37.841 56.8176 38.5627L57.119 38.8917C58.0861 39.8156 59.3796 40.5497 60.2964 41.5242L60.6481 41.8153L60.9873 42.0937L61.2259 42.2962L61.4645 42.4987C61.9794 43.1314 62.8837 43.5618 63.3986 44.2072C63.085 43.3828 62.5813 42.6453 61.9292 42.0557L61.6906 41.8153L61.4519 41.5748L61.1254 41.2331L60.7863 40.8914C59.882 39.7523 58.6512 39.0183 57.6465 37.9679L57.3576 37.5755L55.2477 35.8796L54.896 35.5885C53.8662 34.7532 52.7987 33.9179 51.6558 33.1206L51.279 32.8549L50.8771 32.5132C50.3275 32.1414 49.8145 31.7176 49.3449 31.2476C48.8735 30.763 48.3745 30.3066 47.8503 29.8807L47.4987 29.5643L47.147 29.2986L46.8582 29.0834L46.5693 28.8556C45.8785 28.362 45.1627 27.9444 44.4845 27.5014C46.7372 28.3891 49.0848 29.0092 51.48 29.3492C50.9022 27.5774 44.3966 25.4005 42.0732 24.8563C42.0631 24.4964 42.0337 24.1373 41.9852 23.7806C41.9852 23.6667 41.9852 23.5654 41.9852 23.4642L42.7513 22.9579L43.1281 23.1225L43.9068 23.4768L44.9869 24.021L46.067 24.5779C47.549 25.4511 49.0435 26.2991 50.5129 27.1724C50.6191 27.4131 50.7972 27.6143 51.0223 27.7482C51.2475 27.882 51.5084 27.9418 51.7688 27.9191C53.0253 28.6927 54.2372 29.5378 55.3984 30.4502C55.7166 30.7034 56.018 30.9691 56.3026 31.2476C58.1727 32.6061 59.9633 34.0724 61.6654 35.6392L62.5194 36.4491C63.747 37.6155 64.873 38.8857 65.8853 40.2459C66.3923 40.9303 66.8378 41.6587 67.2165 42.4227C67.5998 43.1632 67.8386 43.9709 67.9199 44.802C67.9194 45.1535 67.8686 45.503 67.7691 45.8398L67.8319 45.8904ZM56.1645 43.1314C56.1583 43.0768 56.1583 43.0216 56.1645 42.9669L56.4157 43.4352C56.3026 43.325 56.1977 43.2065 56.1017 43.0809L56.1645 43.1314Z" fill="#403612"/>
<path d="M47.5113 17.9841C49.2821 16.9337 49.0561 13.1369 49.3827 11.3145C47.122 11.5802 46.7075 15.5668 46.5945 17.3007V17.4779C46.9336 17.693 47.2601 17.4526 47.5113 17.9841Z" fill="#403612"/>
<path d="M48.8803 10.5931C49.2175 10.6437 49.5603 10.6437 49.8976 10.5931C49.5092 8.53649 48.3313 6.71731 46.6196 5.53076C46.9462 6.93557 47.4485 9.85908 48.8803 10.5931Z" fill="#403612"/>
<path d="M48.1769 52.1802L47.461 52.408C47.5489 54.7747 46.205 57.4704 44.7607 59.5839C47.3228 58.8752 52.3465 52.6231 48.1769 52.1802Z" fill="#403612"/>
<path d="M31.3727 5.25226C32.3544 7.0677 33.0132 9.04226 33.3194 11.0866C33.1653 8.72613 32.5009 6.42817 31.3727 4.3537C31.0211 3.63231 28.2329 -1.68318 27.3286 0.468326C27.0523 1.31627 30.7322 4.23978 31.3727 5.25226Z" fill="#403612"/>
<path d="M20.8733 11.3145C20.9612 12.0105 21.7775 18.832 22.7446 17.9841C23.1465 17.9841 23.1088 17.8576 23.4353 17.6424L23.6488 17.3007C23.5483 15.5668 23.1339 11.5802 20.8733 11.3145Z" fill="#403612"/>
<path d="M21.3757 10.5931C22.8074 9.85908 23.3099 6.93557 23.6364 5.53076C21.9249 6.7198 20.7437 8.53705 20.3458 10.5931C20.6873 10.6437 21.0342 10.6437 21.3757 10.5931Z" fill="#403612"/>
<path d="M22.7949 52.408L22.079 52.1802C17.9094 52.6231 22.9331 58.8752 25.4952 59.5839C24.1011 57.4324 22.6944 54.7747 22.7949 52.408Z" fill="#403612"/>
<path d="M13.1369 25.5014L14.7194 24.1726C15.0364 21.8656 15.2084 19.5407 15.2344 17.2118C15.5402 16.3867 15.7877 15.5409 15.9753 14.6807C15.385 14.9971 12.6346 16.3892 14.0538 17.3131C13.3481 19.9818 13.0391 22.7413 13.1369 25.5014Z" fill="#403612"/>
<path d="M55.0217 16.8701C55.0289 19.3174 55.2009 21.7614 55.5366 24.1852L55.8506 24.451C56.1758 24.8949 56.608 25.2478 57.1065 25.4762C57.1854 22.834 56.9023 20.1936 56.265 17.6295C57.1819 16.4272 55.6245 14.8452 54.4188 14.6807C54.4062 15.111 54.5947 16.6423 55.0217 16.8701Z" fill="#403612"/>
<path d="M30.996 41.0303C32.7543 42.2959 36.6476 44.5739 38.2551 41.6631C36.8862 39.828 34.0478 40.3975 31.9755 40.3975L30.996 41.0303Z" fill="#FFFFAD"/>
<path d="M31.938 33.4367C33.6209 34.8668 36.2457 35.3477 37.6272 33.4367C36.4969 31.7914 34.0102 32.5888 32.252 32.7913L31.938 33.4367Z" fill="#FFFFAD"/>
<path d="M30.996 48.9406C31.3477 49.7759 35.8941 51.4717 36.2834 49.257C36.6727 47.0422 31.6491 47.9914 30.7323 48.6115C30.4183 49.257 30.9332 48.9912 30.996 49.257V48.9406Z" fill="#FFFFAD"/>
<path d="M31.938 60.3309C32.5157 61.5965 33.4953 61.4826 34.0981 60.3942C33.4855 60.3224 32.868 60.3012 32.252 60.3309H31.938Z" fill="#FFFFAD"/>
<path d="M30.1796 12.9977C30.1796 14.2633 29.7149 15.3011 29.1497 15.3011C28.5846 15.3011 28.1199 14.276 28.1199 12.9977C28.1199 11.7195 28.572 10.6943 29.1497 10.6943C29.7275 10.6943 30.1796 11.7195 30.1796 12.9977Z" fill="#FFF3D2"/>
<path d="M41.0935 12.7317C41.0935 13.8075 40.654 14.6808 40.0888 14.6808C39.5237 14.6808 39.0967 13.8075 39.0967 12.7317C39.0967 11.656 39.5362 10.7827 40.0888 10.7827C40.6414 10.7827 41.0935 11.656 41.0935 12.7317Z" fill="#FFF3D2"/>
</g>
<defs>
<clipPath id="clip0_82_805">
<rect width="69" height="69" fill="white"/>
</clipPath>
</defs>
</svg>
