<svg width="680" height="165" viewBox="0 0 680 165" fill="none" xmlns="http://www.w3.org/2000/svg">
<path d="M101.979 128.775C98.3135 131.671 92.5368 134.344 84.6496 136.794C76.8733 139.245 69.6526 140.47 62.9873 140.47C50.4343 140.47 39.3809 137.908 29.8273 132.785C20.2738 127.55 12.8863 120.422 7.66512 111.4C2.55503 102.379 0 92.2432 0 80.9941C0 67.8515 2.77722 56.4909 8.33165 46.9125C13.8861 37.2226 21.3845 29.8161 30.8271 24.6926C40.2697 19.5692 50.601 17.0076 61.8208 17.0076C68.5973 17.0076 74.9849 17.8429 80.9836 19.5136C86.9824 21.0728 92.3701 23.189 97.147 25.8621L91.8148 40.731C88.26 38.7262 83.7609 37 78.3175 35.552C72.9852 33.9928 68.1529 33.213 63.8204 33.213C54.489 33.213 46.2128 35.1064 38.9921 38.8933C31.8824 42.6802 26.3835 48.082 22.4955 55.0988C18.6074 62.1156 16.6633 70.3019 16.6633 79.6576C16.6633 88.3451 18.6074 96.0857 22.4955 102.88C26.3835 109.674 31.8824 114.964 38.9921 118.751C46.1019 122.427 54.2112 124.264 63.3205 124.264C67.5418 124.264 71.6522 123.875 75.6514 123.095C79.6506 122.204 82.9832 120.979 85.6494 119.419V95.5289H61.6542V79.9917H101.979V128.775ZM143.963 86.3403C145.741 82.5533 148.24 79.212 151.462 76.3162C154.794 73.4205 158.294 71.1928 161.959 69.6336C165.625 68.0744 168.847 67.239 171.624 67.1276L170.958 82.6648C165.959 82.4421 161.404 83.4445 157.294 85.672C153.295 87.8995 150.128 91.0181 147.796 95.0277C145.574 98.9259 144.463 103.103 144.463 107.558V139.133H128.966V69.9677H142.797L143.963 86.3403ZM182.688 103.882C182.688 97.0881 184.299 90.9067 187.521 85.3378C190.853 79.6576 195.408 75.2024 201.185 71.9725C207.072 68.7426 213.682 67.1276 221.014 67.1276C228.347 67.1276 234.845 68.7426 240.511 71.9725C246.286 75.2024 250.73 79.602 253.842 85.1708C257.062 90.7396 258.674 96.9769 258.674 103.882C258.674 110.788 257.062 117.081 253.842 122.761C250.73 128.33 246.286 132.729 240.511 135.959C234.734 139.189 228.124 140.804 220.681 140.804C213.46 140.804 206.961 139.3 201.185 136.293C195.408 133.175 190.853 128.831 187.521 123.262C184.299 117.693 182.688 111.233 182.688 103.882ZM198.352 104.049C198.352 108.393 199.296 112.403 201.185 116.078C203.184 119.754 205.85 122.649 209.183 124.766C212.627 126.882 216.404 127.94 220.514 127.94C226.957 127.94 232.289 125.657 236.512 121.09C240.732 116.524 242.844 110.843 242.844 104.049C242.844 97.2552 240.732 91.5749 236.512 87.0085C232.289 82.3306 226.957 79.9917 220.514 79.9917C216.293 79.9917 212.516 81.1056 209.183 83.333C205.85 85.4493 203.184 88.345 201.185 92.0205C199.296 95.696 198.352 99.7056 198.352 104.049ZM373.186 69.9677L341.36 143.31L319.197 95.863L299.035 143.31L267.041 69.9677H282.372L300.868 111.901L313.699 81.8295L308.2 69.9677H321.697L340.36 112.904L357.856 69.9677H373.186ZM412.148 39.5616V70.1348H430.977V82.4977H412.148V139.133H396.484V82.4977H383.82V70.1348H396.484V39.5616H412.148ZM462.811 61.5549C469.484 53.3431 478.161 49.2371 488.846 49.2371C507.452 49.2371 516.836 59.7604 516.998 80.8068V139.133H501.946V80.7251C501.891 74.3623 500.427 69.6582 497.554 66.6128C494.733 63.5672 490.313 62.0445 484.29 62.0445C479.408 62.0445 475.123 63.3497 471.436 65.96C467.746 68.5706 464.873 71.9966 462.811 76.2387V139.133H447.76V13.8333H462.811V61.5549Z" fill="white"/>
<path d="M644.369 7.35777L596 82.5424L644.369 158.065L646.595 158.488L680 165L626.642 82.5424L680 0L644.369 7.35777Z" fill="#3096FF"/>
<path d="M644.369 7.35777L596 82.5424L644.369 158.065L646.595 158.488L680 165L626.642 82.5424L680 0L644.369 7.35777Z" stroke="#3096FF"/>
<path d="M574.766 82.1046L537.087 140.202L566.611 134.417L600 82.023L566.525 29.6292L537 23.8439L574.766 82.1046Z" fill="#3096FF"/>
</svg>
