<?xml version="1.0" ?>
<!DOCTYPE svg  PUBLIC '-//W3C//DTD SVG 1.1//EN'  'http://www.w3.org/Graphics/SVG/1.1/DTD/svg11.dtd'>
<!-- Uploaded to: SVG Repo, www.svgrepo.com, Generator: SVG Repo Mixer Tools -->
<svg width="800px" height="800px" viewBox="0 0 32 32" enable-background="new 0 0 32 32" version="1.1" xml:space="preserve" xmlns="http://www.w3.org/2000/svg" xmlns:xlink="http://www.w3.org/1999/xlink">
<g id="Home"/>
<g id="Print"/>
<g id="Mail"/>
<g id="Camera"/>
<g id="Video"/>
<g id="Film"/>
<g id="Message"/>
<g id="Telephone"/>
<g id="User"/>
<g id="File"/>
<g id="Folder"/>
<g id="Map"/>
<g id="Download"/>
<g id="Upload"/>
<g id="Video_Recorder"/>
<g id="Schedule"/>
<g id="Cart"/>
<g id="Setting"/>
<g id="Search"/>
<g id="Pencils"/>
<g id="Group"/>
<g id="Record"/>
<g id="Headphone"/>
<g id="Music_Player"/>
<g id="Sound_On"/>
<g id="Sound_Off"/>
<g id="Lock"/>
<g id="Lock_open"/>
<g id="Love">
<path d="M29.5,4.5C27.8,2.3,25.3,1,22.7,1c-2.6,0-5.1,1.3-6.7,3.5C14.4,2.3,11.9,1,9.3,1C6.7,1,4.2,2.3,2.5,4.5   c-1.9,2.6-2,6.4-0.3,9.3c0,0,0,0.1,0.1,0.1l12.9,16.6c0.2,0.3,0.5,0.4,0.8,0.4s0.6-0.1,0.8-0.4L29.7,14c0,0,0-0.1,0.1-0.1   C31.5,11,31.4,7.1,29.5,4.5z" fill="#E92662"/>
</g>
<g id="Favorite"/>
<g id="Film_1_"/>
<g id="Music"/>
<g id="Puzzle"/>
<g id="Turn_Off"/>
<g id="Book"/>
<g id="Save"/>
<g id="Reload"/>
<g id="Trash"/>
<g id="Tag"/>
<g id="Link"/>
<g id="Like"/>
<g id="Bad"/>
<g id="Gallery"/>
<g id="Add"/>
<g id="Close"/>
<g id="Forward"/>
<g id="Back"/>
<g id="Buy"/>
<g id="Mac"/>
<g id="Laptop"/>
</svg>