<?xml version="1.0" encoding="utf-8"?>
<!-- Uploaded to: SVG Repo, www.svgrepo.com, Generator: SVG Repo Mixer Tools -->
<svg fill="#000000" width="800px" height="800px" viewBox="0 0 32 32" version="1.1" xmlns="http://www.w3.org/2000/svg">
<title>star-half-filled</title>
<path d="M17.25 3c0-0.019-0.010-0.034-0.011-0.052-0.009-0.096-0.027-0.184-0.055-0.268l0.002 0.009c-0.016-0.081-0.037-0.153-0.064-0.221l0.003 0.008c-0.041-0.075-0.086-0.141-0.136-0.201l0.002 0.002c-0.045-0.070-0.092-0.13-0.145-0.186l0 0.001c-0.054-0.044-0.114-0.085-0.178-0.121l-0.006-0.003c-0.067-0.048-0.142-0.092-0.223-0.127l-0.008-0.003c-0.017-0.006-0.028-0.020-0.046-0.026-0.057-0.012-0.124-0.020-0.192-0.023l-0.002-0c-0.055-0.017-0.12-0.030-0.187-0.038l-0.006-0.001c-0.018 0-0.033 0.010-0.051 0.010-0.102 0.008-0.197 0.028-0.287 0.059l0.008-0.002c-0.074 0.015-0.138 0.034-0.199 0.058l0.008-0.003c-0.084 0.045-0.157 0.094-0.223 0.151l0.002-0.001c-0.062 0.041-0.115 0.083-0.165 0.13l0.001-0.001c-0.047 0.057-0.091 0.121-0.128 0.189l-0.003 0.006c-0.046 0.064-0.088 0.137-0.121 0.214l-0.003 0.008c-0.006 0.017-0.020 0.029-0.026 0.046l-2.946 9.067h-9.534c-0.69 0-1.25 0.56-1.25 1.25 0 0.414 0.202 0.782 0.512 1.009l0.004 0.002 7.713 5.603-2.946 9.068c-0.039 0.116-0.061 0.249-0.061 0.387 0 0.69 0.56 1.25 1.25 1.25 0.276 0 0.531-0.089 0.738-0.241l-0.004 0.002 8.448-6.139c0.027-0.020 0.041-0.050 0.066-0.072 0.236-0.213 0.395-0.508 0.43-0.84l0-0.006c0.003-0.033 0.019-0.061 0.019-0.094z"></path>
</svg>