<?xml version="1.0" encoding="iso-8859-1"?>

<!DOCTYPE svg PUBLIC "-//W3C//DTD SVG 1.1//EN" "http://www.w3.org/Graphics/SVG/1.1/DTD/svg11.dtd">
<!-- Uploaded to: SVG Repo, www.svgrepo.com, Generator: SVG Repo Mixer Tools -->
<svg height="800px" width="800px" version="1.1" id="_x34_" xmlns="http://www.w3.org/2000/svg" xmlns:xlink="http://www.w3.org/1999/xlink" 
	 viewBox="0 0 512 512"  xml:space="preserve">
<g>
	<g>
		<g>
			<path style="fill:#BFB61E;" d="M258.373,448.122c-11.783,0-21.337,1.395-21.337,18.136c0,8.131,9.553,45.742,21.337,45.742
				c11.784,0,21.336-37.611,21.336-45.742C279.709,449.518,270.156,448.122,258.373,448.122z"/>
			<path style="fill:#BFB61E;" d="M352.653,422.86c-10.205,5.891-17.78,11.876-9.41,26.374c4.065,7.041,31.144,34.837,41.349,28.945
				c10.205-5.892-0.328-43.241-4.393-50.282C371.829,413.4,362.858,416.968,352.653,422.86z"/>
			<path style="fill:#BFB61E;" d="M448.046,344.432c-14.498-8.37-20.483-0.795-26.375,9.41c-5.892,10.205-9.46,19.176,5.038,27.546
				c7.041,4.065,44.39,14.598,50.282,4.393C482.883,375.576,455.087,348.497,448.046,344.432z"/>
			<path style="fill:#BFB61E;" d="M465.07,238.225c-16.741,0-18.136,9.553-18.136,21.337c0,11.784,1.396,21.336,18.136,21.336
				c8.13,0,45.742-9.553,45.742-21.336C510.812,247.777,473.2,238.225,465.07,238.225z"/>
			<path style="fill:#BFB61E;" d="M426.71,137.735c-14.498,8.37-10.93,17.341-5.038,27.546c5.892,10.204,11.877,17.78,26.375,9.41
				c7.041-4.065,34.837-31.144,28.945-41.349C471.099,123.137,433.75,133.67,426.71,137.735z"/>
			<path style="fill:#BFB61E;" d="M164.092,422.86c-10.205-5.892-19.176-9.46-27.546,5.038c-4.065,7.041-14.598,44.39-4.393,50.282
				c10.205,5.892,37.283-21.904,41.349-28.945C181.872,434.737,174.297,428.752,164.092,422.86z"/>
			<path style="fill:#BFB61E;" d="M424.226,259.561c0-45.799-18.564-87.263-48.577-117.276L141.097,376.837
				c30.013,30.013,71.477,48.578,117.276,48.578C349.971,425.415,424.226,351.159,424.226,259.561z"/>
		</g>
		<g>
			<path style="fill:#C6BA56;" d="M164.11,96.239c-10.143,5.855-19.05,9.401-27.297-4.618c-0.082-0.083-0.165-0.247-0.248-0.412
				c-4.123-7.009-14.596-44.367-4.453-50.305c7.669-4.454,25.07,10.308,34.719,20.781c3.298,3.464,5.69,6.433,6.68,8.164
				C181.84,84.364,174.336,90.384,164.11,96.239z"/>
			<g>
				<path style="fill:#C6BA56;" d="M279.729,52.861v0.577c-0.248,16.164-9.732,17.566-21.359,17.566
					c-9.319,0-17.236-0.907-20.122-9.483c-0.824-2.227-1.237-5.113-1.237-8.66c0-5.03,3.629-21.276,9.154-32.987
					c3.546-7.257,7.752-12.782,12.205-12.782c1.319,0,2.639,0.495,3.876,1.402C272.225,15.174,279.729,45.604,279.729,52.861z"/>
				<path style="fill:#C6BA56;" d="M95.085,165.264c-5.938,10.226-11.875,17.813-26.39,9.401
					c-3.958-2.227-14.432-11.793-21.854-21.524c-0.082-0.083-0.165-0.165-0.165-0.248c-5.69-7.504-9.484-15.091-6.928-19.545
					c5.938-10.226,43.213,0.33,50.305,4.371c1.237,0.742,2.391,1.484,3.381,2.226C103.909,147.699,100.445,155.945,95.085,165.264z"
					/>
				<path style="fill:#C6BA56;" d="M69.85,259.524c0,11.546-1.32,21.03-17.236,21.359h-0.907c-7.834,0-43.13-8.907-45.605-20.122
					c-0.082,0-0.082,0-0.082,0c0-0.412-0.083-0.824-0.083-1.237c0-4.536,5.69-8.824,13.112-12.205
					c11.711-5.525,27.709-9.071,32.657-9.071c4.701,0,8.164,0.742,10.721,2.062C69.108,243.773,69.85,251.113,69.85,259.524z"/>
				<path style="fill:#C6BA56;" d="M68.7,344.432c-7.041,4.065-34.837,31.144-28.945,41.349c5.892,10.205,43.241-0.328,50.281-4.393
					c14.498-8.37,10.93-17.341,5.038-27.546C89.183,343.637,83.197,336.062,68.7,344.432z"/>
				<path style="fill:#C6BA56;" d="M352.653,96.263c10.205,5.892,19.176,9.46,27.546-5.038c4.065-7.041,14.598-44.39,4.393-50.282
					c-10.205-5.892-37.284,21.904-41.349,28.945C334.873,84.386,342.448,90.371,352.653,96.263z"/>
				<path style="fill:#C6BA56;" d="M258.373,93.708c-91.598,0-165.853,74.255-165.853,165.853
					c0,45.799,18.563,87.262,48.577,117.276l234.552-234.552C345.635,112.271,304.172,93.708,258.373,93.708z"/>
			</g>
		</g>
	</g>
	<g>
		<path style="fill:#EFE748;" d="M252.408,440.964c-11.783,0-21.337,1.395-21.337,18.136c0,8.131,9.553,45.742,21.337,45.742
			s21.336-37.611,21.336-45.742C273.744,442.36,264.191,440.964,252.408,440.964z"/>
		<path style="fill:#EFE748;" d="M346.688,415.702c-10.205,5.892-17.78,11.877-9.41,26.375c4.065,7.041,31.144,34.837,41.349,28.945
			c10.205-5.892-0.328-43.241-4.393-50.282C365.864,406.242,356.893,409.81,346.688,415.702z"/>
		<path style="fill:#EFE748;" d="M442.081,337.274c-14.498-8.37-20.483-0.795-26.375,9.41c-5.892,10.205-9.46,19.176,5.038,27.546
			c7.041,4.065,44.39,14.598,50.282,4.393C476.918,368.418,449.122,341.339,442.081,337.274z"/>
		<path style="fill:#EFE748;" d="M459.105,231.066c-16.741,0-18.136,9.553-18.136,21.337c0,11.784,1.395,21.336,18.136,21.336
			c8.13,0,45.742-9.553,45.742-21.336C504.846,240.619,467.235,231.066,459.105,231.066z"/>
		<path style="fill:#EFE748;" d="M420.744,130.577c-14.497,8.37-10.93,17.341-5.038,27.546c5.892,10.205,11.877,17.78,26.375,9.41
			c7.041-4.065,34.837-31.144,28.945-41.349C465.134,115.979,427.785,126.511,420.744,130.577z"/>
		<path style="fill:#EFE748;" d="M158.127,415.702c-10.205-5.892-19.176-9.46-27.546,5.038c-4.065,7.041-14.598,44.39-4.392,50.282
			c10.205,5.892,37.283-21.904,41.349-28.945C175.907,427.578,168.332,421.594,158.127,415.702z"/>
		<path style="fill:#EFE748;" d="M418.261,252.403c0-45.799-18.564-87.263-48.577-117.276L135.132,369.679
			c30.014,30.013,71.477,48.578,117.276,48.578C344.006,418.257,418.261,344.001,418.261,252.403z"/>
	</g>
	<g>
		<path style="fill:#FAF2AF;" d="M158.09,89.065c-7.67,4.453-14.679,7.587-21.277,2.557c-2.144-1.567-4.206-4.041-6.268-7.587
			c-4.041-7.01-14.597-44.367-4.371-50.223c9.814-5.69,34.967,19.545,40.657,27.874c0.33,0.412,0.577,0.742,0.742,1.072
			C175.903,77.189,168.316,83.209,158.09,89.065z"/>
		<g>
			<path style="fill:#FAF2AF;" d="M273.709,45.687c0,0.577,0,1.155-0.083,1.65c-0.577,15.174-9.814,16.493-21.194,16.493
				c-4.288,0-8.247-0.165-11.628-1.237c-0.907-0.247-1.732-0.659-2.556-1.072c-2.722-1.402-4.866-3.711-6.02-7.422
				c-0.083-0.083,0-0.083,0-0.083c-0.742-2.227-1.155-5.03-1.155-8.329c0-4.865,3.464-20.452,8.824-32.08
				c3.216-7.01,7.175-12.617,11.381-13.442C251.69,0.083,252.02,0,252.432,0c3.547,0,6.927,3.463,9.814,8.494
				c0.99,1.649,1.897,3.464,2.804,5.443C270.328,25.482,273.709,40.904,273.709,45.687z"/>
			<path style="fill:#FAF2AF;" d="M89.147,158.09c-5.937,10.226-11.875,17.813-26.39,9.484c-2.969-1.732-9.648-7.505-15.916-14.432
				c-0.082-0.083-0.165-0.165-0.165-0.248c-8.577-9.401-16.246-20.864-12.865-26.719c5.855-10.226,43.213,0.33,50.222,4.371
				c5.195,3.051,8.164,6.185,9.401,9.401C95.662,145.637,92.858,151.658,89.147,158.09z"/>
			<path style="fill:#FAF2AF;" d="M63.83,252.432c0,11.793-1.402,21.277-18.142,21.277H45.44c-5.03-0.083-20.122-3.382-31.503-8.577
				c-2.886-1.402-5.608-2.804-7.835-4.371c-0.082,0-0.082,0-0.082,0C2.309,258.205,0,255.401,0,252.432c0-0.33,0-0.742,0.165-1.072
				c0.742-4.041,5.69-7.669,12.04-10.886c11.793-5.608,28.451-9.401,33.482-9.401c1.897,0,3.629,0.165,5.196,0.412
				c6.762,0.99,9.978,4.288,11.545,8.824c0.412,1.072,0.66,2.309,0.825,3.546C63.748,246.412,63.83,249.381,63.83,252.432z"/>
			<path style="fill:#FAF2AF;" d="M84.034,374.237c-5.196,3.051-27.379,9.649-40.739,8.576c-1.567-0.083-2.969-0.33-4.288-0.742
				c-2.392-0.66-4.206-1.815-5.195-3.464c-0.908-1.567-1.072-3.629-0.577-5.855c2.804-12.206,23.503-32.08,29.523-35.461
				c2.969-1.732,5.608-2.804,7.917-3.216c7.917-1.732,12.453,2.969,16.659,9.566c0.577,0.99,1.237,1.979,1.814,3.051
				c2.062,3.711,3.959,7.175,4.701,10.556C95.25,363.268,93.353,368.876,84.034,374.237z"/>
			<path style="fill:#FAF2AF;" d="M346.688,89.104c10.205,5.892,19.176,9.46,27.546-5.038c4.065-7.041,14.598-44.39,4.393-50.282
				c-10.205-5.892-37.284,21.904-41.349,28.945C328.908,77.228,336.483,83.213,346.688,89.104z"/>
			<path style="fill:#FAF2AF;" d="M369.701,135.164l-0.743,0.742l-3.381,3.381L135.164,369.701
				c-2.474-2.474-4.783-4.948-7.092-7.587c-6.185-7.009-11.793-14.514-16.741-22.513c-15.668-25.318-24.74-55.171-24.74-87.168
				c0-91.621,74.221-165.842,165.842-165.842c29.936,0,58.057,7.917,82.385,21.936C347.6,115.784,359.31,124.773,369.701,135.164z"
				/>
		</g>
	</g>
</g>
</svg>